<svg id="Group_113302" data-name="Group 113302" xmlns="http://www.w3.org/2000/svg" xmlns:xlink="http://www.w3.org/1999/xlink" width="49.992" height="50" viewBox="0 0 49.992 50">
  <defs>
    <clipPath id="clip-path">
      <rect id="Rectangle_37199" data-name="Rectangle 37199" width="49.992" height="50" fill="#5c22c3"/>
    </clipPath>
  </defs>
  <g id="Group_113301" data-name="Group 113301" clip-path="url(#clip-path)">
    <path id="Path_175249" data-name="Path 175249" d="M32,36v.664q0,5.992,0,11.983C32,49.693,31.692,50,30.637,50H1.342C.307,50,0,49.7,0,48.68Q0,38.5,0,28.318c0-1,.308-1.305,1.3-1.307q2.539,0,5.078,0h.585V25.328c-.734.522-1.266.222-1.786-.331-.766-.812-1.577-1.582-2.362-2.376a1.036,1.036,0,0,1-.008-1.671c.513-.515,1.039-1.018,1.535-1.5-.307-.785-.583-1.525-.893-2.249A.511.511,0,0,0,3.06,17c-.66-.02-1.32,0-1.98-.012A.967.967,0,0,1,.008,15.92q-.014-1.93,0-3.859A.986.986,0,0,1,1.051,11q.989-.03,1.98,0a.437.437,0,0,0,.5-.352c.235-.667.518-1.318.822-2.076C3.9,8.123,3.38,7.622,2.87,7.11a1.064,1.064,0,0,1,0-1.778Q4.124,4.073,5.384,2.819a1.037,1.037,0,0,1,1.67,0c.447.439.895.877,1.325,1.332a.407.407,0,0,0,.562.1c.563-.268,1.141-.507,1.728-.719A.413.413,0,0,0,11,3.06c-.016-.643-.014-1.286,0-1.929A1.011,1.011,0,0,1,12.133.01Q14.011,0,15.89.01a.98.98,0,0,1,1.1,1.1c.01.626.014,1.252,0,1.879a.467.467,0,0,0,.369.548c.684.233,1.347.528,2.09.826.458-.474.947-.99,1.447-1.493a1.069,1.069,0,0,1,1.781.008c.333.331.655.675,1.01,1.041,1.159-1.163,2.277-2.266,3.371-3.394A1.611,1.611,0,0,1,28.307,0q10.18.019,20.359.009c1.023,0,1.326.3,1.326,1.332q0,16.655,0,33.31c0,1.056-.3,1.35-1.361,1.35H32Zm0-1.989h.59c4.925,0,9.849-.009,14.772.013.521,0,.643-.137.643-.647Q47.984,18.018,48,2.66V2.038c-.19-.014-.321-.033-.452-.033Q38.508,2,29.471,2c-.377,0-.494.106-.488.487.021,1.421.011,2.843.007,4.265,0,.918-.34,1.254-1.26,1.258-1.387.005-2.775,0-4.162,0-.179,0-.358.018-.541.028V19.007h.642c1.013,0,1.329.318,1.329,1.337q0,3.046,0,6.092v.574h.624c1.743,0,3.486-.006,5.229,0A1.012,1.012,0,0,1,32,28.172c.007,1.354,0,2.708,0,4.062v1.777m-29.967.07V47.968H29.958V34.076A10.254,10.254,0,0,1,21,38c0,.373.017.677,0,.978A.981.981,0,0,1,19.964,40q-3.958.024-7.917,0a1,1,0,0,1-1.051-1.062c-.012-.3,0-.6,0-.945a10.3,10.3,0,0,1-8.958-3.917m27.822-5.047H2.122c0,3.9,4.823,7.66,8.87,6.9,0-.24,0-.49,0-.74.012-.793.359-1.171,1.137-1.174q3.884-.013,7.767,0A1,1,0,0,1,21,35.12c.012.28,0,.561,0,.829,4.343.539,9.039-3.148,8.852-6.916M7.022,19.685A1.222,1.222,0,0,1,8.25,19c4.042.011,8.083.006,12.126.006h.591A2.492,2.492,0,0,0,21,18.743c0-3.366.007-6.731-.009-10.1a1.017,1.017,0,0,0-.274-.615,8.679,8.679,0,0,0-8.285-2.878A8.937,8.937,0,0,0,5.106,15.375a8.691,8.691,0,0,0,1.916,4.31m5,7.28h7.95V24.022h-7.95Zm10.933.022V21.043H9.042V26.98H9.99v-.574c0-1.049,0-2.1,0-3.148,0-.88.358-1.253,1.22-1.254q4.8-.009,9.595,0c.822,0,1.177.36,1.186,1.176.01,1.083,0,2.166,0,3.25,0,.18.016.361.026.556ZM13.033,37.978h5.938v-1.95H13.033Zm11.559-32h2.382V3.622L24.592,5.977M7.006,23.8c0-.249.016-.529-.005-.806a1.084,1.084,0,0,0-.14-.6c-.415-.455-.881-.864-1.282-1.248l-.655.552,2.083,2.1M2.043,14.96h.968V13.035H2.043Zm2.819-8.7.641.55L6.83,5.567l-.59-.675L4.863,6.262m8.163-3.245h1.93v-.97h-1.93Zm8.766,1.8-.756.724.489.428.682-.687-.415-.464" transform="translate(0 0)" fill="#5c22c3"/>
    <path id="Path_175250" data-name="Path 175250" d="M68.01,13.993c0-1.591,0-3.181,0-4.773,0-.882.353-1.239,1.228-1.24q4.772-.007,9.544,0c.837,0,1.224.382,1.226,1.206q.007,4.8,0,9.6c0,.841-.363,1.2-1.215,1.2q-4.8.007-9.6,0c-.849,0-1.184-.351-1.187-1.217,0-1.591,0-3.181,0-4.773m2.027-3.978v7.947h.837a11.326,11.326,0,0,1,.61-1.552.677.677,0,0,0-.005-.835,2.811,2.811,0,0,1,.04-3.245,2.987,2.987,0,0,1,5.365.866,3,3,0,0,1-.6,2.763,9.485,9.485,0,0,1,.509.98,8.736,8.736,0,0,1,.263,1.027h.9V10.015Zm4.957,3.973a.99.99,0,1,0-1,.993.987.987,0,0,0,1-.993m-.056,3.984a.941.941,0,1,0-1.881,0Z" transform="translate(-34.004 -3.989)" fill="#5c22c3"/>
    <path id="Path_175251" data-name="Path 175251" d="M63.537,36q4.137,0,8.274,0c.8,0,1.312.514,1.18,1.166a.977.977,0,0,1-.853.822,3.326,3.326,0,0,1-.556.024q-8.071,0-16.142,0a3.1,3.1,0,0,1-.606-.035.964.964,0,0,1-.808-1.014.976.976,0,0,1,.883-.953A3.891,3.891,0,0,1,55.416,36h8.122" transform="translate(-27.013 -17.997)" fill="#5c22c3"/>
    <path id="Path_175252" data-name="Path 175252" d="M63.515,46q-4.187,0-8.374,0a.979.979,0,0,1-1.113-1.026.941.941,0,0,1,.781-.927A3.31,3.31,0,0,1,55.415,44q8.095,0,16.19,0c.928,0,1.418.354,1.409,1.012S72.528,46,71.584,46h-8.07" transform="translate(-27.013 -22.001)" fill="#5c22c3"/>
    <path id="Path_175253" data-name="Path 175253" d="M73.994,62c-1.574,0-3.148,0-4.722,0a1.894,1.894,0,0,1-.6-.079.982.982,0,0,1,.014-1.849,2.351,2.351,0,0,1,.7-.081q4.621-.007,9.241,0c.1,0,.2,0,.3,0a1.039,1.039,0,0,1,1.08,1.041,1.025,1.025,0,0,1-1.1.969c-1.642.01-3.283,0-4.925,0" transform="translate(-34.015 -29.993)" fill="#5c22c3"/>
    <path id="Path_175254" data-name="Path 175254" d="M74.037,52.023q2.386,0,4.771,0c.743,0,1.214.4,1.205,1s-.457.987-1.176.988q-4.822.011-9.645,0c-.756,0-1.183-.4-1.164-1.036.018-.607.443-.954,1.186-.955q2.411,0,4.823,0" transform="translate(-34.014 -26.011)" fill="#5c22c3"/>
    <path id="Path_175255" data-name="Path 175255" d="M53.468,21.994c-.777,0-1.553.005-2.329,0a1.008,1.008,0,1,1-.012-2q2.38-.014,4.76,0a1.008,1.008,0,1,1-.039,2c-.793.007-1.586,0-2.379,0" transform="translate(-25.002 -9.992)" fill="#5c22c3"/>
    <path id="Path_175256" data-name="Path 175256" d="M53.529,28.015c.778,0,1.558-.007,2.336,0A1,1,0,1,1,55.857,30q-2.362.014-4.723,0A1,1,0,0,1,50,29.03c-.013-.6.43-1,1.14-1.012.8-.01,1.591,0,2.386,0" transform="translate(-25.001 -14.006)" fill="#5c22c3"/>
    <rect id="Rectangle_37196" data-name="Rectangle 37196" width="1.933" height="1.952" transform="translate(18.026 44.039)" fill="#5c22c3"/>
    <rect id="Rectangle_37197" data-name="Rectangle 37197" width="1.938" height="1.95" transform="translate(22.026 44.033)" fill="#5c22c3"/>
    <rect id="Rectangle_37198" data-name="Rectangle 37198" width="1.938" height="1.949" transform="translate(26.024 44.043)" fill="#5c22c3"/>
    <path id="Path_175257" data-name="Path 175257" d="M27.985,24.011a4,4,0,1,1-4-4.016,4,4,0,0,1,4,4.016m-2.007-.031a1.994,1.994,0,1,0-1.97,2.008,1.968,1.968,0,0,0,1.97-2.008" transform="translate(-9.993 -9.998)" fill="#5c22c3"/>
  </g>
</svg>
