<svg id="Group_111517" data-name="Group 111517" xmlns="http://www.w3.org/2000/svg" xmlns:xlink="http://www.w3.org/1999/xlink" width="56.782" height="75" viewBox="0 0 56.782 75">
  <defs>
    <clipPath id="clip-path">
      <rect id="Rectangle_35855" data-name="Rectangle 35855" width="56.782" height="75" fill="none"/>
    </clipPath>
  </defs>
  <g id="Group_111516" data-name="Group 111516" clip-path="url(#clip-path)">
    <path id="Path_172347" data-name="Path 172347" d="M35.864,0a2.954,2.954,0,0,1,1.842,3.213c-.079,1.725-.018,3.456-.018,5.293,2.531-.159,4.878.142,6.8,1.914a7.946,7.946,0,0,1,2.451,6.636h.853c1.879,0,3.759-.008,5.638,0a3.079,3.079,0,0,1,3.348,3.316c.01,1.317,0,2.635,0,3.953a3.1,3.1,0,0,1-.024.511,1.06,1.06,0,0,1-1.177.956,1,1,0,0,1-.984-1.065c-.02-1.415-.006-2.831-.014-4.246,0-.964-.258-1.218-1.212-1.228-.631-.008-1.261,0-1.932,0V65.868a15.85,15.85,0,0,0,2.32-.037c.3-.045.593-.474.793-.79.112-.175.032-.475.032-.719q0-17.059,0-34.118c0-.269-.01-.538.009-.805a1.082,1.082,0,0,1,2.159-.115,4.22,4.22,0,0,1,.028.73q0,17.242,0,34.484c0,2.408-1.183,3.579-3.608,3.58H44.141c.3,3.189-.127,5.953-3.736,6.922H6.567a1.906,1.906,0,0,0-.266-.118,4.5,4.5,0,0,1-3.523-4.605c-.007-6.982,0-13.964-.018-20.946a3.521,3.521,0,0,0-.356-1.45c-.567-1.187-1.27-2.312-1.793-3.517a6.377,6.377,0,0,1-.577-2.378C-.021,37.593.008,33.2.008,28.8c0-.024,0-.049,0-.073.013-.911.414-1.44,1.1-1.449s1.1.509,1.1,1.426c0,3.979.04,7.959-.019,11.937a6.392,6.392,0,0,0,.968,3.887,11.978,11.978,0,0,1,1.868,7.4c-.151,6.026-.048,12.059-.046,18.089,0,1.913.863,2.783,2.758,2.783H39.224c1.894,0,2.76-.872,2.76-2.785q0-10.4-.01-20.8a4.012,4.012,0,0,1,.539-2.229c.308-.5.505-1.062.829-1.545a9.751,9.751,0,0,0,1.44-5.829c-.087-7.762-.031-15.526-.037-23.289,0-2.694-1.392-4.769-3.751-5.388a21.148,21.148,0,0,0-3.247-.348v4.956c.577,0,1.152-.007,1.727,0a2.688,2.688,0,0,1,2.905,2.865c.015.781.031,1.564-.016,2.343A2.573,2.573,0,0,1,39.695,23.3q-16.223.016-32.444,0A2.567,2.567,0,0,1,4.593,20.82a18.83,18.83,0,0,1,0-2.78,2.619,2.619,0,0,1,2.673-2.483c.629-.017,1.26,0,1.939,0V10.777c-3.221-.612-6,.918-6.777,3.757a7.156,7.156,0,0,0-.215,1.807c-.025,2.416,0,4.833-.017,7.25a1.044,1.044,0,0,1-1.022,1.184A1.053,1.053,0,0,1,.022,23.637c.006-2.9-.1-5.818.12-8.707A7.247,7.247,0,0,1,7.1,8.505c.679-.023,1.359,0,2.153,0v-.98c0-1.44.056-2.883-.015-4.32A2.923,2.923,0,0,1,11.108,0h5.713c.492.364.909.773.653,1.46s-.813.751-1.439.742c-1.22-.017-2.444.045-3.66-.024-.765-.043-.939.214-.936.944.028,5.712.016,11.425.016,17.137v.8h24c.016-.178.036-.3.036-.42,0-5.908-.005-11.816.014-17.723,0-.6-.218-.728-.775-.725-4.394.02-8.788.006-13.182.016-.629,0-1.195-.079-1.436-.747s.157-1.1.668-1.455ZM46.946,19.3v.983q0,10.651.008,21.3a6.139,6.139,0,0,1-.765,3.15c-.6,1.059-1.157,2.146-1.684,3.243a2.993,2.993,0,0,0-.309,1.243c-.021,5.271-.014,10.542-.014,15.812v.8h4.971V19.3ZM37.732,21.11c.646,0,1.227-.009,1.807,0,.426.01.636-.188.639-.605,0-.728.037-1.459-.026-2.182a.774.774,0,0,0-.511-.543,16.955,16.955,0,0,0-1.909-.026ZM9.219,17.756c-.663,0-1.313-.038-1.953.025a.725.725,0,0,0-.472.515,14.608,14.608,0,0,0,0,2.253.773.773,0,0,0,.518.532,17.169,17.169,0,0,0,1.906.026Z"/>
    <path id="Path_172348" data-name="Path 172348" d="M23.405,41.883q-6.294,0-12.588,0-3.077,0-3.073-3.04,0-5.452,0-10.9a2.686,2.686,0,0,1,3.033-3.007q12.7,0,25.4,0c2.026,0,3.043,1.032,3.045,3.077q0,5.415,0,10.831,0,3.039-3.077,3.044-6.367,0-12.735,0m.118-14.757c-4.224,0-8.447.011-12.671-.011-.7,0-.931.23-.925.937q.045,5.346,0,10.693c-.006.685.18.954.907.953q12.633-.029,25.268,0c.706,0,.934-.237.929-.936-.026-3.564-.011-7.129-.013-10.693,0-.886-.058-.941-.973-.941q-6.263,0-12.524,0"/>
    <path id="Path_172349" data-name="Path 172349" d="M23.408,70.331q-6.624,0-13.247,0c-1.69,0-2.412-.719-2.417-2.389,0-.732-.01-1.464,0-2.195A2,2,0,0,1,9.9,63.6c1.122-.017,2.244,0,3.367,0H36.685c1.818,0,2.53.709,2.533,2.513,0,.683.01,1.367,0,2.049a2,2,0,0,1-2.2,2.172q-6.805.013-13.612,0M9.98,68.068H36.966V65.83H9.98Z"/>
    <path id="Path_172350" data-name="Path 172350" d="M11.359,53.9c.415,0,.83-.008,1.244,0a1.86,1.86,0,0,1,1.974,1.83,25.359,25.359,0,0,1,0,2.852,1.813,1.813,0,0,1-1.836,1.811c-.949.045-1.9.046-2.852,0A1.836,1.836,0,0,1,8.054,58.5c-.032-.9-.034-1.806,0-2.708A1.878,1.878,0,0,1,10.042,53.9c.439-.009.878,0,1.317,0m1,2.257H10.289v2.03h2.074Z"/>
    <path id="Path_172351" data-name="Path 172351" d="M35.683,53.9c.414,0,.829-.008,1.244,0A1.86,1.86,0,0,1,38.9,55.732a25.6,25.6,0,0,1,0,2.852,1.814,1.814,0,0,1-1.841,1.807c-.949.044-1.9.045-2.852,0a1.837,1.837,0,0,1-1.831-1.9c-.032-.877-.028-1.757,0-2.634a1.89,1.89,0,0,1,2-1.962c.439-.009.879,0,1.318,0m-1.037,4.259h2.029V56.132H34.646Z"/>
    <path id="Path_172352" data-name="Path 172352" d="M35.59,52.165c-.439,0-.879.011-1.317,0a1.852,1.852,0,0,1-1.9-1.832c-.044-.949-.046-1.9,0-2.852a1.823,1.823,0,0,1,1.843-1.8c.925-.038,1.854-.037,2.78,0a1.847,1.847,0,0,1,1.9,1.9c.038.9.041,1.806,0,2.706a1.868,1.868,0,0,1-1.995,1.886c-.439.01-.878,0-1.317,0M36.673,47.9h-2.06v2.045h2.06Z"/>
    <path id="Path_172353" data-name="Path 172353" d="M11.313,52.165c-.439,0-.878.01-1.317,0A1.864,1.864,0,0,1,8.057,50.3c-.039-.925-.04-1.854,0-2.78a1.838,1.838,0,0,1,1.878-1.847c.9-.036,1.8-.034,2.707-.005A1.863,1.863,0,0,1,14.589,47.6c.034.876.036,1.757,0,2.634a1.877,1.877,0,0,1-2.03,1.927c-.414.008-.829,0-1.244,0M10.27,49.93h2.075V47.909H10.27Z"/>
    <path id="Path_172354" data-name="Path 172354" d="M19.405,52.165c-.439,0-.878.011-1.317,0a1.822,1.822,0,0,1-1.906-1.809,26.391,26.391,0,0,1,.006-2.923,1.774,1.774,0,0,1,1.8-1.755c.949-.04,1.9-.04,2.851,0a1.821,1.821,0,0,1,1.842,1.873q.036,1.353,0,2.706a1.855,1.855,0,0,1-1.959,1.911c-.438.01-.878,0-1.316,0m1.05-4.27H18.416v2.034h2.039Z"/>
    <path id="Path_172355" data-name="Path 172355" d="M19.467,53.9c.463,0,.927-.017,1.39,0a1.822,1.822,0,0,1,1.812,1.75c.043,1,.041,2,0,3a1.757,1.757,0,0,1-1.676,1.719,28.371,28.371,0,0,1-3.141,0A1.7,1.7,0,0,1,16.2,58.715a25.531,25.531,0,0,1-.009-3.068A1.8,1.8,0,0,1,18.077,53.9c.463-.014.927,0,1.39,0v0m-1.062,4.256h2.041V56.123H18.405Z"/>
    <path id="Path_172356" data-name="Path 172356" d="M24.281,48.865c0-.463-.019-.927,0-1.389a1.781,1.781,0,0,1,1.688-1.785,30.47,30.47,0,0,1,3.141,0,1.709,1.709,0,0,1,1.64,1.662,30.47,30.47,0,0,1,0,3.141,1.747,1.747,0,0,1-1.733,1.654c-.974.035-1.951.034-2.925,0a1.82,1.82,0,0,1-1.808-1.828c-.021-.486,0-.975,0-1.462m4.26-.951H26.517v2.022h2.024Z"/>
    <path id="Path_172357" data-name="Path 172357" d="M24.285,57.11c0-.487-.025-.976.005-1.462a1.806,1.806,0,0,1,1.743-1.738c1-.037,2-.036,3,0a1.751,1.751,0,0,1,1.721,1.669,30.49,30.49,0,0,1,0,3.142A1.7,1.7,0,0,1,29.1,60.371a27.788,27.788,0,0,1-3.068.008A1.8,1.8,0,0,1,24.28,58.5c-.015-.463,0-.927,0-1.39h.007m2.233,1.041h2.024V56.125H26.518Z"/>
    <path id="Path_172358" data-name="Path 172358" d="M23.5,14.923q4.021,0,8.043,0c.948,0,1.414.368,1.41,1.092s-.492,1.1-1.42,1.1q-8.08.006-16.159,0c-.819,0-1.27-.324-1.359-.931-.109-.743.37-1.257,1.223-1.26,2.754-.01,5.508,0,8.262,0"/>
    <path id="Path_172359" data-name="Path 172359" d="M23.51,9.943q4.021,0,8.043,0c.94,0,1.411.375,1.4,1.1s-.5,1.1-1.428,1.1q-8.043.006-16.085,0c-.929,0-1.425-.387-1.439-1.087-.013-.685.439-1.1,1.245-1.1,2.754-.007,5.508,0,8.262,0"/>
    <path id="Path_172360" data-name="Path 172360" d="M23.541,4.954h7.823a4.352,4.352,0,0,1,.657.02,1,1,0,0,1,.926.966.979.979,0,0,1-.733,1.119,3.037,3.037,0,0,1-.864.088q-7.86.008-15.72,0a3.208,3.208,0,0,1-.8-.055,1,1,0,0,1-.821-1.131.99.99,0,0,1,.976-.992c.314-.031.633-.016.95-.016h7.6"/>
  </g>
</svg>
