<svg id="Group_111892" data-name="Group 111892" xmlns="http://www.w3.org/2000/svg" xmlns:xlink="http://www.w3.org/1999/xlink" width="99.926" height="100" viewBox="0 0 99.926 100">
  <defs>
    <clipPath id="clip-path">
      <rect id="Rectangle_36071" data-name="Rectangle 36071" width="99.926" height="100" fill="#5c22c3"/>
    </clipPath>
  </defs>
  <g id="Group_111891" data-name="Group 111891" clip-path="url(#clip-path)">
    <path id="Path_174224" data-name="Path 174224" d="M58.69,32.488c.426.137.835.265,1.241.4A11.252,11.252,0,0,1,67.683,43.35c.032,1.641.005,3.284.005,5h3.229v-1.78c0-3.022-.006-6.044,0-9.067,0-1.39.573-1.964,1.949-1.972,1.98-.012,3.96,0,6.023,0V32.3c-.931,0-1.89.011-2.849,0-1.311-.019-1.894-.6-1.9-1.924q-.018-4.533,0-9.066c.006-1.312.6-1.9,1.921-1.9q7.755-.013,15.511,0c1.309,0,1.893.6,1.9,1.923q.018,4.533,0,9.066c-.006,1.308-.6,1.882-1.925,1.9-.933.012-1.866,0-2.851,0v3.224h2.351c1.209,0,2.417-.006,3.626,0,1.452.01,2.02.563,2.023,2,.009,3.224,0,6.447,0,9.671v1.168c.386.019.708.047,1.031.05,1.666.015,2.19.519,2.191,2.143q0,7.555,0,15.11c0,1.524-.548,2.075-2.041,2.09-.36,0-.72,0-1.18,0V97.645c0,1.907-.454,2.355-2.383,2.355H5.586c-1.908,0-2.353-.451-2.353-2.382V67.761c-.535,0-1.023.018-1.509,0A1.594,1.594,0,0,1,.02,66.05q-.04-3.123,0-6.246a1.575,1.575,0,0,1,1.7-1.7c1.373-.03,2.746-.007,4.255-.007-.217-.915-.408-1.748-.613-2.576-.662-2.668-1.336-5.333-1.993-8-.356-1.448.289-2.288,1.762-2.316,1.107-.021,2.213-.026,3.32-.042.021,0,.041-.039.127-.126-.624-1.282-1.264-2.593-1.927-3.951l2.854-1.427c.8,1.6,1.612,3.125,2.34,4.692a1.254,1.254,0,0,0,1.355.871c1.979-.056,3.962-.048,5.942,0a1.139,1.139,0,0,0,1.215-.77c.747-1.572,1.55-3.117,2.388-4.788l2.87,1.414L23.589,45.2c1.265,0,2.39-.012,3.514,0a1.652,1.652,0,0,1,1.779,2.3c-.785,3.19-1.586,6.376-2.378,9.565-.073.291-.126.586-.2.955H32.24V52.93c0-.806,0-1.612,0-2.418.009-1.564.539-2.08,2.138-2.091.328,0,.657,0,1.084,0,0-1.488,0-2.889,0-4.29a11.262,11.262,0,0,1,8.653-11.5,1.409,1.409,0,0,0,.246-.122c-.587-1.037-1.149-2.078-1.771-3.082a1.054,1.054,0,0,0-.725-.333,24.043,24.043,0,0,1-2.7-.187,4.769,4.769,0,0,1-1.195-8.853,1.237,1.237,0,0,0,.743-1.223A12.624,12.624,0,0,1,44.6,8.593a1.092,1.092,0,0,0,.615-1.253,6.115,6.115,0,0,1,2.945-6.278,6.06,6.06,0,0,1,6.932.055,6.126,6.126,0,0,1,2.853,6.23,1.034,1.034,0,0,0,.543,1.2,12.844,12.844,0,0,1,6,10.5,1.289,1.289,0,0,0,.553.888,4.824,4.824,0,0,1,2.485,5.52,4.654,4.654,0,0,1-4.841,3.59c-1.4-.062-2.315.212-2.793,1.644a8.344,8.344,0,0,1-1.2,1.8M93.4,67.842H6.51V96.733H93.4Zm3.251-16.13H35.463c0,2.48,0,4.893,0,7.3,0,1.833-.474,2.3-2.337,2.3q-14.346,0-28.693,0H3.286v3.171h93.37ZM64.281,48.4a49.4,49.4,0,0,0-.057-6.465,7.308,7.308,0,0,0-4.376-5.6c-1.208,1.6-2.385,3.187-3.583,4.753a1.64,1.64,0,0,1-2.795.22c-.618-.6-1.2-1.244-1.867-1.946-.651.667-1.179,1.221-1.721,1.761-1.231,1.227-2.083,1.168-3.13-.216-1.149-1.518-2.29-3.042-3.444-4.577a7.315,7.315,0,0,0-4.363,5.533,48.089,48.089,0,0,0-.06,6.492h3.076V42.03h3.2v6.315h12.9V42.036h3.232V48.4Zm9.906-.045H93.4V38.8H74.187ZM61.16,18.965c.263-4.81-4.533-9.322-9.8-9.223-5.184.1-9.781,4.791-9.354,9.665q3.594,0,7.207,0c3.492,0,5.13-1.444,5.6-4.935a1.607,1.607,0,0,1,1.995-1.454,1.715,1.715,0,0,1,1.234,1.747,4.453,4.453,0,0,0,3.121,4.2M45.137,22.632c0,1.21-.025,2.31,0,3.409A6.466,6.466,0,0,0,50.99,32.28,6.331,6.331,0,0,0,57.831,27.2c.252-1.367.042-2.813.22-4.2a3.279,3.279,0,0,0-1.756-3.484c-2.818,3.864-7.042,3.05-11.158,3.12m45.046.079H77.418v6.324H90.183ZM54.683,6.8a2.981,2.981,0,0,0-1.51-3.09,3.212,3.212,0,0,0-3.585.265A2.685,2.685,0,0,0,48.517,6.8c1.039-.1,2.068-.265,3.1-.264s2.046.174,3.069.271M7.706,51.582h3.513V48.495H6.934c.272,1.086.522,2.085.772,3.087m16.834.028c.257-1.043.511-2.067.775-3.135H21.024V51.61ZM82.27,35.444h3.1v-3.1h-3.1ZM17.7,48.5H14.568v3.081H17.7Zm-3.148,9.543H17.68v-3.11H14.553ZM41.87,22.612c-1.127.112-2.362-.363-2.94.9a2,2,0,0,0,.117,1.655c.685,1.044,1.8.662,2.823.634Zm19.452.09v3.107c2.236.141,3.155-.335,3.14-1.585s-.981-1.739-3.14-1.522M8.546,54.9c.265,1.081.515,2.1.765,3.124h1.906V54.9Zm14.386,3.167c.259-1.072.506-2.093.759-3.137H21.033v3.137ZM48.552,37.93l2.082-2.324H46.806l1.746,2.324m6.052.019,1.727-2.336H52.609L54.6,37.949" fill="#5c22c3"/>
    <path id="Path_174225" data-name="Path 174225" d="M51.512,91.9H48.444a.967.967,0,0,1-.078-.311,1.944,1.944,0,0,0-1.155-2.211,4.34,4.34,0,0,1-2.065-3.837H48.26a6.122,6.122,0,0,0,.3.686,1.591,1.591,0,0,0,3-.795,1.536,1.536,0,0,0-1.357-1.52c-.458-.092-.939-.075-1.389-.192a4.807,4.807,0,0,1-1.832-8.442c1.277-1.059,1.292-1.04,1.444-2.615H51.5a.861.861,0,0,1,.073.3,1.941,1.941,0,0,0,1.159,2.206A4.339,4.339,0,0,1,54.785,79H51.677a6.361,6.361,0,0,0-.3-.694,1.593,1.593,0,0,0-3.005.8,1.539,1.539,0,0,0,1.354,1.523c.49.1,1.01.08,1.487.214a4.8,4.8,0,0,1,1.743,8.415c-1.285,1.058-1.3,1.04-1.443,2.638" fill="#5c22c3"/>
    <rect id="Rectangle_36067" data-name="Rectangle 36067" width="6.33" height="3.129" transform="translate(35.531 77.49)" fill="#5c22c3"/>
    <rect id="Rectangle_36068" data-name="Rectangle 36068" width="6.353" height="3.08" transform="translate(58.098 77.497)" fill="#5c22c3"/>
    <rect id="Rectangle_36069" data-name="Rectangle 36069" width="6.323" height="3.1" transform="translate(35.534 83.927)" fill="#5c22c3"/>
    <rect id="Rectangle_36070" data-name="Rectangle 36070" width="6.349" height="3.076" transform="translate(58.082 83.964)" fill="#5c22c3"/>
  </g>
</svg>
