<svg id="Group_112036" data-name="Group 112036" xmlns="http://www.w3.org/2000/svg" xmlns:xlink="http://www.w3.org/1999/xlink" width="139.596" height="100" viewBox="0 0 139.596 100">
  <defs>
    <clipPath id="clip-path">
      <rect id="Rectangle_36687" data-name="Rectangle 36687" width="139.596" height="100" fill="#5c22c3"/>
    </clipPath>
  </defs>
  <g id="Group_112035" data-name="Group 112035" clip-path="url(#clip-path)">
    <path id="Path_174360" data-name="Path 174360" d="M139.6,82.7q-7.833-.046-15.666-.09c-1.265-.007-2.531,0-3.962,0V100H19.882V43.549h4.012v49.1l.334.167c1.347-1.379,2.737-2.722,4.011-4.166a2.561,2.561,0,0,0,.288-1.54q.022-14.382.01-28.763V56.621h4.072v30.5h74.419v-4.46H100.62c.04-2.37-.328-4.5.9-6.615,1.839-3.177,3.408-6.512,5.08-9.784a3.124,3.124,0,0,0,.5-1.244c.037-4.261.023-8.523.023-12.972H98.306V48.018h12.922V56.7l.238.057c.35-.663.707-1.323,1.049-1.99,1.764-3.43,3.5-6.876,5.321-10.274a2.256,2.256,0,0,1,1.415-.907c1.857-.385,2.918.329,3.831,2.157,5.149,10.312,10.481,20.531,15.755,30.779.226.438.5.848.759,1.271Zm-4.38-4.263C130.149,68.58,125.165,58.885,120.083,49l-15.13,29.441ZM112.839,95.9c-1.538-1.549-2.882-2.947-4.288-4.279a1.812,1.812,0,0,0-1.141-.256q-37.55-.016-75.1,0a1.841,1.841,0,0,0-1.143.257c-1.422,1.311-2.78,2.688-4.4,4.278Zm-1.612-13.225c0,1.827-.015,3.5.012,5.178a1.37,1.37,0,0,0,.288.858c1.332,1.4,2.7,2.768,4.256,4.348V82.678Z" fill="#5c22c3"/>
    <path id="Path_174361" data-name="Path 174361" d="M0,17.26q7.833.045,15.665.09c1.311.007,2.622,0,4.135,0V0H119.84V38.96h-3.934V6.817c-1.692,1.7-3.146,3.1-4.5,4.586-.266.293-.178.949-.178,1.438q-.014,14.45-.007,28.9v1.591h-4.077V12.8H32.642c0,1.839-.049,3.6.035,5.362a2.252,2.252,0,0,0,.757,1.208q4.218,4.265,8.485,8.479a7,7,0,0,0,1.153.762l-3.209,3.066-7.106-7.246V47.9h8.628v4.026H28.537V50.265c0-9.133-.019-18.266.024-27.4.006-1.132-.312-1.456-1.447-1.45-8.5.045-16.993.026-25.489.021-.542,0-1.083-.057-1.625-.087ZM27.237,4l-.227.3c1.22,1.2,2.4,2.44,3.684,3.562a2.952,2.952,0,0,0,1.768.712q37.41.051,74.819.026c.361,0,.853.089,1.06-.1,1.493-1.391,2.928-2.844,4.6-4.493ZM24.023,6.945V17.234h4.512c0-1.785.021-3.456-.019-5.125a1.562,1.562,0,0,0-.4-.95C26.85,9.811,25.543,8.5,24.023,6.945" fill="#5c22c3"/>
    <path id="Path_174362" data-name="Path 174362" d="M54.743,39.4c0-3.227.213-6.284-.047-9.3-.488-5.669,3.347-9.311,8.887-7.93,1.1-3.008,3.185-4.866,6.5-4.77,3.063.089,5.012,1.864,6.066,4.833,2.593-.709,5.008-.44,7.022,1.549,1.984,1.958,1.924,4.485,1.871,7.091.315-.033.524-.036.724-.078a6.347,6.347,0,0,1,7.952,6.022c.143,5.764.035,11.534.035,17.416H89.672V52.806q0-7.293,0-14.586a10.884,10.884,0,0,0-.024-1.226,2.382,2.382,0,0,0-2.411-2.287,2.255,2.255,0,0,0-2.192,2.452c-.03,2.771-.01,5.543-.01,8.315V56.437H80.94V54.909q0-12.814-.006-25.628a6.549,6.549,0,0,0-.136-1.617,2.192,2.192,0,0,0-2.472-1.67,2.154,2.154,0,0,0-2,2.065,12.353,12.353,0,0,0-.027,1.362q0,12.745,0,25.491v1.537H72.208V54.873q0-15.063-.007-30.126A5.793,5.793,0,0,0,72,23a2.071,2.071,0,0,0-2.314-1.5,2.122,2.122,0,0,0-2.077,1.984,11.484,11.484,0,0,0-.037,1.5q0,14.859,0,29.717v1.72H63.475V54.808q0-12.745-.009-25.491a5.767,5.767,0,0,0-.223-1.874,2.077,2.077,0,0,0-2.349-1.449,2.111,2.111,0,0,0-2.007,1.9,9.211,9.211,0,0,0-.049,1.5q0,12.677,0,25.354v1.695H54.743v-1.4c0-3,.011-6-.007-9-.01-1.792-.958-2.9-2.389-2.859-1.372.038-2.234,1.1-2.239,2.863-.011,4.362-.064,8.726.017,13.086.2,10.58,8.422,18.85,19.183,19.367,9.99.48,18.958-7.273,20.178-17.443.087-.721.161-1.443.251-2.256h3.989a22.383,22.383,0,0,1-1.175,7.338C88.967,76.986,78.7,83.526,67,82.42A23.6,23.6,0,0,1,46.218,61.468a134.106,134.106,0,0,1-.1-16.752c.11-3.579,3.8-6.168,7.361-5.557.35.06.7.131,1.266.237" fill="#5c22c3"/>
    <rect id="Rectangle_36679" data-name="Rectangle 36679" width="4.169" height="3.945" transform="translate(4.458 26.146)" fill="#5c22c3"/>
    <rect id="Rectangle_36680" data-name="Rectangle 36680" width="4.212" height="3.928" transform="translate(13.17 26.169)" fill="#5c22c3"/>
    <rect id="Rectangle_36681" data-name="Rectangle 36681" width="4.196" height="3.944" transform="translate(21.92 26.147)" fill="#5c22c3"/>
    <rect id="Rectangle_36682" data-name="Rectangle 36682" width="4.152" height="3.931" transform="translate(8.833 34.889)" fill="#5c22c3"/>
    <rect id="Rectangle_36683" data-name="Rectangle 36683" width="4.238" height="3.876" transform="translate(17.542 34.915)" fill="#5c22c3"/>
    <rect id="Rectangle_36684" data-name="Rectangle 36684" width="4.235" height="3.874" transform="translate(37.148 39.299)" fill="#5c22c3"/>
    <path id="Path_174363" data-name="Path 174363" d="M102.485,60.693H98.233c0-1.145-.058-2.223.041-3.287.024-.267.536-.672.849-.7,1.078-.086,2.167-.033,3.362-.033Z" fill="#5c22c3"/>
    <rect id="Rectangle_36685" data-name="Rectangle 36685" width="3.947" height="8.555" transform="translate(118.13 58.785)" fill="#5c22c3"/>
    <rect id="Rectangle_36686" data-name="Rectangle 36686" width="3.961" height="4.161" transform="translate(118.123 71.92)" fill="#5c22c3"/>
  </g>
</svg>
