<svg id="Group_113332" data-name="Group 113332" xmlns="http://www.w3.org/2000/svg" xmlns:xlink="http://www.w3.org/1999/xlink" width="50" height="50" viewBox="0 0 50 50">
  <defs>
    <clipPath id="clip-path">
      <rect id="Rectangle_36669" data-name="Rectangle 36669" width="50" height="50" fill="#5c22c3"/>
    </clipPath>
  </defs>
  <g id="Group_112002" data-name="Group 112002" clip-path="url(#clip-path)">
    <path id="Path_174319" data-name="Path 174319" d="M7.031,0V1.563c-.5,0-.967,0-1.433,0A3.9,3.9,0,0,0,1.564,5.6q-.006,19.4,0,38.8A3.9,3.9,0,0,0,5.6,48.435q19.4.007,38.8,0A3.9,3.9,0,0,0,48.437,44.4c0-.454,0-.908,0-1.432H50v2.246a2.174,2.174,0,0,0-.092.268,5.414,5.414,0,0,1-3.81,4.283c-.288.1-.589.157-.883.234H4.785a1.233,1.233,0,0,0-.22-.085A5.384,5.384,0,0,1,.3,46.283c-.128-.346-.2-.712-.3-1.068V4.785a1.238,1.238,0,0,0,.084-.221A5.346,5.346,0,0,1,3.311.459,12.356,12.356,0,0,1,4.785,0Z" fill="#5c22c3"/>
    <path id="Path_174320" data-name="Path 174320" d="M50,41.406H48.438v-.651q0-16.008,0-32.014a12.761,12.761,0,0,0-.6-4.373,6.781,6.781,0,0,0-.824-1.59,2.86,2.86,0,0,0-2.387-1.212c-.325-.009-.651,0-.976,0H11.719V0h33.5a2.022,2.022,0,0,0,.267.095,4.58,4.58,0,0,1,2.665,1.591,7.147,7.147,0,0,1,1.459,3.15c.164.757.265,1.528.394,2.293Z" fill="#5c22c3"/>
    <rect id="Rectangle_36668" data-name="Rectangle 36668" width="1.562" height="1.529" transform="translate(8.594)" fill="#5c22c3"/>
    <path id="Path_174321" data-name="Path 174321" d="M20.914,24.218c-1.176,5.207-2.346,10.386-3.53,15.625h1.139c1.3,0,2.6-.013,3.906.01.343.006.469-.106.567-.428.884-2.923,1.789-5.84,2.688-8.759.28-.908.376-.979,1.345-.979,1.9,0,3.808.009,5.712,0a6.2,6.2,0,0,0,6.3-6.6,6.031,6.031,0,0,0-3.67-5.348c-.13-.063-.264-.119-.461-.206.166-.473.328-.938.542-1.549a22.552,22.552,0,0,1,2.149,1.3A7.8,7.8,0,0,1,32.88,31.247c-1.725.013-3.45.02-5.175-.01a.627.627,0,0,0-.74.534c-.869,2.894-1.764,5.78-2.651,8.668-.27.881-.386.967-1.307.967q-3.174,0-6.348,0c-.849,0-1.141-.369-.953-1.2q2.41-10.7,4.825-21.4a3.879,3.879,0,0,1,4-3.175q3.417-.006,6.835,0h.583a4.821,4.821,0,0,0-.716-2.263,6.075,6.075,0,0,0-5.452-3.2c-2.864-.032-5.729-.008-8.593-.008-.77,0-.968.153-1.133.91q-2.023,9.239-4.04,18.48c-.291,1.332-.583,2.664-.882,4.033h4.455v1.55c-.126.008-.266.026-.406.026q-2.393,0-4.785,0c-.825,0-1.122-.371-.948-1.171L14.556,10.6a2.37,2.37,0,0,1,2.5-2q4.321,0,8.643,0a7.8,7.8,0,0,1,1.57,15.467,11.609,11.609,0,0,1-2.087.15c-1.414.022-2.828.006-4.27.006m.351-1.592c.156.012.267.029.377.029,1.414,0,2.828.013,4.242,0a6.229,6.229,0,0,0,5.965-4.781c.051-.21.073-.428.114-.675-2.647,0-5.23-.034-7.811.018a2.013,2.013,0,0,0-1.958,1.511c-.372,1.274-.621,2.583-.929,3.9" fill="#5c22c3"/>
  </g>
</svg>
