<svg id="Group_111508" data-name="Group 111508" xmlns="http://www.w3.org/2000/svg" xmlns:xlink="http://www.w3.org/1999/xlink" width="102.374" height="88" viewBox="0 0 102.374 88">
  <defs>
    <clipPath id="clip-path">
      <rect id="Rectangle_35819" data-name="Rectangle 35819" width="102.374" height="88" fill="none"/>
    </clipPath>
  </defs>
  <g id="Group_111257" data-name="Group 111257" clip-path="url(#clip-path)">
    <path id="Path_171611" data-name="Path 171611" d="M0,69.384a2.565,2.565,0,0,1,2.719-1.414c.853.072,1.717.014,2.646.014.283-3.1.56-6.1.834-9.114q.958-10.5,1.915-20.991.531-5.82,1.063-11.64A2.1,2.1,0,0,1,11.621,24c2.832-.006,5.664,0,8.5,0h1.078V19.64c0-1.766-.009-3.532,0-5.3.012-1.9,1.3-2.759,3.08-2.065,1.084.423,2.147.907,3.247,1.28a2.173,2.173,0,0,0,1.309.009c1.132-.386,2.2-.955,3.348-1.29a2.871,2.871,0,0,1,1.994.006,7.521,7.521,0,0,0,8.033,0c1.586-.881,2.968.189,2.976,2.048.012,2.865,0,5.731,0,8.6v1.021H65.11V20q-2.675,0-5.357,0c-1.9,0-2.565-.679-2.566-2.6q0-7.446,0-14.893c0-1.79.7-2.5,2.47-2.5Q71.2,0,82.745,0c1.7,0,2.43.728,2.432,2.435q.008,7.547,0,15.093c0,1.764-.714,2.459-2.5,2.464s-3.584,0-5.433,0v4h1.02q6.2,0,12.394,0c1.75,0,2.392.6,2.551,2.343Q94.766,43.4,96.333,60.462c.224,2.454.435,4.909.666,7.523.892,0,1.78.059,2.657-.014a2.574,2.574,0,0,1,2.719,1.414v17.2A2.732,2.732,0,0,1,99.656,88q-19.39-.051-38.78-.021c-.233,0-.467.009-.7-.006a1.992,1.992,0,0,1-.04-3.983c.332-.024.666-.009,1-.009H98.311V72.051H4.079V83.98H41.236c.333,0,.668-.015,1,.009a1.992,1.992,0,0,1-.037,3.984c-.232.015-.466.006-.7.006q-19.39,0-38.78.021A2.722,2.722,0,0,1,0,86.58Zm92.984-1.438c-1.215-13.36-2.422-26.616-3.628-39.883H45.27V43.992c.647,0,1.213-.014,1.778,0a2,2,0,1,1,.034,3.988c-.832.025-1.666.006-2.5.006q-12.5,0-24.992,0c-1.465,0-2.372-.765-2.387-1.975s.9-2,2.341-2.021c.523-.006,1.046,0,1.583,0V28.042H13.02l-3.629,39.9ZM41.171,17.011a9.9,9.9,0,0,1-2.706.9,5.24,5.24,0,0,1-2.631-.747,5,5,0,0,0-5.417.1,4.05,4.05,0,0,1-4.341.048,4.372,4.372,0,0,0-.812-.28V43.909H41.171Zm20.06-1.082H81.1V4.052H61.231Zm7.994,7.994H73.1V20.052H69.225Z" transform="translate(0 0)"/>
    <path id="Path_171612" data-name="Path 171612" d="M118.818,145.087H35.225c1.024-11.266,2.046-22.5,3.1-34.038l.534-5.867h8.108v15.949c-.537,0-1.06,0-1.584,0-1.441.016-2.356.808-2.341,2.021s.922,1.974,2.387,1.975q12.5.006,24.992,0c.833,0,1.667.018,2.5-.007a2,2,0,1,0-.033-3.988c-.565-.017-1.132,0-1.778,0V105.2h44.086l3.629,39.883M95.006,109.134q-6.741,0-13.483,0c-1.788,0-2.5.7-2.5,2.463q-.008,5.493,0,10.986c0,1.848.689,2.544,2.521,2.544q13.483,0,26.966,0c1.788,0,2.5-.7,2.5-2.464q.008-5.493,0-10.987c0-1.848-.689-2.541-2.522-2.543q-6.742-.005-13.483,0M47.04,133.119c.7,0,1.4.038,2.089-.009a1.982,1.982,0,0,0-.024-3.962c-1.392-.05-2.788-.051-4.179,0a1.954,1.954,0,0,0-1.889,1.94,1.985,1.985,0,0,0,1.914,2.022c.694.044,1.393.008,2.089.007m11.924,0c.7,0,1.395.03,2.09-.007a1.994,1.994,0,0,0,1.962-1.977,1.969,1.969,0,0,0-1.941-1.993c-1.359-.046-2.721-.044-4.08,0a1.985,1.985,0,0,0-.022,3.97c.661.039,1.327.007,1.99.008m12.023,0c.7,0,1.4.033,2.09-.007a1.985,1.985,0,0,0-.03-3.97c-1.359-.041-2.721-.044-4.08,0a1.967,1.967,0,0,0-1.936,2A1.992,1.992,0,0,0,69,133.116c.662.036,1.327.007,1.99.005m12.041,0c.7,0,1.4.038,2.09-.009a1.982,1.982,0,0,0-.019-3.962c-1.392-.05-2.788-.051-4.179,0a1.955,1.955,0,0,0-1.892,1.937,1.984,1.984,0,0,0,1.911,2.024c.694.045,1.393.008,2.089.007m11.942,0c.7,0,1.4.032,2.09-.007a1.985,1.985,0,0,0-.007-3.97q-2.038-.065-4.08,0a1.968,1.968,0,0,0-1.947,1.986,1.991,1.991,0,0,0,1.955,1.984c.661.037,1.327.007,1.99.006m12,0c.7,0,1.4.032,2.09-.007a1.985,1.985,0,0,0-.017-3.97c-1.359-.043-2.721-.044-4.08,0a1.967,1.967,0,0,0-1.943,1.99,1.991,1.991,0,0,0,1.96,1.98c.661.037,1.327.007,1.99.006m-59.934,8c.7,0,1.4.038,2.09-.009a1.982,1.982,0,0,0-.019-3.962c-1.392-.05-2.788-.051-4.179,0a1.955,1.955,0,0,0-1.892,1.937,1.984,1.984,0,0,0,1.911,2.024c.694.045,1.393.008,2.089.007m11.9,0c.73,0,1.462.038,2.189-.009a1.982,1.982,0,0,0-.015-3.962c-1.391-.051-2.788-.051-4.179,0a1.955,1.955,0,0,0-1.894,1.935,1.985,1.985,0,0,0,1.909,2.027c.661.044,1.327.008,1.99.007M71,141.122c.664,0,1.328.025,1.99-.005a2,2,0,0,0,2.019-2.023,1.979,1.979,0,0,0-1.983-1.954c-1.326-.04-2.655-.038-3.981,0a1.989,1.989,0,1,0-.037,3.977c.662.034,1.327.006,1.99.007m11.96,0c.7,0,1.4.031,2.09-.007a1.993,1.993,0,0,0,1.957-1.982,1.97,1.97,0,0,0-1.946-1.988c-1.359-.045-2.721-.044-4.08,0a1.969,1.969,0,0,0-1.957,1.977,1.99,1.99,0,0,0,1.946,1.993c.661.039,1.327.007,1.99.008m12.141-3.985c-.73,0-1.462-.038-2.189.009a1.982,1.982,0,0,0,.021,3.961c1.391.051,2.788.052,4.179,0a1.956,1.956,0,0,0,1.892-1.939,1.988,1.988,0,0,0-1.912-2.023c-.661-.042-1.326-.008-1.99-.007m11.862,3.984c.7,0,1.4.032,2.09-.007a1.985,1.985,0,0,0-.008-3.97c-1.359-.043-2.721-.044-4.08,0a1.967,1.967,0,0,0-1.947,1.986,1.991,1.991,0,0,0,1.955,1.984c.661.037,1.327.007,1.99.006" transform="translate(-25.834 -77.141)" fill="#ba68c8"/>
    <path id="Path_171613" data-name="Path 171613" d="M110.67,62.16v26.9H94.762V62.176a4.368,4.368,0,0,1,.813.28,4.05,4.05,0,0,0,4.341-.048,5,5,0,0,1,5.417-.1,5.241,5.241,0,0,0,2.631.747,9.907,9.907,0,0,0,2.706-.9" transform="translate(-69.498 -45.15)" fill="#fff505"/>
    <rect id="Rectangle_35816" data-name="Rectangle 35816" width="19.87" height="11.877" transform="translate(61.231 4.051)" fill="#ba68c8"/>
    <rect id="Rectangle_35817" data-name="Rectangle 35817" width="3.875" height="3.871" transform="translate(69.225 20.051)" fill="#fff"/>
    <path id="Path_171614" data-name="Path 171614" d="M186.489,285.031A1.992,1.992,0,1,1,184.528,287a2.016,2.016,0,0,1,1.961-1.972" transform="translate(-135.333 -209.042)"/>
    <path id="Path_171615" data-name="Path 171615" d="M186.515,319.015a1.992,1.992,0,1,1,1.995-1.94,2.014,2.014,0,0,1-1.995,1.94" transform="translate(-135.331 -231.044)"/>
    <path id="Path_171616" data-name="Path 171616" d="M215.48,120q6.742,0,13.483,0c1.833,0,2.52.7,2.522,2.543q.005,5.493,0,10.986c0,1.764-.713,2.464-2.5,2.464q-13.483,0-26.967,0c-1.832,0-2.519-.7-2.521-2.544q-.005-5.493,0-10.986c0-1.763.712-2.461,2.5-2.463q6.742-.006,13.483,0m11.927,4.051H203.556v7.911h23.851Z" transform="translate(-146.308 -88.009)"/>
    <path id="Path_171617" data-name="Path 171617" d="M68.53,198.946c-.7,0-1.4.037-2.09-.007a1.986,1.986,0,0,1-1.913-2.022,1.953,1.953,0,0,1,1.889-1.94c1.391-.053,2.788-.052,4.179,0a1.982,1.982,0,0,1,.024,3.962c-.693.047-1.393.009-2.089.009" transform="translate(-47.324 -142.967)"/>
    <path id="Path_171618" data-name="Path 171618" d="M113.458,198.951c-.664,0-1.329.031-1.99-.008a1.985,1.985,0,0,1,.022-3.97c1.359-.042,2.721-.044,4.08,0a1.969,1.969,0,0,1,1.941,1.993,1.994,1.994,0,0,1-1.962,1.977c-.694.037-1.393.007-2.089.006" transform="translate(-80.327 -142.97)"/>
    <path id="Path_171619" data-name="Path 171619" d="M158.484,198.951c-.664,0-1.329.03-1.99-.006a1.992,1.992,0,0,1-1.966-1.974,1.966,1.966,0,0,1,1.936-2c1.359-.047,2.721-.044,4.08,0a1.985,1.985,0,0,1,.03,3.97c-.694.041-1.393.007-2.09.008" transform="translate(-113.331 -142.97)"/>
    <path id="Path_171620" data-name="Path 171620" d="M203.527,198.946c-.7,0-1.4.037-2.09-.008a1.984,1.984,0,0,1-1.911-2.024,1.954,1.954,0,0,1,1.892-1.937c1.391-.052,2.788-.052,4.179,0a1.983,1.983,0,0,1,.019,3.962c-.693.046-1.393.009-2.089.009" transform="translate(-146.333 -142.967)"/>
    <path id="Path_171621" data-name="Path 171621" d="M248.473,198.951c-.664,0-1.329.031-1.99-.007a1.991,1.991,0,0,1-1.955-1.984,1.967,1.967,0,0,1,1.947-1.986q2.038-.068,4.08,0a1.985,1.985,0,0,1,.007,3.97c-.694.039-1.393.007-2.09.007" transform="translate(-179.337 -142.97)"/>
    <path id="Path_171622" data-name="Path 171622" d="M293.477,198.951c-.664,0-1.329.03-1.99-.006a1.991,1.991,0,0,1-1.959-1.98,1.967,1.967,0,0,1,1.942-1.99c1.359-.046,2.721-.044,4.08,0a1.985,1.985,0,0,1,.017,3.97c-.694.04-1.393.007-2.09.008" transform="translate(-212.34 -142.97)"/>
    <path id="Path_171623" data-name="Path 171623" d="M68.527,228.946c-.7,0-1.4.037-2.09-.008a1.984,1.984,0,0,1-1.911-2.024,1.954,1.954,0,0,1,1.892-1.937c1.391-.052,2.788-.052,4.179,0a1.983,1.983,0,0,1,.019,3.962c-.693.046-1.393.009-2.089.009" transform="translate(-47.324 -164.969)"/>
    <path id="Path_171624" data-name="Path 171624" d="M113.425,228.946c-.664,0-1.329.036-1.99-.008a1.984,1.984,0,0,1-1.909-2.026,1.955,1.955,0,0,1,1.894-1.936c1.391-.052,2.788-.052,4.179,0a1.982,1.982,0,0,1,.015,3.961c-.727.047-1.459.009-2.189.009" transform="translate(-80.327 -164.969)"/>
    <path id="Path_171625" data-name="Path 171625" d="M158.5,228.956c-.664,0-1.328.027-1.99-.007a1.989,1.989,0,1,1,.037-3.977c1.326-.036,2.655-.038,3.981,0a1.979,1.979,0,0,1,1.983,1.954,2,2,0,0,1-2.019,2.023c-.662.03-1.327.005-1.99,0" transform="translate(-113.33 -164.974)"/>
    <path id="Path_171626" data-name="Path 171626" d="M203.464,228.951c-.664,0-1.329.031-1.99-.007a1.99,1.99,0,0,1-1.946-1.993,1.969,1.969,0,0,1,1.957-1.977c1.359-.043,2.721-.044,4.08,0a1.97,1.97,0,0,1,1.946,1.988,1.993,1.993,0,0,1-1.957,1.982c-.694.038-1.393.007-2.09.007" transform="translate(-146.334 -164.972)"/>
    <path id="Path_171627" data-name="Path 171627" d="M248.606,225c.664,0,1.329-.035,1.99.007a1.988,1.988,0,0,1,1.912,2.023,1.956,1.956,0,0,1-1.892,1.939c-1.391.053-2.788.053-4.179,0a1.982,1.982,0,0,1-.021-3.961c.727-.047,1.459-.009,2.189-.009" transform="translate(-179.335 -165.002)"/>
    <path id="Path_171628" data-name="Path 171628" d="M293.473,228.951c-.664,0-1.329.031-1.99-.007a1.991,1.991,0,0,1-1.955-1.983,1.968,1.968,0,0,1,1.947-1.986c1.359-.045,2.721-.044,4.08,0a1.985,1.985,0,0,1,.008,3.97c-.694.039-1.393.007-2.09.007" transform="translate(-212.34 -164.972)"/>
    <rect id="Rectangle_35818" data-name="Rectangle 35818" width="23.851" height="7.911" transform="translate(57.249 36.044)" fill="#fff"/>
  </g>
</svg>
