<svg id="Group_111521" data-name="Group 111521" xmlns="http://www.w3.org/2000/svg" xmlns:xlink="http://www.w3.org/1999/xlink" width="29.998" height="75" viewBox="0 0 29.998 75">
  <defs>
    <clipPath id="clip-path">
      <rect id="Rectangle_35857" data-name="Rectangle 35857" width="29.998" height="75" fill="none"/>
    </clipPath>
  </defs>
  <g id="Group_111520" data-name="Group 111520" clip-path="url(#clip-path)">
    <path id="Path_172365" data-name="Path 172365" d="M7.088,75a3.052,3.052,0,0,1-2.1-3.354c.078-2.166.019-4.338.019-6.635-.668,0-1.289,0-1.91,0C1.056,65,.021,63.983.008,61.962,0,60.62-.006,59.277.01,57.934A2.676,2.676,0,0,1,2.911,55c.656-.017,1.312,0,2.033,0V20.006c-.618,0-1.241,0-1.863,0C1.028,19.985.02,18.983.008,16.946,0,15.6-.006,14.26.01,12.918A2.692,2.692,0,0,1,2.927,9.993c.657-.01,1.314,0,2.081,0V9.165c0-2.075-.009-4.15,0-6.225A2.676,2.676,0,0,1,7.975,0Q15.005,0,22.036,0A2.671,2.671,0,0,1,24.98,2.957c.01,2.05,0,4.1,0,6.151v.883c.722,0,1.372-.006,2.023,0a2.7,2.7,0,0,1,2.979,2.936q.024,2.086,0,4.174A2.663,2.663,0,0,1,27.122,20c-.679.021-1.36,0-2.089,0V55c.653,0,1.279-.006,1.9,0,2.038.023,3.039,1.034,3.05,3.083.006,1.294.008,2.588,0,3.881C29.974,63.983,28.938,65,26.9,65.011c-.606,0-1.212,0-1.911,0v1.656c0,1.66-.061,3.323.017,4.979A3.033,3.033,0,0,1,22.908,75ZM7.55,54.952H22.445V20.05H7.55ZM14.923,17.5c3.954,0,7.908-.009,11.863.011.534,0,.73-.137.712-.7-.039-1.22-.033-2.442,0-3.661.013-.514-.16-.676-.67-.668-1.758.025-3.515.01-5.273.01-6.078,0-12.156.009-18.233-.014-.639,0-.856.159-.826.815.053,1.145.048,2.3,0,3.441-.026.618.182.78.784.776,3.881-.025,7.762-.013,11.643-.013M2.511,62.451H27.486c0-1.4-.04-2.738.017-4.075.03-.716-.2-.888-.9-.886-7.738.024-15.476.015-23.213.015-.147,0-.323-.049-.433.015-.172.1-.424.272-.427.418-.032,1.484-.02,2.97-.02,4.513M22.419,2.544H7.56V9.963H22.419Zm.025,62.52H7.578v7.393H22.444Z"/>
  </g>
</svg>
