<svg xmlns="http://www.w3.org/2000/svg" xmlns:xlink="http://www.w3.org/1999/xlink" width="99.887" height="100" viewBox="0 0 99.887 100">
  <defs>
    <clipPath id="clip-path">
      <rect id="Rectangle_36675" data-name="Rectangle 36675" width="99.887" height="100" fill="#5c22c3"/>
    </clipPath>
  </defs>
  <g id="Group_112030" data-name="Group 112030" clip-path="url(#clip-path)">
    <path id="Path_174356" data-name="Path 174356" d="M60.12,0c1.2.247,2.423.433,3.607.752A21.452,21.452,0,0,1,79.6,22.874c-.45,9.636-7.989,18.035-17.742,19.764A21.472,21.472,0,1,1,55.569.17,5.058,5.058,0,0,0,56.222,0Zm-2,39.026a17.561,17.561,0,1,0-17.5-17.658,17.54,17.54,0,0,0,17.5,17.658" fill="#5c22c3"/>
    <path id="Path_174357" data-name="Path 174357" d="M74.834,56.168a7.2,7.2,0,0,1,.659-.959q5.522-5.706,11.066-11.39c3.705-3.787,10.194-2.933,12.427,1.843A7.8,7.8,0,0,1,98,54.417q-4.934,5.907-9.871,11.808c-2.167,2.591-4.364,5.156-6.5,7.775a16.936,16.936,0,0,1-13.693,6.432c-8.313.048-16.628.1-24.939-.035-2.964-.048-4.854,1.485-6.649,3.426a1.08,1.08,0,0,0-.09.791,5.985,5.985,0,0,1-1.7,5.62q-4.509,4.447-9.018,8.893c-1.194,1.172-2.177,1.165-3.359-.026Q11.508,88.353.843,77.593a2.031,2.031,0,0,1,0-3.292q4.425-4.463,8.87-8.9a6.133,6.133,0,0,1,4.74-1.876,1.293,1.293,0,0,0,.964-.527C20.489,54.7,28.1,51.173,37.577,51.172a24.435,24.435,0,0,1,8.743,1.695,4.377,4.377,0,0,0,1.52.221c6.429.014,12.86.061,19.289-.014,2.927-.034,5.543.52,7.705,3.094M33.717,80.863c.312-.285.544-.464.737-.677A11.325,11.325,0,0,1,43.6,76.507c8.05.127,16.1.056,24.156.033a13.3,13.3,0,0,0,10.961-5.126c1.7-2.134,3.49-4.191,5.24-6.283q5.53-6.61,11.056-13.226a3.9,3.9,0,0,0-5.695-5.329q-6.266,6.406-12.485,12.86a1.451,1.451,0,0,0-.386.914c.013,4.991-3.25,8.349-8.236,8.378s-10,.008-15,0a4.178,4.178,0,0,1-1.059-.121,1.915,1.915,0,0,1,.2-3.725,7.919,7.919,0,0,1,1.262-.064q7.16-.006,14.319-.007a8.714,8.714,0,0,0,1.454-.094,3.849,3.849,0,0,0,3.085-4.467C72.075,58.183,70.542,57,68.15,57c-6.981-.012-13.961,0-20.942-.015a4.575,4.575,0,0,1-1.712-.246,22.319,22.319,0,0,0-12.318-1.374,19.439,19.439,0,0,0-14.331,9.522A.82.82,0,0,0,19,66.126c.75.669,1.433,1.412,2.144,2.125L33.717,80.863m-9.4,14.42c2.482-2.59,5.1-5.292,7.68-8.034.814-.865.663-1.954-.314-2.932q-8.021-8.033-16.054-16.053c-1.137-1.135-2.126-1.125-3.277.021-1.818,1.81-3.621,3.637-5.437,5.449-.726.725-1.472,1.431-2.309,2.243L24.319,95.283" fill="#5c22c3"/>
    <path id="Path_174358" data-name="Path 174358" d="M57.732,35.11a1.77,1.77,0,0,1-1.858-1.841,2.828,2.828,0,0,0-1.884-3.355,5.148,5.148,0,0,1-1.706-1.561,1.863,1.863,0,0,1,.194-2.7,1.909,1.909,0,0,1,2.646.085,13.544,13.544,0,0,0,1.229,1.1,2.117,2.117,0,0,0,2.623.06,1.817,1.817,0,0,0,.652-2.088A2.07,2.07,0,0,0,57.522,23.4a5.581,5.581,0,0,1-5.089-3.5,5.474,5.474,0,0,1,.842-6.022,6.379,6.379,0,0,1,1.88-1.5,1.078,1.078,0,0,0,.686-1.2,9.317,9.317,0,0,1,.007-1.558,1.954,1.954,0,0,1,1.94-1.814,1.791,1.791,0,0,1,1.888,1.822A2.891,2.891,0,0,0,61.7,13.1a3.04,3.04,0,0,1,.957.816,1.877,1.877,0,0,1,.076,2.568A1.935,1.935,0,0,1,60.1,16.8c-.4-.275-.764-.609-1.182-.851a1.924,1.924,0,0,0-2.358.132,1.794,1.794,0,0,0-.615,2.1,1.96,1.96,0,0,0,1.935,1.348A5.859,5.859,0,0,1,61.6,29.8a1.451,1.451,0,0,1-.46.354c-1.422.421-1.5,1.471-1.431,2.719a1.891,1.891,0,0,1-1.975,2.233" fill="#5c22c3"/>
    <path id="Path_174359" data-name="Path 174359" d="M46.491,66.484a1.941,1.941,0,0,1-1.931,1.9,2,2,0,0,1-1.951-2A1.958,1.958,0,0,1,44.662,64.5a1.9,1.9,0,0,1,1.829,1.981" fill="#5c22c3"/>
  </g>
</svg>
