<svg id="Group_112631" data-name="Group 112631" xmlns="http://www.w3.org/2000/svg" xmlns:xlink="http://www.w3.org/1999/xlink" width="100" height="100" viewBox="0 0 100 100">
  <defs>
    <clipPath id="clip-path">
      <rect id="Rectangle_36936" data-name="Rectangle 36936" width="100" height="100" fill="#5c22c3"/>
    </clipPath>
  </defs>
  <g id="Group_112632" data-name="Group 112632" clip-path="url(#clip-path)">
    <path id="Path_175043" data-name="Path 175043" d="M81.445,118.3H2.539A3.887,3.887,0,0,1,0,115.766V33.734c.685-1.874,2.035-2.564,4.007-2.554q14.157.074,28.315.008a3.647,3.647,0,0,1,3.7,2.306c.507,1.125,1.148,2.191,1.635,3.324a1.276,1.276,0,0,0,1.411.845q17.038-.034,34.076-.016h.99v-9.7H9.741V24.8c.306-.018.56-.047.813-.047q31.684,0,63.367,0a3.2,3.2,0,0,1,3.479,3.46c.022,2.766.006,5.533.006,8.3v1.134c1.022,0,1.927,0,2.832,0,2.35.016,3.608,1.265,3.618,3.627.013,2.994.028,5.989-.014,8.983a1.117,1.117,0,0,0,.928,1.291A17.574,17.574,0,0,1,96.7,67.283c.151,3.15.117,6.314.046,9.468a8.11,8.11,0,0,0,1.2,5.183A3.372,3.372,0,0,1,98.423,83c.54,2,1.054,4.005,1.577,6.009v3.906a1.507,1.507,0,0,0-.148.347c-1.4,9.157-6.551,15.076-15.369,17.826a.763.763,0,0,0-.632.9c.034.713-.045,1.433.018,2.141a3.72,3.72,0,0,1-2.424,4.174M80.6,111.91c-1.345-.072-2.643-.077-3.926-.219A20.936,20.936,0,0,1,60.852,80.478a3.511,3.511,0,0,0,.433-1.642c.039-3.482.029-6.965.018-10.447a17.536,17.536,0,0,1,3.489-10.654c.142-.2.259-.409.426-.677H3.291V114.98H80.6ZM80.605,40.9H45.314c-2.213,0-4.426-.033-6.637.01a3.609,3.609,0,0,1-3.718-2.278c-.5-1.126-1.136-2.195-1.629-3.325a1.291,1.291,0,0,0-1.4-.87q-13.811.038-27.623.019c-.342,0-.684.032-1.076.051v1.1c0,5.694.018,11.388-.019,17.081-.006.886.225,1.143,1.135,1.142q31.82-.039,63.64-.041a3.348,3.348,0,0,0,1.613-.5,16.835,16.835,0,0,1,6.046-2.358c1.623-.248,3.271-.332,4.962-.494ZM96.763,90.923a17.728,17.728,0,1,0-17.8,17.692,17.713,17.713,0,0,0,17.8-17.692M64.471,75.705c1.01-.777,1.883-1.382,2.667-2.086a1.878,1.878,0,0,0,.59-1.174c.073-1.493.009-2.992.043-4.487a11.261,11.261,0,0,1,22.493-.428c.1,1.653.032,3.316.06,4.975,0,.28.008.676.178.816.959.789,1.969,1.517,3.049,2.332,0-2.572.019-5.01,0-7.447a14.513,14.513,0,0,0-28.438-4c-1.086,3.72-.43,7.537-.637,11.5m6.395-4.144A21.341,21.341,0,0,1,87.084,71.5c0-1.316.058-2.511-.011-3.7a8.075,8.075,0,0,0-7.191-7.51,7.974,7.974,0,0,0-8.7,6.312,39.1,39.1,0,0,0-.313,4.954" transform="translate(0 -18.305)" fill="#5c22c3"/>
    <rect id="Rectangle_36930" data-name="Rectangle 36930" width="64.453" height="3.164" transform="translate(12.891)" fill="#5c22c3"/>
    <path id="Path_175045" data-name="Path 175045" d="M0,374.25a3.886,3.886,0,0,0,2.539,2.539H0Z" transform="translate(0 -276.789)" fill="#5c22c3"/>
    <path id="Path_175046" data-name="Path 175046" d="M89.454,207.8l1.935-8.02.309-.04c-.2-.158-.418-.3-.605-.475a12.865,12.865,0,0,1-4.4-9.557c-.058-4.327-.1-8.658.009-12.984a16.1,16.1,0,0,1,32-2.019,24.464,24.464,0,0,1,.214,3.6c.027,3.319.009,6.639.009,9.958,0,5.091-1.266,8.028-4.9,11.442.4,1.355.847,2.668,1.178,4.009.325,1.322.535,2.672.811,4.086ZM111.9,197.16a9.519,9.519,0,0,0,3.749-7.352c.047-4.294.068-8.589,0-12.882a12.884,12.884,0,0,0-25.762-.022q-.11,6.342,0,12.687a9.851,9.851,0,0,0,3.78,7.65c.438-.323.839-.652,1.273-.93.464-.3.972-.524,1.435-.823a1.938,1.938,0,0,0,.211-2.764,8.213,8.213,0,0,1-3.19-5.317,67.666,67.666,0,0,1-.228-7.977,4.587,4.587,0,0,1,3.5-4.2c.687-.184,1.389-.31,2.134-.473l-.8-1.833,3.053-1.008a5.487,5.487,0,0,0,4.232,3.606,13.234,13.234,0,0,0,2.138.1,4.873,4.873,0,0,1,5.033,4.967c.031,1.593.038,3.189,0,4.782a9.527,9.527,0,0,1-3.488,7.338c-.483.407-.888.745-.483,1.416a5.239,5.239,0,0,0,.87,1.416,24.848,24.848,0,0,0,2.532,1.624M96.323,182.74h.01c0,.942-.041,1.887.007,2.827a6.439,6.439,0,0,0,12.872-.163c.032-1.43.011-2.86.01-4.291,0-1.793-.454-2.269-2.24-2.253A9.957,9.957,0,0,1,102,177.747a1.534,1.534,0,0,0-.923-.131c-1.056.176-2.105.4-3.151.627a1.711,1.711,0,0,0-1.6,1.96c-.013.845,0,1.69,0,2.536M93.53,204.619h18.518a7.386,7.386,0,0,0-2.853-5.379c-1.092-.843-1.1-.836-2.043.11l-4.447,4.457-5.22-5.276a7.389,7.389,0,0,0-3.957,6.089m11.758-9.769h-5.216c0,.473-.226,1.2.043,1.555a32.97,32.97,0,0,0,2.713,2.847,23.629,23.629,0,0,1,2.1-2.209,1.439,1.439,0,0,0,.359-2.193" transform="translate(-64.077 -119.173)" fill="#5c22c3"/>
    <path id="Path_175047" data-name="Path 175047" d="M41.13,325.161H25.061v-3.139c.258-.018.541-.055.824-.056,4.747,0,9.495.017,14.241-.021.834-.007,1.084.261,1.016,1.055-.061.7-.013,1.412-.013,2.162" transform="translate(-18.535 -238.105)" fill="#5c22c3"/>
    <path id="Path_175048" data-name="Path 175048" d="M59.377,300.4H49.733v-3.1a3.9,3.9,0,0,1,.625-.1c2.729-.007,5.458.01,8.186-.017.627-.006.882.174.843.826-.046.77-.011,1.545-.011,2.386" transform="translate(-36.782 -219.797)" fill="#5c22c3"/>
    <rect id="Rectangle_36931" data-name="Rectangle 36931" width="6.362" height="3.112" transform="translate(6.493 90.374)" fill="#5c22c3"/>
    <rect id="Rectangle_36932" data-name="Rectangle 36932" width="6.322" height="3.103" transform="translate(16.205 90.371)" fill="#5c22c3"/>
    <rect id="Rectangle_36933" data-name="Rectangle 36933" width="3.104" height="3.117" transform="translate(6.526 77.483)" fill="#5c22c3"/>
    <path id="Path_175049" data-name="Path 175049" d="M40.337,93.465c-.9,0-1.772.036-2.633-.029a.81.81,0,0,1-.494-.608c-.039-1.878-.023-3.757-.023-5.724h3.15Z" transform="translate(-27.5 -64.421)" fill="#5c22c3"/>
    <rect id="Rectangle_36934" data-name="Rectangle 36934" width="3.087" height="6.319" transform="translate(16.205 22.644)" fill="#5c22c3"/>
    <rect id="Rectangle_36935" data-name="Rectangle 36935" width="3.07" height="6.341" transform="translate(22.664 22.65)" fill="#5c22c3"/>
    <path id="Path_175050" data-name="Path 175050" d="M276.742,237.484a14.522,14.522,0,1,1-14.5-14.57,14.557,14.557,0,0,1,14.5,14.57m-3.241-.02a11.274,11.274,0,1,0-11.324,11.252A11.266,11.266,0,0,0,273.5,237.464" transform="translate(-183.193 -164.863)" fill="#5c22c3"/>
    <path id="Path_175051" data-name="Path 175051" d="M136.583,250.894c1.807-.138,3.692.321,5.162-1.14l2.129,2.388c-1.914,2.023-4.535,2.05-7.291,1.86Z" transform="translate(-101.015 -184.714)" fill="#5c22c3"/>
    <path id="Path_175052" data-name="Path 175052" d="M291.372,257.141v6.65H288.13c0-1.863-.029-3.707.014-5.548a1.5,1.5,0,0,0-.862-1.608,4.624,4.624,0,0,1-2.179-5.348,4.823,4.823,0,0,1,9.331.046,4.8,4.8,0,0,1-2.235,5.36c-.25.149-.512.278-.827.448m-1.614-3a1.592,1.592,0,0,0,1.609-1.609,1.608,1.608,0,0,0-3.214,0,1.584,1.584,0,0,0,1.6,1.61" transform="translate(-210.724 -183.201)" fill="#5c22c3"/>
  </g>
</svg>
