<svg xmlns="http://www.w3.org/2000/svg" xmlns:xlink="http://www.w3.org/1999/xlink" width="128.187" height="124" viewBox="0 0 128.187 124">
  <defs>
    <clipPath id="clip-path">
      <rect id="Rectangle_35849" data-name="Rectangle 35849" width="128.187" height="124" fill="none"/>
    </clipPath>
  </defs>
  <g id="Group_111509" data-name="Group 111509" transform="translate(-390 -3218)">
    <g id="Group_111512" data-name="Group 111512" transform="translate(390 3218)">
      <g id="Group_111511" data-name="Group 111511" clip-path="url(#clip-path)">
        <path id="Path_172314" data-name="Path 172314" d="M98.492,111.029H13.423A12.358,12.358,0,0,1,1.065,98.672V13.6A12.359,12.359,0,0,1,13.423,1.246H98.492A12.358,12.358,0,0,1,110.848,13.6V98.672a12.357,12.357,0,0,1-12.356,12.357" fill="#ba68c8"/>
        <path id="Path_172315" data-name="Path 172315" d="M128.187,95.63c-.746,2.978-1.134,6.1-2.3,8.907-4.456,10.71-12.49,17.352-23.984,19.057-12.471,1.849-22.593-2.654-30.093-12.8-6.882-9.306-7.456-23.169-1.552-33.115,4.7-7.92,11.477-13.138,20.5-14.9,12.363-2.418,22.723,1.406,30.76,11.136a29.394,29.394,0,0,1,6.45,15.616,6.111,6.111,0,0,0,.22.84ZM97.351,66.17a26.869,26.869,0,1,0,26.678,27.116A26.914,26.914,0,0,0,97.351,66.17"/>
        <path id="Path_172316" data-name="Path 172316" d="M111.612,57.827h-4.12V56.184q0-22.531,0-45.062c0-3.579-1.609-5.954-4.6-6.725a9.49,9.49,0,0,0-2.354-.224Q55.85,4.157,11.165,4.166c-4.593,0-7.026,2.428-7.027,7.027q-.009,44.622,0,89.246c0,4.654,2.441,7.077,7.115,7.079q25.536.009,51.07,0h1.689v4.136h-1.26q-25.909,0-51.82,0c-5.271,0-9.183-2.857-10.528-7.721a12.249,12.249,0,0,1-.386-3.213Q-.012,55.845.006,10.971C.008,4.462,4.415.015,10.909.011q44.937-.023,89.872,0c6.323,0,10.836,4.377,10.856,10.623.051,15.479.018,30.959.015,46.438,0,.2-.02.408-.04.754"/>
        <rect id="Rectangle_35836" data-name="Rectangle 35836" width="94.95" height="4.009" transform="translate(8.37 16.626)"/>
        <path id="Path_172317" data-name="Path 172317" d="M29.5,50.257l2.86,2.871L27.1,58.235a11.038,11.038,0,0,1,1.754,6.882,10.331,10.331,0,1,1-5.437-10.073,1.132,1.132,0,0,0,1.6-.261c1.434-1.509,2.923-2.965,4.474-4.526M17.019,62.293l3.945-3.815a6.034,6.034,0,0,0-7.538,2.252,6.184,6.184,0,0,0,8.861,8.343A5.978,5.978,0,0,0,24.022,61.4l-3.815,4.238-3.188-3.343"/>
        <path id="Path_172318" data-name="Path 172318" d="M29.51,75.077c1.011,1,1.919,1.91,2.855,2.842L27.139,83.1a10.65,10.65,0,0,1,1.412,8.557,10.419,10.419,0,0,1-10.708,7.611c-5.472-.622-9.49-4.778-9.594-9.923A10.287,10.287,0,0,1,23.44,79.868a1.136,1.136,0,0,0,1.595-.284c1.441-1.5,2.93-2.957,4.475-4.507M20.4,90.307l-3.352-3.09,4.113-3.736A5.832,5.832,0,0,0,13.7,85.16a6.18,6.18,0,0,0,8.614,8.7,5.849,5.849,0,0,0,1.764-7.473L20.4,90.307"/>
        <path id="Path_172319" data-name="Path 172319" d="M29.446,25.519l2.974,3.053-5.242,4.974a10.9,10.9,0,0,1,1.68,6.773,10.33,10.33,0,1,1-5.465-10.1,1.2,1.2,0,0,0,1.695-.312c1.433-1.5,2.921-2.951,4.358-4.391m-8.1,8.3c-3.226-1.365-6.411-.381-7.993,2.21a6.187,6.187,0,0,0,9.361,7.888,5.732,5.732,0,0,0,1.232-7.277l-3.718,4.14L17.1,37.625l4.243-3.8"/>
        <rect id="Rectangle_35837" data-name="Rectangle 35837" width="35.023" height="4.014" transform="translate(35.202 57.964)"/>
        <rect id="Rectangle_35838" data-name="Rectangle 35838" width="35.026" height="4.038" transform="translate(35.215 33.141)"/>
        <rect id="Rectangle_35839" data-name="Rectangle 35839" width="28.739" height="4.007" transform="translate(53.882 41.427)"/>
        <rect id="Rectangle_35840" data-name="Rectangle 35840" width="26.741" height="4.016" transform="translate(35.217 82.778)"/>
        <rect id="Rectangle_35841" data-name="Rectangle 35841" width="20.524" height="4.012" transform="translate(74.516 33.166)"/>
        <rect id="Rectangle_35842" data-name="Rectangle 35842" width="16.391" height="4.004" transform="translate(53.841 66.247)"/>
        <rect id="Rectangle_35843" data-name="Rectangle 35843" width="14.322" height="3.998" transform="translate(35.226 66.244)"/>
        <rect id="Rectangle_35844" data-name="Rectangle 35844" width="14.299" height="3.991" transform="translate(35.23 91.038)"/>
        <rect id="Rectangle_35845" data-name="Rectangle 35845" width="14.317" height="3.993" transform="translate(35.233 41.436)"/>
        <rect id="Rectangle_35846" data-name="Rectangle 35846" width="8.099" height="3.995" transform="translate(74.47 57.974)"/>
        <rect id="Rectangle_35847" data-name="Rectangle 35847" width="8.142" height="3.974" transform="translate(53.842 91.063)"/>
        <path id="Path_172320" data-name="Path 172320" d="M16.586,12.433V8.349h4.106c0,1.158.047,2.271-.035,3.374a1.034,1.034,0,0,1-.735.678c-1.066.079-2.142.032-3.336.032"/>
        <path id="Path_172321" data-name="Path 172321" d="M24.855,12.433V8.362h4.106c0,1.157.038,2.308-.033,3.452-.014.22-.443.575-.7.591-1.071.066-2.148.028-3.376.028"/>
        <rect id="Rectangle_35848" data-name="Rectangle 35848" width="3.959" height="4.024" transform="translate(8.347 8.304)"/>
        <path id="Path_172322" data-name="Path 172322" d="M97.351,66.17A26.869,26.869,0,1,1,70.34,92.32,26.888,26.888,0,0,1,97.351,66.17M80.866,96.045c1.283,2.565,2.49,4.982,3.7,7.4s2.5,2.633,4.4.74q11.627-11.625,23.25-23.253c.284-.283.551-.584.778-.825l-2.826-2.911L87.452,99.943l-2.913-5.737-3.673,1.839" fill="#fff505"/>
        <path id="Path_172323" data-name="Path 172323" d="M17.019,62.293l3.188,3.343L24.022,61.4a5.978,5.978,0,0,1-1.735,7.675,6.184,6.184,0,0,1-8.861-8.343,6.034,6.034,0,0,1,7.538-2.252l-3.945,3.815" fill="#fff505"/>
        <path id="Path_172324" data-name="Path 172324" d="M20.4,90.307l3.686-3.918a5.849,5.849,0,0,1-1.764,7.473,6.18,6.18,0,0,1-8.614-8.7,5.832,5.832,0,0,1,7.453-1.679l-4.113,3.736,3.352,3.09" fill="#fff505"/>
        <path id="Path_172325" data-name="Path 172325" d="M21.344,33.821l-4.243,3.8,3.125,3.157,3.718-4.14a5.732,5.732,0,0,1-1.232,7.277,6.187,6.187,0,0,1-9.361-7.888c1.582-2.591,4.767-3.575,7.993-2.21" fill="#fff505"/>
        <path id="Path_172326" data-name="Path 172326" d="M80.866,96.045l3.673-1.839,2.913,5.737,22.715-22.75,2.826,2.911c-.227.241-.494.542-.778.825q-11.623,11.628-23.25,23.253c-1.895,1.893-3.185,1.675-4.4-.74s-2.419-4.832-3.7-7.4"/>
      </g>
    </g>
  </g>
</svg>
