<svg id="Group_112024" data-name="Group 112024" xmlns="http://www.w3.org/2000/svg" xmlns:xlink="http://www.w3.org/1999/xlink" width="51.04" height="50" viewBox="0 0 51.04 50">
  <defs>
    <clipPath id="clip-path">
      <rect id="Rectangle_36670" data-name="Rectangle 36670" width="51.04" height="50" fill="#5c22c3"/>
    </clipPath>
  </defs>
  <g id="Group_112003" data-name="Group 112003" clip-path="url(#clip-path)">
    <path id="Path_174322" data-name="Path 174322" d="M29.974,42.685a21.385,21.385,0,0,1-.014,2.422,5.478,5.478,0,0,1-5.554,4.887q-8.588.015-17.177,0a17.931,17.931,0,0,1-2.563-.1,5.46,5.46,0,0,1-4.65-5.344c-.03-2.263-.009-4.526-.009-6.788q0-15.84,0-31.679A5.542,5.542,0,0,1,4.42.471,6.071,6.071,0,0,1,5.7.34q9.311-.012,18.618,0A5.506,5.506,0,0,1,29.876,4.69a7.2,7.2,0,0,1,.151,1.58q.018,6.736.008,13.474V20.4h.708q8.743,0,17.487,0a2.536,2.536,0,0,1,2.756,2.031,3.343,3.343,0,0,1,.051.664q0,8.433,0,16.867a2.516,2.516,0,0,1-2.73,2.718q-8.794,0-17.589,0ZM28.353,9.005H1.693V41.141h26.66Zm1.7,32.034H48.188c.951,0,1.2-.259,1.2-1.23q0-8.251,0-16.5c0-1.007-.242-1.255-1.235-1.255H30.079v2.068H42.566c.885,0,1.09.189,1.172,1.053a2.438,2.438,0,0,0,2.267,2.2c.746.065,1,.331,1,1.077q.008,3.086,0,6.17c0,.757-.245,1.015-.991,1.08a2.471,2.471,0,0,0-2.279,2.2c-.088.878-.307,1.075-1.209,1.075H30.049Zm-1.589,1.8H1.656c0,.585-.01,1.132,0,1.678a3.881,3.881,0,0,0,3.857,3.826q9.516.021,19.029,0a3.739,3.739,0,0,0,3.645-2.793,18.773,18.773,0,0,0,.272-2.711M28.388,7.3V6.2a3.941,3.941,0,0,0-4.206-4.221Q15,1.975,5.823,1.986A4.655,4.655,0,0,0,4.6,2.123C2.372,2.741,1.313,4.653,1.719,7.3Zm1.673,19.9a4.6,4.6,0,0,1,5.537,1.6,4.293,4.293,0,0,1,.284,5.065c-1.336,2.222-3.371,2.784-5.809,2.056v1.4H42.147a4.246,4.246,0,0,1,3.217-3.209c0-1.584-.01-3.142.008-4.7a.492.492,0,0,0-.414-.571,3.864,3.864,0,0,1-2.642-2.589c-.139-.428-.337-.493-.724-.491-3.65.011-7.3.006-10.95.006h-.581Zm-.026,4.336c0,.7-.021,1.4.012,2.1a.742.742,0,0,0,.287.52,3.02,3.02,0,1,0,.028-5.234.8.8,0,0,0-.313.557c-.038.683-.014,1.369-.014,2.053" fill="#5c22c3"/>
    <path id="Path_174323" data-name="Path 174323" d="M50.858,9.359A9.376,9.376,0,1,1,41.452,0a9.355,9.355,0,0,1,9.406,9.358M41.488,17.1a7.729,7.729,0,1,0-7.736-7.7,7.707,7.707,0,0,0,7.736,7.7" fill="#5c22c3"/>
    <path id="Path_174324" data-name="Path 174324" d="M24.944,25.162a9.936,9.936,0,1,1-9.951-9.929,9.92,9.92,0,0,1,9.951,9.929m-1.645.017a8.291,8.291,0,1,0-8.266,8.273A8.3,8.3,0,0,0,23.3,25.179" fill="#5c22c3"/>
    <path id="Path_174325" data-name="Path 174325" d="M14.989,46.319c-.787,0-1.575.007-2.362,0-.579-.007-.922-.313-.928-.8a.816.816,0,0,1,.9-.836q2.414-.021,4.827,0a.81.81,0,0,1,.9.837c-.006.491-.344.792-.929.8-.8.009-1.609,0-2.413,0" fill="#5c22c3"/>
    <path id="Path_174326" data-name="Path 174326" d="M15.009,3.567c1.112,0,2.225,0,3.337,0,.652,0,1.015.312,1,.83-.011.493-.371.808-.988.81q-3.338.012-6.674,0c-.654,0-1.007-.318-1-.845s.355-.793,1.034-.8c1.1,0,2.19,0,3.285,0" fill="#5c22c3"/>
    <path id="Path_174327" data-name="Path 174327" d="M40.155,32.369a.847.847,0,0,1-.82-.82.838.838,0,0,1,.863-.824.791.791,0,0,1,.779.835.829.829,0,0,1-.822.809" fill="#5c22c3"/>
    <path id="Path_174328" data-name="Path 174328" d="M42.382,14.167c0,.221.016.442,0,.661a.825.825,0,0,1-.834.807.771.771,0,0,1-.79-.829c.026-.483-.139-.689-.6-.871A2.8,2.8,0,0,1,38.4,11.47a.837.837,0,0,1,.717-.965.785.785,0,0,1,.9.72c.08,1.016.862,1.625,2.213,1.243a.931.931,0,0,0,.781-.842,1.068,1.068,0,0,0-.62-1.189,8.9,8.9,0,0,0-1.332-.364A2.841,2.841,0,0,1,38.6,7.324a2.652,2.652,0,0,1,1.793-2.613.478.478,0,0,0,.36-.519c-.006-.713.289-1.084.8-1.086s.815.39.834,1.079c0,.1.011.2.017.313.2.079.394.146.579.23a2.356,2.356,0,0,1,1.443,2.031.828.828,0,0,1-.7.97A.819.819,0,0,1,42.8,6.98a1,1,0,0,0-1.167-.891,1.337,1.337,0,0,0-1.374.944,1.065,1.065,0,0,0,.8,1.306c.419.142.864.2,1.294.318a2.854,2.854,0,0,1,2.228,3.578,2.559,2.559,0,0,1-1.619,1.736c-.171.071-.351.121-.572.2" fill="#5c22c3"/>
    <path id="Path_174329" data-name="Path 174329" d="M13.056,25.1c.488-.545.968-1.077,1.445-1.612.741-.832,1.473-1.671,2.221-2.5a2.24,2.24,0,1,1,3.357,2.958q-2.714,3.09-5.457,6.153a1.675,1.675,0,0,1-2.718.184Q10.592,29.176,9.33,28a2.285,2.285,0,0,1-.2-3.234A2.309,2.309,0,0,1,12.4,24.54c.211.172.413.355.652.562m.138,4.144.288-.327,4.7-5.3c.249-.282.512-.554.739-.854a.505.505,0,0,0-.1-.8,1.354,1.354,0,0,0-.777.042c-.1.019-.165.165-.245.255q-1.947,2.187-3.894,4.373c-.529.593-.928.614-1.528.085-.347-.305-.685-.621-1.042-.916a.628.628,0,0,0-.957.06.608.608,0,0,0,.049.918c.894.82,1.808,1.619,2.764,2.47" fill="#5c22c3"/>
  </g>
</svg>
