<svg id="Group_113305" data-name="Group 113305" xmlns="http://www.w3.org/2000/svg" xmlns:xlink="http://www.w3.org/1999/xlink" width="71.053" height="50" viewBox="0 0 71.053 50">
  <defs>
    <clipPath id="clip-path">
      <rect id="Rectangle_37211" data-name="Rectangle 37211" width="71.053" height="50" fill="#5c22c3"/>
    </clipPath>
  </defs>
  <g id="Group_113305-2" data-name="Group 113305" clip-path="url(#clip-path)">
    <path id="Path_175282" data-name="Path 175282" d="M71.054,45.558c-.089.285-.175.571-.268.855A5.2,5.2,0,0,1,66,49.994c-.277.008-.555.005-.832.005H6.374C2.584,50,1.269,49.083,0,45.558V4.477c.089-.284.173-.57.267-.853A5.1,5.1,0,0,1,4.99.054C11.256.02,17.523.036,23.789.04c.823,0,1.188.4,1.189,1.274q.007,5.167,0,10.336v.82H68.89c.006-.008.06-.042.06-.077.006-2.474.057-4.949-.006-7.421a3.049,3.049,0,0,0-2.9-2.846c-.276-.016-.555-.008-.832-.008H28.653c-1.073,0-1.568-.318-1.586-1.016-.019-.723.5-1.066,1.605-1.066C40.7.036,52.72.092,64.744,0c3.268-.025,5.6,1.368,6.31,4.477Zm-2.082-30.9H2.082V44.327c0,2.374,1.213,3.59,3.58,3.59H65.4c2.362,0,3.576-1.221,3.576-3.6q0-14.431,0-28.863ZM10.44,12.479h12.4V2.155H10.44Zm-2.161.016V2.118H5.467c-.185,0-.371,0-.555.012A3.124,3.124,0,0,0,2.088,5.2c-.023,1.34-.006,2.681-.006,4.021v3.269Z" fill="#5c22c3"/>
    <path id="Path_175283" data-name="Path 175283" d="M4.163,29.147q0-5.481,0-10.961c0-1.181.3-1.494,1.458-1.5h22.06c1.155,0,1.461.314,1.461,1.493V40.177c0,1.2-.305,1.5-1.529,1.5H5.693c-1.247,0-1.529-.289-1.53-1.563V29.147m22.85-10.319H6.282V39.56H27.013Z" fill="#5c22c3"/>
    <path id="Path_175284" data-name="Path 175284" d="M49.06,31.264H32.827a3.787,3.787,0,0,1-.691-.018,1.032,1.032,0,0,1-.005-2.045,3.492,3.492,0,0,1,.623-.017q16.3,0,32.6,0a3.119,3.119,0,0,1,.692.029,1.029,1.029,0,0,1,0,2.02,2.929,2.929,0,0,1-.69.031H49.06" fill="#5c22c3"/>
    <path id="Path_175285" data-name="Path 175285" d="M57.454,37.9a6.079,6.079,0,0,1-3.9,1.677c-.844.039-1.357-.346-1.372-1.008-.013-.634.439-1.017,1.261-1.067a3.545,3.545,0,0,0,2.439-1.046,3.646,3.646,0,0,0-2.422-1.025c-.858-.051-1.324-.462-1.275-1.12.046-.635.539-.99,1.352-.956a5.981,5.981,0,0,1,3.9,1.676,6.177,6.177,0,0,1,3.319-1.616,6.55,6.55,0,0,1,.827-.064,1.051,1.051,0,0,1,1.132.974,1.033,1.033,0,0,1-1.083,1.094,3.885,3.885,0,0,0-2.622,1.034,3.725,3.725,0,0,0,2.6,1.059c.91.046,1.432.93.911,1.58a1.46,1.46,0,0,1-.994.47A5.847,5.847,0,0,1,57.454,37.9" fill="#5c22c3"/>
    <path id="Path_175286" data-name="Path 175286" d="M40.665,20.855q4.092,0,8.183,0c.766,0,1.226.388,1.245,1.007a1.043,1.043,0,0,1-1.114,1.067c-1.017.019-2.034.006-3.051.006-4.438,0-8.877,0-13.315-.01a1.422,1.422,0,0,1-.958-.249,1.508,1.508,0,0,1-.347-1.089c.082-.535.559-.738,1.1-.736,1.827.006,3.653,0,5.479,0h2.774" fill="#5c22c3"/>
    <path id="Path_175287" data-name="Path 175287" d="M40.609,27.1H32.7a2.729,2.729,0,0,1-.621-.025,1.032,1.032,0,0,1,.033-2.036,3.229,3.229,0,0,1,.623-.019H48.549c.116,0,.231,0,.347,0,.739.022,1.208.437,1.2,1.057s-.476,1.014-1.232,1.022c-.947.009-1.9,0-2.843,0H40.609" fill="#5c22c3"/>
    <path id="Path_175288" data-name="Path 175288" d="M13.513,44.779a1.024,1.024,0,1,1-1-1.019,1.032,1.032,0,0,1,1,1.019" fill="#5c22c3"/>
    <path id="Path_175289" data-name="Path 175289" d="M17.676,44.776a1.024,1.024,0,1,1-1.008-1.016,1.03,1.03,0,0,1,1.008,1.016" fill="#5c22c3"/>
    <path id="Path_175290" data-name="Path 175290" d="M21.84,44.805a1.024,1.024,0,1,1-1.048-1.045,1.035,1.035,0,0,1,1.048,1.045" fill="#5c22c3"/>
    <path id="Path_175291" data-name="Path 175291" d="M16.634,37.507a6.317,6.317,0,0,1-6.087-4.852,1.253,1.253,0,0,0-.533-.693,3.145,3.145,0,0,1,.037-5.579,1.14,1.14,0,0,0,.492-.646,6.266,6.266,0,0,1,12.216-.028,1.257,1.257,0,0,0,.535.688,3.156,3.156,0,0,1,.029,5.557,1.371,1.371,0,0,0-.57.739,6.323,6.323,0,0,1-6.119,4.814m.045-2.082A4.15,4.15,0,0,0,20.8,31.461c.043-.7.311-1.144,1.038-1.236.634-.08,1.053-.406,1.04-1.071a1.009,1.009,0,0,0-1.026-1.014c-.722-.088-1.008-.517-1.052-1.223a4.153,4.153,0,0,0-8.3-.015A1.151,1.151,0,0,1,11.4,28.153a.981.981,0,0,0-.973,1.055,1.011,1.011,0,0,0,.956,1.007c.881.173,1.052.391,1.117,1.3a4.178,4.178,0,0,0,4.182,3.911" fill="#5c22c3"/>
  </g>
</svg>
