<svg id="Group_113334" data-name="Group 113334" xmlns="http://www.w3.org/2000/svg" xmlns:xlink="http://www.w3.org/1999/xlink" width="50" height="50" viewBox="0 0 50 50">
  <defs>
    <clipPath id="clip-path">
      <rect id="Rectangle_36673" data-name="Rectangle 36673" width="50" height="50" fill="#5c22c3"/>
    </clipPath>
  </defs>
  <g id="Group_112010" data-name="Group 112010" clip-path="url(#clip-path)">
    <path id="Path_174344" data-name="Path 174344" d="M46.192,50H42.676c-.3-.259-.587-.529-.407-.987s.555-.485.966-.48a18.456,18.456,0,0,0,2.341-.021,4.175,4.175,0,0,0,1.683-.535,2.848,2.848,0,0,0,1.15-3.258,2.974,2.974,0,0,0-3.013-2.1c-3.906-.009-7.811,0-11.716-.009a.463.463,0,0,0-.541.391,3.9,3.9,0,0,1-3.765,2.863q-4.368.051-8.737,0A3.866,3.866,0,0,1,16.9,43.108c-.129-.428-.331-.5-.716-.494-3.791.011-7.582.006-11.373.009a6.736,6.736,0,0,0-.828.045,2.952,2.952,0,0,0,.622,5.866q17.572,0,35.146,0c.422,0,.8.06.949.507s-.1.742-.466.961H3.809c-.106-.033-.211-.074-.318-.1A4.26,4.26,0,0,1,.578,47.728,11.777,11.777,0,0,1,0,46.192v-1.27c.036-.1.079-.206.107-.313a4.424,4.424,0,0,1,3.1-3.278c.152-.05.31-.084.47-.127.009-.121.021-.217.021-.312q0-10-.011-20a1,1,0,0,0-.284-.618A11.6,11.6,0,0,1,.619,15.686c-.275-.877-.417-1.8-.619-2.7V10.84a2.85,2.85,0,0,0,.089-.322A11.714,11.714,0,0,1,8.021.685,22.81,22.81,0,0,1,10.84,0h2.148a2.4,2.4,0,0,0,.325.086,11.9,11.9,0,0,1,10.432,10.3c.076.589.1,1.185.153,1.8h.619c5.63,0,11.26.051,16.889-.021a4.706,4.706,0,0,1,4.905,4.94c-.043.793-.006,1.591-.006,2.41.186.035.342.067.5.094a3.714,3.714,0,0,1,2.879,2.23,9.173,9.173,0,0,1,.316.912V33.2c-.035.1-.076.209-.106.316a3.739,3.739,0,0,1-2.557,2.712c-.32.1-.66.151-1.011.229v4.746a4.682,4.682,0,0,1,2.616,1.5A5.649,5.649,0,0,1,50,44.922v1.27c-.033.1-.073.209-.1.317a4.408,4.408,0,0,1-2.922,3.261c-.256.094-.524.154-.786.23m-5.1-30.451c.173-1.508-.093-2.22-1.88-2.2-5.143.052-10.287.04-15.429,0a1.844,1.844,0,0,0-1.838.988,19.357,19.357,0,0,1-2.309,2.688A.691.691,0,0,1,18.59,21a.713.713,0,0,1,.069-1.044c.068-.07.144-.132.216-.2a10.285,10.285,0,0,0,3.4-9.32,10.459,10.459,0,1,0-8.935,11.84c1-.155,1.959-.565,2.948-.809a1.213,1.213,0,0,1,.847.1.744.744,0,0,1,.209.677,1.053,1.053,0,0,1-.539.561,11.59,11.59,0,0,1-6.235.967c-.556-.063-1.106-.174-1.665-.264a1.288,1.288,0,0,0-.03.18c0,4.215-.006,8.431.01,12.646a1.4,1.4,0,0,0,.279.751c.28.387.733.36,1.16.36l29.345,0a3.414,3.414,0,0,0,.632-.04.934.934,0,0,0,.771-.986h-.534q-4.125,0-8.251,0a3.808,3.808,0,0,1-4.062-4.062q0-4.369,0-8.74a3.809,3.809,0,0,1,4.059-4.066q4.1,0,8.2,0Zm1.526,16.89a2.562,2.562,0,0,1-2.732,2.468q-14.887.007-29.777,0a2.518,2.518,0,0,1-2.7-2.726c0-1.855,0-3.71,0-5.565,0-2.408,0-4.817-.005-7.225,0-.16-.035-.407-.137-.465-.672-.381-1.367-.722-2.076-1.087V41.113h39.62V36.439Zm5.911-8.891H29.7c0,1.78-.035,3.52.012,5.258a2.249,2.249,0,0,0,2.254,2.139q7.152.026,14.3,0a2.233,2.233,0,0,0,2.245-2.093c.057-1.753.015-3.51.015-5.3M23.226,15.9h.644q7.953,0,15.905,0a2.66,2.66,0,0,1,2.818,2.81c0,.269,0,.538,0,.805H44.81a32.259,32.259,0,0,0-.021-3.236,3.054,3.054,0,0,0-3.239-2.626q-8.685-.008-17.369,0c-.144,0-.287.014-.414.021-.18.739-.351,1.445-.541,2.224m6.494,7.336H48.511a2.29,2.29,0,0,0-2.356-2.218c-1.675-.014-3.349,0-5.024,0q-4.488,0-8.975,0a2.289,2.289,0,0,0-2.436,2.22m18.8,1.545H29.711V26.01H48.517Zm-30.21,17.86a2.452,2.452,0,0,0,2.5,1.773q4.193.01,8.385,0a3.517,3.517,0,0,0,.772-.09,2.222,2.222,0,0,0,1.688-1.681Z" fill="#5c22c3"/>
    <path id="Path_174345" data-name="Path 174345" d="M11.928,2.881a9.053,9.053,0,1,1-9.047,9.026,9.075,9.075,0,0,1,9.047-9.026m.065,1.465a7.588,7.588,0,1,0,7.526,7.733,7.588,7.588,0,0,0-7.526-7.733" fill="#5c22c3"/>
    <path id="Path_174346" data-name="Path 174346" d="M18.029,27.825q2.706,0,5.413,0c.656,0,.989.255.981.741-.008.47-.335.722-.958.722q-5.463,0-10.924,0c-.655,0-1.008-.31-.951-.821.047-.42.339-.641.88-.642q2.779,0,5.559,0" fill="#5c22c3"/>
    <path id="Path_174347" data-name="Path 174347" d="M16.632,34.943c-1.4,0-2.8.006-4.194,0-.574,0-.9-.343-.848-.827.049-.408.327-.629.837-.632,1.284-.006,2.569,0,3.853,0,1.5,0,2.992,0,4.487,0,.617,0,.937.265.926.744-.011.457-.33.715-.915.718-1.382,0-2.764,0-4.146,0" fill="#5c22c3"/>
    <path id="Path_174348" data-name="Path 174348" d="M15.785,30.652c1.09,0,2.179,0,3.269,0,.579,0,.891.27.885.737s-.329.724-.907.725q-3.268.006-6.537,0c-.573,0-.9-.273-.913-.723-.009-.474.319-.737.934-.739,1.09,0,2.179,0,3.269,0" fill="#5c22c3"/>
    <path id="Path_174349" data-name="Path 174349" d="M45.062,30.176c-.293,0-.586.015-.878,0a.724.724,0,0,1,0-1.448c.6-.023,1.2-.023,1.805,0a.705.705,0,0,1,.7.725.717.717,0,0,1-.75.727c-.292.014-.585,0-.878,0Z" fill="#5c22c3"/>
    <path id="Path_174350" data-name="Path 174350" d="M33.137,30.177c-.293,0-.586.013-.878,0a.709.709,0,0,1-.723-.7.7.7,0,0,1,.68-.744c.617-.026,1.236-.027,1.853,0a.719.719,0,0,1,.684.75.744.744,0,0,1-.738.7c-.032,0-.065,0-.1,0h-.781Z" fill="#5c22c3"/>
    <path id="Path_174351" data-name="Path 174351" d="M37.125,30.177c-.293,0-.586.013-.878,0a.706.706,0,0,1-.725-.7.7.7,0,0,1,.673-.748c.616-.027,1.236-.027,1.852,0a.714.714,0,0,1,.687.745.726.726,0,0,1-.732.7c-.291.016-.584,0-.877,0" fill="#5c22c3"/>
    <path id="Path_174352" data-name="Path 174352" d="M41.107,30.175c-.309,0-.619.018-.926,0a.723.723,0,0,1-.008-1.444c.617-.027,1.236-.027,1.852,0a.7.7,0,0,1,.68.744.716.716,0,0,1-.72.707c-.033,0-.065,0-.1,0h-.78v0" fill="#5c22c3"/>
    <path id="Path_174353" data-name="Path 174353" d="M11.127,17.172c-.713-.317-1.331-.555-1.911-.862a.69.69,0,0,1-.3-1,.745.745,0,0,1,1.06-.235c.354.179.717.341,1.159.551,0-.728,0-1.327,0-1.926.006-.553.31-.9.757-.883s.7.343.7.881,0,1.065,0,1.61a1.486,1.486,0,0,0,.969-1.343,1.317,1.317,0,0,0-.853-1.347c-.786-.348-1.59-.66-2.361-1.038a2.182,2.182,0,0,1-1.184-1.416,2.7,2.7,0,0,1,1.487-3.161c.148-.066.3-.123.444-.182.1-1.005.28-1.283.8-1.265.492.016.662.29.721,1.154.427.2.866.364,1.267.6a.757.757,0,0,1,.38,1.1c-.237.384-.658.434-1.147.142-.148-.088-.306-.158-.52-.268,0,.382,0,.687,0,.992-.007.573-.277.894-.739.887s-.716-.328-.724-.908c0-.254,0-.508,0-.793a1.02,1.02,0,0,0-.109,1.8,14.554,14.554,0,0,0,1.9.861,2.841,2.841,0,0,1,2.107,2.684,3.156,3.156,0,0,1-2.072,3.011c-.271.1-.379.215-.373.513.012.642-.236.958-.7.974-.48.016-.741-.319-.761-.975,0-.095-.012-.189-.01-.162" fill="#5c22c3"/>
    <path id="Path_174354" data-name="Path 174354" d="M7.7,11.955a.756.756,0,0,1-.759.731.736.736,0,0,1-.7-.779.716.716,0,0,1,.745-.727.752.752,0,0,1,.712.775" fill="#5c22c3"/>
    <path id="Path_174355" data-name="Path 174355" d="M17.625,11.906a.746.746,0,0,1-.7.78.736.736,0,0,1-.746-.73.724.724,0,1,1,1.447-.05" fill="#5c22c3"/>
  </g>
</svg>
