<svg id="Group_113307" data-name="Group 113307" xmlns="http://www.w3.org/2000/svg" xmlns:xlink="http://www.w3.org/1999/xlink" width="46.87" height="50" viewBox="0 0 46.87 50">
  <defs>
    <clipPath id="clip-path">
      <rect id="Rectangle_37213" data-name="Rectangle 37213" width="46.87" height="50" fill="#5c22c3"/>
    </clipPath>
  </defs>
  <g id="Group_113307-2" data-name="Group 113307" clip-path="url(#clip-path)">
    <path id="Path_175307" data-name="Path 175307" d="M34.676,25.461c1.1.184,2.156.282,3.174.546a12.2,12.2,0,1,1-14.989,14.8c-.092-.353-.225-.441-.572-.44-4.383.012-8.766-.04-13.148.03a2.775,2.775,0,0,1-3-2.984c.053-6.187.02-12.375.02-18.563v-.718L4.208,19.706c-.746.6-.983.581-1.572-.15Q1.492,18.14.346,16.726c-.494-.611-.469-.9.139-1.391Q7.808,9.393,15.133,3.456c1.126-.913,2.249-1.829,3.379-2.736A2.828,2.828,0,0,1,22.265.7c1.75,1.4,3.485,2.821,5.227,4.232.129.1.261.2.485.378-.075-.4.272-.8-.31-.96-.048-.014-.078-.17-.08-.261-.01-.351,0-.7,0-1.084h5.69c0,.4,0,.787,0,1.169,0,.049-.012.134-.035.14-.6.16-.342.648-.351.994-.028,1.18,0,2.361-.017,3.541a.814.814,0,0,0,.336.725c2.327,1.867,4.64,3.751,6.958,5.628.787.638.814.873.183,1.649-.765.941-1.526,1.887-2.293,2.827-.453.556-.765.588-1.318.141-.664-.535-1.325-1.074-2.059-1.669ZM20.409,6.586c-.093.069-.149.106-.2.149q-6.146,4.981-12.3,9.958a.874.874,0,0,0-.344.771q.012,9.988.007,19.977a4.243,4.243,0,0,0,.011.5,1.03,1.03,0,0,0,.881.976c.763.052,1.533.014,2.329.014v-.65q0-7.916,0-15.83a1.915,1.915,0,0,1,2.1-2.106q3.21-.006,6.421,0a1.95,1.95,0,0,1,2.221,2.236q0,7.865,0,15.729v.608h.986a12.274,12.274,0,0,1,1.624-7.316.889.889,0,0,0,.079-.429c0-2.292-.035-4.584-.017-6.876A1.506,1.506,0,0,1,25.8,22.76q1.821-.021,3.641,0a1.536,1.536,0,0,1,1.593,1.595c.009.571,0,1.142,0,1.734a16.378,16.378,0,0,1,1.709-.355c.412-.042.485-.208.484-.574q-.02-3.819,0-7.637a1.014,1.014,0,0,0-.422-.893c-2.143-1.718-4.271-3.455-6.405-5.185l-6-4.858m3.473,31.179A10.8,10.8,0,1,0,34.716,26.994,10.823,10.823,0,0,0,23.882,37.765M39.073,16.177c-.117-.1-.188-.175-.266-.238Q30.152,8.918,21.5,1.9a1.508,1.508,0,0,0-2.257.05L4.4,13.982c-.886.719-1.77,1.44-2.686,2.184l1.824,2.252c.171-.134.291-.226.409-.322L19.687,5.33c.617-.5.8-.5,1.4-.016L34.632,16.3c.869.7,1.742,1.406,2.627,2.12l1.814-2.241M20.095,38.942c.012-.116.024-.181.024-.247q0-8.137,0-16.274c0-.524-.151-.654-.723-.655q-3.157,0-6.316,0c-.785,0-.868.083-.868.868V38.942ZM29.4,4.425c0,.657,0,1.26,0,1.863a.342.342,0,0,0,.063.232c.632.528,1.273,1.045,1.966,1.61v-3.7ZM25.656,26.883h1.21V24.2h-1.21Zm2.687.036A2.364,2.364,0,0,0,29,26.907c.22-.071.578-.219.588-.354.057-.779.028-1.563.028-2.34H28.343Zm-2.7,1.445v1.172l1.225-1.172Z" fill="#5c22c3"/>
    <path id="Path_175308" data-name="Path 175308" d="M34.668,45.832a10.069,10.069,0,0,1-4.675-.838,2.339,2.339,0,0,1-1.547-2.707,8.431,8.431,0,0,1,.671-2.257,6.206,6.206,0,0,1,6.853-3.295,6.368,6.368,0,0,1,4.971,5.623,2.409,2.409,0,0,1-1.328,2.5,8.827,8.827,0,0,1-3.632.964c-.434.039-.875.006-1.313.006m-.022-1.256a11.676,11.676,0,0,0,4.058-.841c.776-.372.921-.685.78-1.531a4.851,4.851,0,0,0-9.612.027c-.136.83,0,1.118.758,1.493a2.907,2.907,0,0,0,.748.293c1.087.2,2.178.375,3.268.559" fill="#5c22c3"/>
    <path id="Path_175309" data-name="Path 175309" d="M31.412,32.927a3.269,3.269,0,1,1,3.244,3.3,3.274,3.274,0,0,1-3.244-3.3m5.121,0a1.853,1.853,0,1,0-1.837,1.88,1.864,1.864,0,0,0,1.837-1.88" fill="#5c22c3"/>
    <path id="Path_175310" data-name="Path 175310" d="M19.314,29.98c0,.337.01.674,0,1.01a.7.7,0,0,1-1.391.027,21.134,21.134,0,0,1,0-2.121.645.645,0,0,1,.735-.663.656.656,0,0,1,.661.736c.006.337,0,.674,0,1.011h0" fill="#5c22c3"/>
  </g>
</svg>
