<svg id="Group_111902" data-name="Group 111902" xmlns="http://www.w3.org/2000/svg" xmlns:xlink="http://www.w3.org/1999/xlink" width="99.652" height="130" viewBox="0 0 99.652 130">
  <defs>
    <clipPath id="clip-path">
      <rect id="Rectangle_36528" data-name="Rectangle 36528" width="99.652" height="130" fill="none"/>
    </clipPath>
  </defs>
  <g id="Group_111902-2" data-name="Group 111902" clip-path="url(#clip-path)">
    <path id="Path_174226" data-name="Path 174226" d="M88.9,130H10.691a3.316,3.316,0,0,1-1.831-3.417c.042-14.97.025-29.939.025-44.909V80.091c-1.906,0-3.633,0-5.359,0-2.719-.006-3.5-.773-3.5-3.441q0-36.6-.026-73.2A3.463,3.463,0,0,1,1.8,0H97.787a3.145,3.145,0,0,1,1.865,3.262q-.043,36.809-.021,73.616c0,2.369-.834,3.194-3.212,3.21-1.811.013-3.623,0-5.6,0V81.84q0,22.34.016,44.678c0,1.583-.368,2.831-1.934,3.482M13.166,60.825h9.193c0-3.526-.021-6.951.005-10.376A14.962,14.962,0,0,1,35.1,35.752c1.345-.2,2.719-.212,4.13-.314-4.733-7.2-2.09-14.3,1.925-17.807a13.227,13.227,0,0,1,16.321-.819,12.879,12.879,0,0,1,4.982,7,13.311,13.311,0,0,1-2.146,11.729c.817,0,1.391,0,1.966,0A14.7,14.7,0,0,1,76.745,46.809a42.519,42.519,0,0,1,.542,7.934c.077,2.017.015,4.039.015,6.1h9.227V5.19H13.166ZM5.158,75H29.89c.423,0,.848-.017,1.268.022a2.6,2.6,0,0,1,2.524,2.656,2.561,2.561,0,0,1-2.411,2.488c-.535.075-1.079.085-1.672.128v44.482H70.668V80.215h-1.6q-8.568,0-17.134-.008a6.734,6.734,0,0,1-1.755-.189,2.38,2.38,0,0,1-1.719-2.942C48.795,75.6,49.729,75,51.753,75q20.561,0,41.121,0h1.565V66.122H5.158ZM72.1,60.806c0-3.411.012-6.7,0-10a9.745,9.745,0,0,0-9.86-10.063c-8.25-.069-16.5-.056-24.753,0a9.74,9.74,0,0,0-9.564,7.277,5.376,5.376,0,0,0-.253,1.365c-.02,3.79-.012,7.581-.012,11.394h5.134V59.3c0-2.75-.014-5.5.006-8.25.015-2.049,1.1-3.335,2.723-3.295,1.59.039,2.608,1.292,2.621,3.266.013,2.158,0,4.316,0,6.473v3.289h23.4c.024-.539.061-1,.062-1.455.007-2.919-.017-5.839.016-8.758a2.632,2.632,0,0,1,2.627-2.813,2.707,2.707,0,0,1,2.606,2.868c.029,1.48.008,2.962.008,4.443v5.737ZM24.174,80.18h-10.1v44.7h10.1Zm61.45,0H76.019v44.679h9.605ZM49.888,19.591a7.821,7.821,0,0,0-7.956,7.814A7.927,7.927,0,0,0,49.8,35.48,8.054,8.054,0,0,0,57.821,27.5a7.96,7.96,0,0,0-7.933-7.905M5.2,60.842H7.882V5.141H5.2Zm86.585,0h2.675V5.142H91.789Z"/>
    <path id="Path_174227" data-name="Path 174227" d="M13.166,60.825V5.19H86.529V60.843H77.3c0-2.062.061-4.084-.016-6.1a42.53,42.53,0,0,0-.541-7.934A14.7,14.7,0,0,0,62.282,35.545c-.575,0-1.15,0-1.967,0a13.31,13.31,0,0,0,2.146-11.73,12.879,12.879,0,0,0-4.981-7,13.226,13.226,0,0,0-16.321.818c-4.015,3.506-6.658,10.605-1.926,17.808-1.411.1-2.784.112-4.129.313a14.963,14.963,0,0,0-12.74,14.7c-.025,3.424,0,6.85,0,10.376Z" fill="#b4cff3"/>
    <path id="Path_174228" data-name="Path 174228" d="M5.158,75V66.122H94.439V75H92.874q-20.561,0-41.121,0c-2.024,0-2.959.6-3.294,2.075a2.382,2.382,0,0,0,1.72,2.942,6.813,6.813,0,0,0,1.754.189q8.568.02,17.134.008h1.6v44.561H29.6V80.295c.592-.043,1.137-.052,1.672-.128a2.56,2.56,0,0,0,2.41-2.488,2.6,2.6,0,0,0-2.523-2.655c-.42-.04-.846-.023-1.269-.023H5.158Zm35.861.026a2.575,2.575,0,1,0-.052,5.149,2.575,2.575,0,0,0,.052-5.149" fill="#fec15a"/>
    <path id="Path_174229" data-name="Path 174229" d="M72.1,60.806H66.862V55.068c0-1.48.021-2.962-.008-4.442a2.707,2.707,0,0,0-2.606-2.868,2.632,2.632,0,0,0-2.627,2.813c-.033,2.919-.009,5.838-.016,8.758,0,.458-.038.915-.061,1.455h-23.4c0-1.117,0-2.2,0-3.289,0-2.158.01-4.315,0-6.473-.013-1.974-1.031-3.227-2.621-3.266-1.624-.04-2.708,1.246-2.723,3.294-.02,2.751-.006,5.5-.006,8.251v1.474H27.652c0-3.813-.009-7.6.011-11.393a5.334,5.334,0,0,1,.254-1.365A9.739,9.739,0,0,1,37.48,40.74c8.251-.052,16.5-.066,24.753,0a9.744,9.744,0,0,1,9.86,10.062c.015,3.3,0,6.589,0,10" fill="#98a1b3"/>
    <path id="Path_174235" data-name="Path 174235" d="M0,0H10.1V44.7H0Z" transform="translate(14.071 80.18)" fill="#eff3f3"/>
    <path id="Path_174234" data-name="Path 174234" d="M0,0H9.605V44.679H0Z" transform="translate(76.019 80.177)" fill="#eff3f3"/>
    <path id="Path_174230" data-name="Path 174230" d="M49.888,19.591A7.962,7.962,0,0,1,57.822,27.5,8.054,8.054,0,0,1,49.8,35.48a7.927,7.927,0,0,1-7.866-8.074,7.822,7.822,0,0,1,7.956-7.815" fill="#98a1b3"/>
    <rect id="Rectangle_36526" data-name="Rectangle 36526" width="2.678" height="55.701" transform="translate(5.204 5.141)" fill="#fff"/>
    <rect id="Rectangle_36527" data-name="Rectangle 36527" width="2.675" height="55.7" transform="translate(91.789 5.142)" fill="#fff"/>
    <path id="Path_174231" data-name="Path 174231" d="M41.019,75.026a2.575,2.575,0,0,1-.052,5.149,2.575,2.575,0,1,1,.052-5.149"/>
  </g>
</svg>
