<svg id="Group_112623" data-name="Group 112623" xmlns="http://www.w3.org/2000/svg" xmlns:xlink="http://www.w3.org/1999/xlink" width="106.625" height="100" viewBox="0 0 106.625 100">
  <defs>
    <clipPath id="clip-path">
      <rect id="Rectangle_36927" data-name="Rectangle 36927" width="106.625" height="100" fill="#5c22c3"/>
    </clipPath>
  </defs>
  <g id="Group_112622" data-name="Group 112622" clip-path="url(#clip-path)">
    <path id="Path_175022" data-name="Path 175022" d="M106.625,60a16.646,16.646,0,0,1-27.359-1.021c-.494-.747-.494-.747-2.676-.574a7.472,7.472,0,0,0,.285,1.543,5.787,5.787,0,0,1-3.924,8.183C67.312,69.7,61.631,71.12,56,72.713a9.427,9.427,0,0,1-5.367,0c-5.465-1.55-10.972-2.955-16.461-4.421-4.287-1.145-5.9-4.348-4.329-8.526a6.125,6.125,0,0,0,.185-1.318,2.586,2.586,0,0,0-3.114,1.109A16.586,16.586,0,0,1,0,60V54.375a2.561,2.561,0,0,1,2.414-1.06c2.6.058,5.206.024,7.809.012a1.439,1.439,0,0,0,.877-.169c1.09-1,2.132-2.05,3.3-3.188-1.054-1.009-1.953-1.925-2.92-2.761a2.147,2.147,0,0,0-1.252-.516c-2.6-.046-5.207-.062-7.808,0A2.573,2.573,0,0,1,0,45.629V40.006a16.617,16.617,0,0,1,27.33,1.021c.41.625.882.587,1.466.664,1.467.192,2.217-.263,2.912-1.738,2.812-5.972,7.691-9.174,14.23-9.91a2.915,2.915,0,0,0,1.294-.483,6.157,6.157,0,0,1,3.583-1.214q2.5-.008,5,0a6.166,6.166,0,0,1,3.583,1.211,2.946,2.946,0,0,0,1.3.477,17.483,17.483,0,0,1,6.392,1.846c-.494.983-.955,1.9-1.427,2.844l-3.942-1.27V58.262H73.305c0-.8.008-1.584,0-2.371-.044-3.466.049-6.941-.182-10.4a12.629,12.629,0,0,0-3.853-7.987c-.117-.121-.223-.253-.391-.446l2.216-2.415a16.666,16.666,0,0,1,4.282,6.267,1.113,1.113,0,0,0,1.112.787c1.645.209,2.6-.4,3.611-1.78,6.533-8.847,19.656-8.753,26.527.084v5.623a2.584,2.584,0,0,1-2.415,1.061c-2.566-.06-5.135-.026-7.7-.013a1.622,1.622,0,0,0-.978.174c-1.091,1-2.123,2.058-3.276,3.2,1.037.993,1.934,1.91,2.9,2.748a2.151,2.151,0,0,0,1.252.516c2.6.046,5.205.062,7.806,0a2.57,2.57,0,0,1,2.414,1.06Zm-73.1-1.741H45.005V46.733H48.35v11.55h9.87a1.554,1.554,0,0,0,.082-.33c0-7.91.016-15.82,0-23.73a2.431,2.431,0,0,0-2.484-2.533c-1.664-.043-3.331-.036-4.995,0A2.447,2.447,0,0,0,48.4,33.6a5.634,5.634,0,0,0-.081,1.241c-.007,2.8,0,5.6,0,8.435h-3.36v-9.68c-5.8.874-10.858,5.7-11.356,11.4-.382,4.364-.076,8.789-.076,13.262M3.46,56.666a2.967,2.967,0,0,0,1.127,3.427A13.232,13.232,0,0,0,12.759,63.3a12.977,12.977,0,0,0,12.259-6.954,2.274,2.274,0,0,1,2.329-1.358c.851.061,1.711.012,2.66.012V45a20.346,20.346,0,0,0-2.19.014,2.766,2.766,0,0,1-2.987-1.673A13.328,13.328,0,0,0,4.465,40.008a3.016,3.016,0,0,0-1.02,3.33c2.622,0,5.221-.047,7.816.035a3.07,3.07,0,0,1,1.826.745c1.536,1.4,2.975,2.911,4.439,4.391,1.1,1.112,1.088,1.888-.035,3.02-1.392,1.4-2.818,2.777-4.184,4.207a2.876,2.876,0,0,1-2.3.946c-2.523-.046-5.048-.016-7.544-.016M76.6,55a18.841,18.841,0,0,0,2.1-.013,2.893,2.893,0,0,1,3.152,1.751A13.313,13.313,0,0,0,102.155,60a3.037,3.037,0,0,0,1.029-3.331c-2.623,0-5.222.047-7.817-.034a3.074,3.074,0,0,1-1.827-.743c-1.56-1.429-3.024-2.961-4.51-4.469-1.006-1.021-.995-1.829.03-2.867,1.414-1.432,2.866-2.828,4.256-4.283a2.875,2.875,0,0,1,2.3-.947c2.523.045,5.048.015,7.557.015.3-2,.216-2.228-1.15-3.405a13.292,13.292,0,0,0-20.37,3.626,2.373,2.373,0,0,1-2.477,1.459C78.3,44.949,77.409,45,76.6,45Zm-2.658,6.739a1.237,1.237,0,0,0-.248-.063Q53.5,61.667,33.31,61.652c-.7,0-.817.337-.8.9a2.614,2.614,0,0,0,2.2,2.431q8.982,2.4,17.973,4.77a3.166,3.166,0,0,0,1.512-.052c2.517-.64,5.021-1.33,7.53-2,3.413-.911,6.829-1.81,10.239-2.731a2.446,2.446,0,0,0,1.973-3.227" fill="#5c22c3"/>
    <path id="Path_175025" data-name="Path 175025" d="M81.222,12.7,78.167,14c-.476-1.115-.956-2.15-1.357-3.215a.986.986,0,0,0-1.233-.749c-3.577.459-7.155.913-10.742,1.268a3.33,3.33,0,0,1-2.095-.529c-3.154-2.262-6.239-4.621-9.419-7L46.322,9c-3.468,2.59-3.464,2.568-7.742,1.966-2.505-.352-5.026-.6-7.534-.937a1.006,1.006,0,0,0-1.233.755c-1.371,3.294-2.8,6.563-4.171,9.859a2.913,2.913,0,0,1-1.691,1.694c-3.263,1.356-6.493,2.791-9.764,4.127a1.119,1.119,0,0,0-.817,1.486c.122.568.148,1.155.228,1.834l-3.291.431c-.17-1.554-.4-3.048-.47-4.549-.036-.813.638-1.223,1.358-1.527,3.542-1.5,7.082-3,10.6-4.55a2.34,2.34,0,0,0,1.1-1.092c1.541-3.484,3.017-7,4.519-10.5.6-1.406,1.054-1.619,2.587-1.427,3.75.468,7.5.928,11.26,1.33a2.369,2.369,0,0,0,1.5-.427c3-2.186,5.96-4.424,8.931-6.648,1.479-1.107,1.771-1.109,3.286.024,2.889,2.16,5.788,4.307,8.656,6.5a2.532,2.532,0,0,0,2,.578c3.679-.473,7.365-.9,11.046-1.361,1.451-.182,1.937.056,2.515,1.391.671,1.55,1.33,3.106,2.029,4.742" fill="#5c22c3"/>
    <path id="Path_175026" data-name="Path 175026" d="M83.564,32.522l-2.822,1.641a31.689,31.689,0,0,0-16.7-13.907,31.3,31.3,0,0,0-21.81.079c-.391-1.052-.756-2.036-1.12-3.017,14.08-5.741,33.277-.713,42.45,15.2" fill="#5c22c3"/>
    <path id="Path_175027" data-name="Path 175027" d="M79.6,17.346l3.01-1.294a3.617,3.617,0,0,1,.33.693c.452,2.036,1.854,3,3.723,3.7,2.944,1.1,5.8,2.429,8.694,3.673,1.341.577,1.593,1.071,1.4,2.509-.159,1.16-.292,2.324-.448,3.574L93.05,29.81a16.78,16.78,0,0,1,.187-1.76,1.214,1.214,0,0,0-.888-1.633q-4.908-1.973-9.73-4.156a3.715,3.715,0,0,1-1.548-1.515,33.844,33.844,0,0,1-1.475-3.4" fill="#5c22c3"/>
    <path id="Path_175028" data-name="Path 175028" d="M25.9,34.165,23.03,32.5A35.051,35.051,0,0,1,37.561,18.772c.517,1.017.983,1.933,1.5,2.95A32.3,32.3,0,0,0,25.9,34.165" fill="#5c22c3"/>
    <path id="Path_175029" data-name="Path 175029" d="M29.094,87.708c.46.837.688,1.871,1.289,2.178.625.32,1.61-.042,2.435-.14,2.995-.353,5.984-.768,8.986-1.048a3.355,3.355,0,0,1,2.094.534c3.153,2.263,6.238,4.621,9.415,7l5.329-3.979c1.388-1.038,2.739-2.135,4.183-3.089a3.158,3.158,0,0,1,1.911-.485c3.62.369,7.233.82,10.843,1.285a1,1,0,0,0,1.231-.746c1.383-3.326,2.77-6.653,4.253-9.935A3.326,3.326,0,0,1,82.6,77.753c3.25-1.47,6.538-2.859,9.841-4.206a1.119,1.119,0,0,0,.817-1.485c-.12-.568-.148-1.156-.23-1.849l3.285-.414c.178,1.5.392,2.9.5,4.316.068.926-.568,1.41-1.366,1.748-3.508,1.487-7,3.01-10.517,4.475a2.226,2.226,0,0,0-1.305,1.331c-1.438,3.453-2.923,6.887-4.4,10.325-.6,1.4-1.068,1.629-2.584,1.438-3.681-.464-7.366-.887-11.046-1.358a2.42,2.42,0,0,0-1.908.543c-2.95,2.25-5.929,4.464-8.9,6.684-1.259.94-1.685.93-2.956-.021-3-2.245-5.982-4.509-9.009-6.714a2.522,2.522,0,0,0-1.595-.46c-3.757.4-7.508.863-11.258,1.33-1.462.182-1.947-.051-2.523-1.372-.428-.983-.843-1.971-1.317-3.081l2.973-1.275" fill="#5c22c3"/>
    <path id="Path_175030" data-name="Path 175030" d="M23.055,67.487l2.81-1.626A31.943,31.943,0,0,0,69.172,77.472l1.589,2.754C55.305,89.54,33.274,85.05,23.055,67.487" fill="#5c22c3"/>
    <path id="Path_175031" data-name="Path 175031" d="M13.559,70.2c-.022.447-.022.757-.054,1.063-.2,1.864-.2,1.867,1.482,2.587,2.988,1.28,5.97,2.576,8.972,3.82a2.853,2.853,0,0,1,1.686,1.695c.649,1.637,1.371,3.244,2.106,4.965l-3.045,1.314c-.608-1.406-1.145-2.783-1.8-4.1a2.616,2.616,0,0,0-1.168-1.151c-3.477-1.541-6.984-3.015-10.48-4.514-1.292-.554-1.575-1.061-1.4-2.412.16-1.195.306-2.391.468-3.661l3.231.394" fill="#5c22c3"/>
    <path id="Path_175032" data-name="Path 175032" d="M74.286,77.98l-1.994-2.649a32.541,32.541,0,0,0,8.414-9.49l2.879,1.64a34.708,34.708,0,0,1-9.3,10.5" fill="#5c22c3"/>
  </g>
</svg>
