<svg id="Group_113306" data-name="Group 113306" xmlns="http://www.w3.org/2000/svg" xmlns:xlink="http://www.w3.org/1999/xlink" width="51.137" height="50" viewBox="0 0 51.137 50">
  <defs>
    <clipPath id="clip-path">
      <rect id="Rectangle_37212" data-name="Rectangle 37212" width="51.137" height="50" fill="#5c22c3"/>
    </clipPath>
  </defs>
  <g id="Group_113306-2" data-name="Group 113306" clip-path="url(#clip-path)">
    <path id="Path_175292" data-name="Path 175292" d="M0,37.19V5.827C.146,5.3.252,4.76.445,4.252A6.611,6.611,0,0,1,6.876,0Q25.571,0,44.265,0c.166,0,.332,0,.5.008A6.617,6.617,0,0,1,50.9,4.868c.087.317.158.639.237.959V37.09c-.035.143-.078.284-.1.428a6.537,6.537,0,0,1-5.685,5.365c-1.35.142-2.723.072-4.086.091-.723.01-.845.121-.847.839,0,1.232.008,2.463,0,3.694a2.3,2.3,0,0,1-3.657,1.931c-.3-.2-.6-.41-.908-.615a.864.864,0,0,0-1.025-.022c-.436.275-.871.551-1.314.814a2.274,2.274,0,0,1-3.561-1.98c-.014-1.281,0-2.563,0-3.844v-.816h-.662q-5.839,0-11.679,0c-3.66,0-7.321.019-10.98-.008A6.612,6.612,0,0,1,.253,38.14c-.091-.315-.169-.633-.253-.95m42.205,1.291c.687,0,1.333,0,1.978,0a2.194,2.194,0,0,0,2.46-2.46q0-9.564,0-19.127,0-5.068,0-10.137a1.979,1.979,0,0,0-1.024-1.919A3.483,3.483,0,0,0,44.1,4.508Q25.57,4.483,7.044,4.495c-.133,0-.267,0-.4,0A2.114,2.114,0,0,0,4.5,6.7c-.007.9,0,1.8,0,2.7,0,.568-.312.921-.77.905C3.281,10.29,3,9.951,3,9.4q-.007-1.3,0-2.6A3.607,3.607,0,0,1,6.782,3q18.777-.012,37.552,0a3.612,3.612,0,0,1,3.807,3.837q0,14.632,0,29.264a3.658,3.658,0,0,1-3.883,3.877c-.712,0-1.425,0-2.136,0-.154.514-.294.986-.447,1.5.946,0,1.859.014,2.771,0a5.133,5.133,0,0,0,5.191-5.253q.01-14.757-.009-29.513A5.652,5.652,0,0,0,49.352,5a5.072,5.072,0,0,0-5.138-3.5q-14.281,0-28.564,0c-2.929,0-5.859-.007-8.788,0A5.116,5.116,0,0,0,1.5,6.87q0,14.607.006,29.214a6.347,6.347,0,0,0,.16,1.481,5.119,5.119,0,0,0,5.188,3.91q10.885.009,21.772,0c.125,0,.249-.016.4-.026l-.443-1.471h-.616q-10.487,0-20.973,0A3.678,3.678,0,0,1,3,35.964Q3,24.477,3,12.992c0-.133,0-.267,0-.4a.748.748,0,1,1,1.494.022c.007.15,0,.3,0,.45V35.985A2.2,2.2,0,0,0,6.97,38.48H28.478c.029-.179.052-.292.065-.406a6.84,6.84,0,0,1,9.924-5.433,1.581,1.581,0,0,0,.665.146c1.5.013,3,0,4.494.008.575,0,.922.295.918.755s-.351.735-.933.742c-.283,0-.566,0-.849,0H40.557a7.113,7.113,0,0,1,1.648,4.188m-1.5.325a5.354,5.354,0,1,0-5.536,5.281A5.368,5.368,0,0,0,40.7,38.806m-9.26,5.587c0,1.122-.007,2.152,0,3.182.007.84.618,1.161,1.351.719.455-.275.9-.569,1.361-.831a2.245,2.245,0,0,1,2.453.074c.31.194.611.4.91.613a.859.859,0,0,0,.974.131.9.9,0,0,0,.424-.893c0-.8,0-1.6,0-2.4a1.988,1.988,0,0,0-.062-.333,7,7,0,0,1-7.41-.267" fill="#5c22c3"/>
    <path id="Path_175293" data-name="Path 175293" d="M20.676,13.313c-.3-.786-.615-1.461-.8-2.171a2.079,2.079,0,0,1,.8-2.393,2.023,2.023,0,0,1,2.458.054c1.23-.661,2.263-.52,2.95.394a2.037,2.037,0,0,0,1.241.9A2.362,2.362,0,0,1,28.9,12a.893.893,0,0,0,.384.548A8,8,0,0,1,32.957,16.6a.6.6,0,0,0,.648.446,2.588,2.588,0,0,1,2.539,1.875A2.527,2.527,0,0,1,35.071,21.8a9.092,9.092,0,0,1-1.471.569c-.964,4.5-3.66,7.129-8.511,7.1A7.3,7.3,0,0,1,20,27.23a7.965,7.965,0,0,1-2.4-4.96c-.273-.04-.507-.054-.73-.109A2.612,2.612,0,0,1,14.9,19.4a2.582,2.582,0,0,1,2.546-2.345.728.728,0,0,0,.782-.549,7.68,7.68,0,0,1,2.45-3.193m7.746.484a2.688,2.688,0,0,1-2.383.924c-.548-.027-1.1.046-1.646-.018-.718-.083-1.423-.267-2.138-.381a.769.769,0,0,0-.522.091,5.749,5.749,0,0,0-2.426,3.6,19.307,19.307,0,0,0-.225,3.569,6.484,6.484,0,0,0,5.837,6.391,6.391,6.391,0,0,0,6.92-4.915,14.278,14.278,0,0,0,.182-4.016,6.279,6.279,0,0,0-3.6-5.242m-3.239-.544c0-.012,0-.024,0-.036h1.3c.034,0,.067,0,.1,0a.878.878,0,0,0,.831-.841.858.858,0,0,0-.759-.9,5.951,5.951,0,0,0-.745-.026c-.634-.015-.889-.238-.912-.859-.015-.375-.1-.681-.526-.7-.39-.02-.546.243-.591.6a.687.687,0,0,1-.733.664.7.7,0,0,1-.742-.661c-.055-.387-.214-.655-.63-.6-.443.065-.512.417-.476.8a2.7,2.7,0,0,0,2.152,2.438,13.646,13.646,0,0,0,1.733.126M17.574,18.57a1.091,1.091,0,0,0-1.184,1.113,1.031,1.031,0,0,0,1.184.992Zm15.994,2.118a1.056,1.056,0,0,0,1.182-1.019,1.069,1.069,0,0,0-1.182-1.086Z" fill="#5c22c3"/>
    <path id="Path_175294" data-name="Path 175294" d="M11.286,32.795c1.281,0,2.563,0,3.844,0,.579,0,.931.29.931.746s-.351.749-.928.75q-3.819,0-7.638,0c-.568,0-.915-.308-.9-.771.014-.445.346-.721.9-.723,1.265-.005,2.529,0,3.794,0" fill="#5c22c3"/>
    <path id="Path_175295" data-name="Path 175295" d="M39.847,29.781c1.248,0,2.5,0,3.743,0,.6,0,.935.26.952.715.017.478-.337.779-.947.78q-3.793.006-7.586,0c-.577,0-.929-.3-.932-.751s.346-.741.927-.743c1.281-.005,2.562,0,3.843,0" fill="#5c22c3"/>
    <path id="Path_175296" data-name="Path 175296" d="M11.337,29.781c1.264,0,2.529,0,3.793,0,.585,0,.93.285.93.741s-.355.752-.93.753q-3.794.006-7.586,0c-.612,0-.964-.3-.949-.777.015-.456.35-.716.949-.718,1.264,0,2.529,0,3.793,0" fill="#5c22c3"/>
    <path id="Path_175297" data-name="Path 175297" d="M11.284,28.257H8.693c-.133,0-.267,0-.4-.011a.731.731,0,0,1-.74-.771.7.7,0,0,1,.746-.706q3.015-.019,6.029,0a.7.7,0,0,1,.763.739.711.711,0,0,1-.77.738c-1.012.022-2.026.006-3.039.006v.006" fill="#5c22c3"/>
    <path id="Path_175298" data-name="Path 175298" d="M39.779,28.257H37.188a3.79,3.79,0,0,1-.4-.009.728.728,0,0,1-.745-.765.7.7,0,0,1,.785-.717q2.99-.017,5.98,0a.7.7,0,0,1,.772.731.713.713,0,0,1-.763.746c-1.012.022-2.026.007-3.039.007v.006" fill="#5c22c3"/>
    <path id="Path_175299" data-name="Path 175299" d="M12.984,6.408c.881,0,1.761-.005,2.642,0,.569,0,.868.263.872.73s-.307.759-.855.762q-2.716.013-5.433,0a.784.784,0,0,1-.885-.745c-.006-.461.334-.744.918-.748.913-.005,1.827,0,2.741,0" fill="#5c22c3"/>
    <path id="Path_175300" data-name="Path 175300" d="M38.215,6.408c.9,0,1.794,0,2.692,0,.562,0,.884.264.9.71s-.334.781-.9.784q-2.691.01-5.383,0c-.582,0-.9-.3-.893-.775.01-.462.312-.715.884-.718.9-.006,1.8,0,2.692,0" fill="#5c22c3"/>
    <path id="Path_175301" data-name="Path 175301" d="M12.884,10.846c-.881,0-1.761.005-2.642,0-.581,0-.922-.291-.916-.75s.354-.742.935-.744q2.667-.008,5.333,0c.59,0,.909.285.9.762s-.312.728-.923.732c-.9.005-1.794,0-2.691,0" fill="#5c22c3"/>
    <path id="Path_175302" data-name="Path 175302" d="M38.219,10.846c-.9,0-1.794.005-2.691,0-.578-.005-.876-.253-.889-.716-.014-.478.307-.774.889-.777q2.691-.01,5.382,0c.566,0,.917.321.9.778s-.34.711-.9.715c-.9.007-1.794,0-2.691,0" fill="#5c22c3"/>
    <path id="Path_175303" data-name="Path 175303" d="M31.127,38.776a4.119,4.119,0,0,1,2.456-3.844,3.963,3.963,0,0,1,4.441.571,4.061,4.061,0,0,1,1.42,4.255c-.148.689-.8.946-1.261.523a.908.908,0,0,1-.176-.971,2.716,2.716,0,1,0-5.015.789,2.737,2.737,0,0,0,3.134,1.258c.112-.032.22-.079.332-.109a.743.743,0,0,1,.457,1.414,4,4,0,0,1-3.249-.059,4.155,4.155,0,0,1-2.539-3.827" fill="#5c22c3"/>
    <path id="Path_175304" data-name="Path 175304" d="M25.556,23.39a4.472,4.472,0,0,1-3-1.2.765.765,0,0,1-.165-1.1.751.751,0,0,1,1.144-.024,2.913,2.913,0,0,0,4.064,0,.753.753,0,0,1,1.145.022.771.771,0,0,1-.161,1.106,4.482,4.482,0,0,1-3.028,1.2" fill="#5c22c3"/>
    <path id="Path_175305" data-name="Path 175305" d="M24.045,18.259a6.165,6.165,0,0,1-.006.793.718.718,0,0,1-.8.652.7.7,0,0,1-.675-.724c-.015-.479-.015-.96,0-1.439a.694.694,0,0,1,.674-.723.714.714,0,0,1,.8.648,6.165,6.165,0,0,1,.006.793" fill="#5c22c3"/>
    <path id="Path_175306" data-name="Path 175306" d="M28.573,18.308c0,.232.015.465,0,.695a.691.691,0,0,1-.7.7.669.669,0,0,1-.764-.624,8.5,8.5,0,0,1,0-1.634.667.667,0,0,1,.762-.625.687.687,0,0,1,.7.695c.021.263,0,.529,0,.794" fill="#5c22c3"/>
  </g>
</svg>
