<svg id="Group_111530" data-name="Group 111530" xmlns="http://www.w3.org/2000/svg" xmlns:xlink="http://www.w3.org/1999/xlink" width="87.989" height="88" viewBox="0 0 87.989 88">
  <defs>
    <clipPath id="clip-path">
      <rect id="Rectangle_35864" data-name="Rectangle 35864" width="87.989" height="88" fill="none"/>
    </clipPath>
  </defs>
  <g id="Group_111529" data-name="Group 111529" clip-path="url(#clip-path)">
    <path id="Path_172368" data-name="Path 172368" d="M0,44Q0,63.431,0,82.861,0,88,5.1,88H82.9c3.362,0,5.088-1.716,5.088-5.06q0-38.95,0-77.9C87.989,1.721,86.278,0,82.981,0H5C1.749,0,0,1.734,0,4.96Q0,24.481,0,44" transform="translate(0 0)" fill="#fff"/>
    <path id="Path_172369" data-name="Path 172369" d="M0,44Q0,24.481,0,4.96C0,1.734,1.748,0,5,0H82.98c3.3,0,5.009,1.721,5.009,5.038q0,38.951,0,77.9c0,3.344-1.725,5.06-5.088,5.06H5.1Q0,88,0,82.861,0,63.432,0,44m85.056-23.41H2.934V82.784c0,1.939.346,2.283,2.294,2.283H82.755c1.957,0,2.3-.34,2.3-2.275v-62.2Zm0-3.034c0-4.282,0-8.465,0-12.647,0-1.531-.438-1.976-1.946-1.976q-39.125,0-78.25,0c-1.461,0-1.923.456-1.924,1.906q-.006,5.957,0,11.913c0,.263.034.526.054.8Z" transform="translate(0 -0.001)"/>
    <path id="Path_172370" data-name="Path 172370" d="M94.127,84.267v1.069q0,30.566,0,61.132c0,1.935-.344,2.274-2.3,2.274H14.3c-1.948,0-2.293-.344-2.293-2.283q0-30.52,0-61.04V84.267ZM52.97,131.142H86.136c1.695,0,2.126-.424,2.126-2.091q0-18.418,0-36.836c0-1.739-.4-2.139-2.164-2.139H20.04c-1.766,0-2.17.4-2.17,2.131q0,18.372,0,36.744c0,1.8.394,2.191,2.208,2.191H52.97m10.266,8.8h22.8a9.139,9.139,0,0,0,.915-.013,1.46,1.46,0,0,0-.033-2.909c-.273-.025-.549-.011-.824-.011H40.583a6.665,6.665,0,0,0-.914.022,1.419,1.419,0,0,0-1.275,1.607c.079.893.653,1.3,1.856,1.3q11.493,0,22.986,0m-30.7,0c0,.581-.02,1.037,0,1.491a1.387,1.387,0,0,0,1.434,1.451,1.352,1.352,0,0,0,1.475-1.4q.051-2.977,0-5.955a1.41,1.41,0,0,0-1.447-1.456,1.436,1.436,0,0,0-1.462,1.444c-.03.476-.005.955-.005,1.494H31.432c-4,0-8-.006-12,.005-1.044,0-1.608.543-1.609,1.461s.564,1.456,1.606,1.462c2.321.015,4.642,0,6.963.005h6.148" transform="translate(-9.071 -63.676)" fill="#ba68c8"/>
    <path id="Path_172371" data-name="Path 172371" d="M94.125,26.628H12.059c-.02-.278-.054-.541-.054-.8Q12,19.868,12,13.911c0-1.45.463-1.906,1.925-1.906q39.125,0,78.25,0c1.508,0,1.945.445,1.946,1.976,0,4.182,0,8.365,0,12.647M75.06,14.938q-7.147,0-14.293,0c-1.312,0-1.829.52-1.835,1.829-.008,1.741-.012,3.482,0,5.223a1.517,1.517,0,0,0,1.746,1.736q14.385.01,28.769,0c1.194,0,1.731-.547,1.74-1.742.013-1.68.006-3.36,0-5.04,0-1.555-.457-2.007-2.022-2.008q-7.055,0-14.11,0M23.733,19.315a4.4,4.4,0,1,0-4.427,4.413,4.431,4.431,0,0,0,4.427-4.413m19.074-4.376A4.395,4.395,0,1,0,47.194,19.3a4.43,4.43,0,0,0-4.387-4.356m-11.78,0a4.395,4.395,0,1,0,4.434,4.4,4.425,4.425,0,0,0-4.434-4.4" transform="translate(-9.069 -9.071)" fill="#fff505"/>
    <path id="Path_172372" data-name="Path 172372" d="M71.106,149.1H38.215c-1.814,0-2.208-.391-2.208-2.191q0-18.372,0-36.744c0-1.735.4-2.131,2.17-2.132h66.058c1.759,0,2.164.4,2.164,2.139q0,18.418,0,36.836c0,1.667-.431,2.091-2.126,2.091H71.106M103.4,111.043H38.988v35.087H103.4Z" transform="translate(-27.208 -81.638)"/>
    <path id="Path_172373" data-name="Path 172373" d="M144.817,303.028q-11.493,0-22.986,0c-1.2,0-1.777-.41-1.856-1.3a1.419,1.419,0,0,1,1.275-1.607,6.666,6.666,0,0,1,.914-.022h45.515c.275,0,.551-.014.824.011a1.46,1.46,0,0,1,.033,2.909c-.3.031-.61.013-.915.013h-22.8" transform="translate(-90.653 -226.762)"/>
    <path id="Path_172374" data-name="Path 172374" d="M50.527,293.954H44.379c-2.321,0-4.642.01-6.963-.005-1.042-.007-1.607-.544-1.606-1.462s.565-1.458,1.609-1.461c4-.011,8,0,12-.005h1.107c0-.539-.024-1.018.005-1.494A1.436,1.436,0,0,1,52,288.082a1.41,1.41,0,0,1,1.447,1.456q.047,2.977,0,5.955a1.352,1.352,0,0,1-1.475,1.4,1.387,1.387,0,0,1-1.434-1.451c-.024-.454,0-.91,0-1.491" transform="translate(-27.06 -217.687)"/>
    <path id="Path_172375" data-name="Path 172375" d="M220.164,24.006q7.055,0,14.11,0c1.565,0,2.019.452,2.022,2.007,0,1.68.01,3.36,0,5.04-.009,1.194-.546,1.741-1.74,1.742q-14.385.01-28.769,0a1.517,1.517,0,0,1-1.746-1.736c-.013-1.741-.009-3.482,0-5.223.006-1.309.523-1.827,1.835-1.829q7.146-.008,14.293,0m-13.148,5.813H233.3V26.978H207.016Z" transform="translate(-154.173 -18.14)"/>
    <path id="Path_172376" data-name="Path 172376" d="M32.818,28.39a4.4,4.4,0,1,1-4.368-4.376,4.439,4.439,0,0,1,4.368,4.376M29.88,28.4a1.46,1.46,0,1,0-1.426,1.474A1.449,1.449,0,0,0,29.88,28.4" transform="translate(-18.154 -18.146)"/>
    <path id="Path_172377" data-name="Path 172377" d="M124.44,24.014a4.395,4.395,0,1,1-4.407,4.337,4.426,4.426,0,0,1,4.407-4.337m.027,5.859a1.46,1.46,0,1,0-1.5-1.4,1.457,1.457,0,0,0,1.5,1.4" transform="translate(-90.702 -18.146)"/>
    <path id="Path_172378" data-name="Path 172378" d="M76.4,24.014A4.395,4.395,0,1,1,72.043,28.4,4.426,4.426,0,0,1,76.4,24.014m1.5,4.42a1.46,1.46,0,1,0-1.461,1.439,1.449,1.449,0,0,0,1.461-1.439" transform="translate(-54.439 -18.146)"/>
    <path id="Path_172379" data-name="Path 172379" d="M112.621,155.424H48.208V120.337h64.413ZM73.09,137.766c0,2.349.011,4.7-.007,7.046a1.663,1.663,0,0,0,.754,1.645,1.609,1.609,0,0,0,1.8-.2c3.665-2.3,7.339-4.586,11-6.889,1.5-.945,1.505-2.071.011-3.01q-5.5-3.453-11-6.887a1.621,1.621,0,0,0-1.8-.211,1.654,1.654,0,0,0-.763,1.641c.015,2.288.006,4.575.006,6.863" transform="translate(-36.428 -90.932)" fill="#fff"/>
    <rect id="Rectangle_35863" data-name="Rectangle 35863" width="26.282" height="2.842" transform="translate(52.843 8.838)" fill="#fff"/>
    <path id="Path_172380" data-name="Path 172380" d="M38.962,37.487a1.46,1.46,0,1,1-2.919-.021,1.46,1.46,0,0,1,2.919.021" transform="translate(-27.235 -27.235)" fill="#ba68c8"/>
    <path id="Path_172381" data-name="Path 172381" d="M133.547,38.962a1.46,1.46,0,1,1-.03-2.92,1.46,1.46,0,0,1,.03,2.92" transform="translate(-99.782 -27.235)" fill="#ba68c8"/>
    <path id="Path_172382" data-name="Path 172382" d="M86.949,37.521a1.46,1.46,0,1,1-1.414-1.481,1.458,1.458,0,0,1,1.414,1.481" transform="translate(-63.496 -27.233)" fill="#ba68c8"/>
    <path id="Path_172383" data-name="Path 172383" d="M150.012,164.774c0-2.288.009-4.575-.006-6.863a1.655,1.655,0,0,1,.763-1.641,1.621,1.621,0,0,1,1.8.211q5.5,3.449,11,6.887c1.494.939,1.491,2.065-.011,3.01-3.663,2.3-7.337,4.589-11,6.89a1.609,1.609,0,0,1-1.8.2,1.662,1.662,0,0,1-.754-1.645c.018-2.349.007-4.7.007-7.046m2.979,4.766,7.463-4.667-7.463-4.664Z" transform="translate(-113.35 -117.94)"/>
    <path id="Path_172384" data-name="Path 172384" d="M162.224,182.312v-9.331l7.463,4.664-7.463,4.667" transform="translate(-122.583 -130.712)" fill="#fff505"/>
  </g>
</svg>
