<svg id="Group_113333" data-name="Group 113333" xmlns="http://www.w3.org/2000/svg" xmlns:xlink="http://www.w3.org/1999/xlink" width="61.67" height="50" viewBox="0 0 61.67 50">
  <defs>
    <clipPath id="clip-path">
      <rect id="Rectangle_36672" data-name="Rectangle 36672" width="61.67" height="50" fill="#5c22c3"/>
    </clipPath>
  </defs>
  <g id="Group_112009" data-name="Group 112009" clip-path="url(#clip-path)">
    <path id="Path_174336" data-name="Path 174336" d="M61.67,41.275a2.841,2.841,0,0,1-3.217,2.013c-.618-.038-1.239-.006-1.97-.006l.988,2.112c.11.236.239.465.331.708A1.064,1.064,0,0,1,56.627,47.6c-.616-.079-1.233-.167-1.839-.3a.724.724,0,0,0-.955.437c-.214.451-.514.86-.768,1.291-.289.49-.565,1-1.247.976-.718-.026-.937-.594-1.189-1.123-.705-1.482-1.412-2.964-2.154-4.522-.143.276-.257.483-.359.695-.641,1.337-1.285,2.673-1.914,4.015-.222.474-.473.9-1.064.933-.62.036-.928-.373-1.2-.845s-.614-.944-.862-1.446a.7.7,0,0,0-.908-.413,8.913,8.913,0,0,1-1.78.267,1.86,1.86,0,0,1-1.117-.372.967.967,0,0,1-.1-1.225c.326-.688.657-1.374.983-2.062.082-.173.156-.351.273-.617h-.873q-18.242,0-36.484-.01a4.331,4.331,0,0,1-1.586-.25A2.342,2.342,0,0,1,.022,40.975a4.828,4.828,0,0,1-.016-.541Q.005,21.65,0,2.866A2.481,2.481,0,0,1,1.119.488,3.933,3.933,0,0,1,2.882.032C4.727-.025,6.574.011,8.42.011q25.106,0,50.211,0a2.8,2.8,0,0,1,2.546,1.058,7.832,7.832,0,0,1,.492.947Zm-6.495-.79c.364.984.364.984,1.353.984q1.053,0,2.107,0c1.074,0,1.228-.153,1.228-1.208q0-18.6,0-37.207c0-1.077-.146-1.228-1.205-1.228H3.028c-1.069,0-1.216.149-1.216,1.218q0,18.6,0,37.207c0,.181-.06.4.022.533a1.759,1.759,0,0,0,.606.636,1.789,1.789,0,0,0,.77.049H40.478c.957,0,.957,0,1.244-1a3.386,3.386,0,0,1-1.89-3.346,2.286,2.286,0,0,0-.365-1.059,3.319,3.319,0,0,1-.007-3.326,3.487,3.487,0,0,0,.38-1.418,3.347,3.347,0,0,1,1.628-2.842,3.588,3.588,0,0,0,1.043-1.032,3.444,3.444,0,0,1,2.883-1.679,4.036,4.036,0,0,0,1.47-.406,3.437,3.437,0,0,1,3.175-.012,4.391,4.391,0,0,0,1.527.418A3.451,3.451,0,0,1,54.4,27.427a3.562,3.562,0,0,0,1.035,1.038A3.421,3.421,0,0,1,57.1,31.356a3.375,3.375,0,0,0,.356,1.359,3.316,3.316,0,0,1-.013,3.381,2.021,2.021,0,0,0-.333.942,3.466,3.466,0,0,1-1.932,3.447M48.407,42.1a3.99,3.99,0,0,0,.824-.286,3.844,3.844,0,0,1,2.225-.605,1.444,1.444,0,0,0,1.42-.828,3.676,3.676,0,0,1,1.592-1.585,1.434,1.434,0,0,0,.806-1.432,3.468,3.468,0,0,1,.561-2.111,1.67,1.67,0,0,0,.019-1.7A7.325,7.325,0,0,1,55.3,31.5a2.028,2.028,0,0,0-.875-1.54,7.184,7.184,0,0,1-1.5-1.5,1.726,1.726,0,0,0-1.532-.871,3.593,3.593,0,0,1-2.11-.574,1.443,1.443,0,0,0-1.643,0,3.543,3.543,0,0,1-2.11.57,1.515,1.515,0,0,0-1.511.89,3.423,3.423,0,0,1-1.511,1.5,1.671,1.671,0,0,0-.867,1.466A6.815,6.815,0,0,1,41.1,33.5a2.01,2.01,0,0,0,0,1.822,6.36,6.36,0,0,1,.538,1.989,1.981,1.981,0,0,0,.86,1.543,7.366,7.366,0,0,1,1.5,1.5,2.013,2.013,0,0,0,1.6.882,10.017,10.017,0,0,1,1.942.509,9.254,9.254,0,0,1,.872.358m-3.414,5.289,1.9-3.971a3.429,3.429,0,0,0-.909-.346,4.063,4.063,0,0,1-2.94-1.017L41.36,45.592c.517-.082.926-.138,1.332-.213a1.284,1.284,0,0,1,1.5.7c.228.419.5.815.8,1.3m5.025-4,1.917,4.007c.317-.518.587-.935.832-1.367a1.206,1.206,0,0,1,1.356-.654c.45.072.9.138,1.441.22l-1.687-3.532a3.814,3.814,0,0,1-2.744.988,4.723,4.723,0,0,0-1.114.338" transform="translate(0 0)" fill="#5c22c3"/>
    <path id="Path_174337" data-name="Path 174337" d="M79.967,36.2c-2.8-.868-3.512-1.552-4.486-4.283H34.843a5.294,5.294,0,0,1-4.223,4.208V58.23a5.3,5.3,0,0,1,4.224,4.247h.707q12.4,0,24.81,0a3,3,0,0,1,.774.064.811.811,0,0,1,.642.9.839.839,0,0,1-.744.821,3.168,3.168,0,0,1-.6.023H34.658c-1.135,0-1.4-.222-1.6-1.338a3.374,3.374,0,0,0-2.924-2.927c-1.131-.2-1.353-.475-1.353-1.654q0-11.2,0-22.4c0-1.162.224-1.427,1.375-1.636a3.365,3.365,0,0,0,2.894-2.886c.212-1.163.463-1.377,1.63-1.377H75.689c1.136,0,1.434.262,1.611,1.4a3.332,3.332,0,0,0,2.9,2.862c1.4.207,1.571.4,1.571,1.808q0,7.407,0,14.814a3.508,3.508,0,0,1-.023.66A.889.889,0,0,1,80,51.639a3.22,3.22,0,0,1-.029-.66q0-7.045,0-14.091Z" transform="translate(-24.439 -25.531)" fill="#5c22c3"/>
    <path id="Path_174338" data-name="Path 174338" d="M100.616,72.706H83.7c-.2,0-.4.008-.6-.007a.85.85,0,0,1-.879-.815.861.861,0,0,1,.791-.961,3.735,3.735,0,0,1,.6-.023h34.082c.973,0,1.406.289,1.4.925-.01.614-.422.881-1.367.881h-17.1" transform="translate(-69.809 -60.204)" fill="#5c22c3"/>
    <path id="Path_174339" data-name="Path 174339" d="M100.66,136.229h16.981a4.662,4.662,0,0,1,.661.017.883.883,0,0,1,.088,1.744,2.54,2.54,0,0,1-.6.044q-17.131,0-34.262,0a2.565,2.565,0,0,1-.6-.043.883.883,0,0,1,.085-1.744,4.6,4.6,0,0,1,.661-.017H100.66" transform="translate(-69.823 -115.677)" fill="#5c22c3"/>
    <path id="Path_174340" data-name="Path 174340" d="M155.282,103.377h12.581a4.432,4.432,0,0,1,.6.015.832.832,0,0,1,.8.828.82.82,0,0,1-.7.913,2.527,2.527,0,0,1-.6.048q-12.671,0-25.342,0a2.449,2.449,0,0,1-.711-.081.726.726,0,0,1-.574-.915,1.794,1.794,0,0,1,.71-.769c.152-.106.429-.038.649-.038h12.581" transform="translate(-119.991 -87.766)" fill="#5c22c3"/>
    <path id="Path_174341" data-name="Path 174341" d="M165.417,178.553h5.532c.16,0,.322-.007.481.007a.892.892,0,0,1,.029,1.783c-.6.038-1.2.017-1.8.017h-9.8a4.515,4.515,0,0,1-.541-.012.915.915,0,0,1-.864-.911.889.889,0,0,1,.895-.875c.339-.023.681-.009,1.022-.009h5.051" transform="translate(-134.549 -151.616)" fill="#5c22c3"/>
    <path id="Path_174342" data-name="Path 174342" d="M85.448,103.477c.741,0,1.482-.01,2.223,0a.919.919,0,0,1,1.028.864.93.93,0,0,1-1.033.932q-2.222.025-4.445,0c-.658-.008-1.031-.383-1.014-.937.017-.528.384-.849,1.019-.859.741-.012,1.482,0,2.223,0" transform="translate(-69.806 -87.866)" fill="#5c22c3"/>
    <path id="Path_174343" data-name="Path 174343" d="M294.814,196.481a5.606,5.606,0,1,1-5.607-5.637,5.629,5.629,0,0,1,5.607,5.637m-1.807-.033a3.815,3.815,0,0,0-3.787-3.8,3.8,3.8,0,1,0,.024,7.607,3.8,3.8,0,0,0,3.763-3.81" transform="translate(-240.822 -162.056)" fill="#5c22c3"/>
  </g>
</svg>
