<svg id="Group_113331" data-name="Group 113331" xmlns="http://www.w3.org/2000/svg" xmlns:xlink="http://www.w3.org/1999/xlink" width="50" height="50" viewBox="0 0 50 50">
  <defs>
    <clipPath id="clip-path">
      <rect id="Rectangle_36667" data-name="Rectangle 36667" width="50" height="50" fill="#5c22c3"/>
    </clipPath>
  </defs>
  <g id="Group_112000" data-name="Group 112000" clip-path="url(#clip-path)">
    <path id="Path_174303" data-name="Path 174303" d="M46.387,50H11.914a.309.309,0,0,0-.081-.052A4.206,4.206,0,0,1,8.318,45.38c0-2.388.008-4.776-.013-7.164a1.127,1.127,0,0,0-.3-.71c-2-2.024-4-4.045-6.032-6.03A5.982,5.982,0,0,1,0,28.32V27.148a6.34,6.34,0,0,1,2.036-3.175q11.022-10.984,22-22.01A6.048,6.048,0,0,1,27.149,0H28.32a5.382,5.382,0,0,1,2.77,1.613c1.222,1.283,2.5,2.516,3.751,3.769q5.226,5.229,10.451,10.459a4.146,4.146,0,0,1,.986,4.707,3.068,3.068,0,0,0-.082.305,4.188,4.188,0,0,1,3.58,2.823c.09.24.15.492.224.738V46.387c-.038.138-.077.276-.114.415A4.148,4.148,0,0,1,47.4,49.684,10.006,10.006,0,0,1,46.387,50M29.155,48.336q8.2,0,16.4,0a2.536,2.536,0,0,0,2.779-2.791q0-10.129,0-20.259a2.537,2.537,0,0,0-2.78-2.792q-16.377,0-32.755,0a2.545,2.545,0,0,0-2.807,2.818q0,10.105,0,20.21A2.544,2.544,0,0,0,12.8,48.336q8.177,0,16.353,0M20.648,20.808c.091.006.171.016.252.016q11.418,0,22.836-.011a.931.931,0,0,0,.613-.284,2.483,2.483,0,0,0-.165-3.437q-4.923-4.945-9.865-9.872c-.031-.031-.077-.047-.042-.026L20.648,20.808m8.89-18.354a2.536,2.536,0,0,0-3.681.062Q14.17,14.2,2.493,25.889a3.182,3.182,0,0,0-.481.611,2.333,2.333,0,0,0,.419,2.961c2.1-2.1,4.216-4.2,6.311-6.318.454-.458.832-.99,1.28-1.454.256-.266.61-.435.871-.7q9.122-9.1,18.231-18.221a4.047,4.047,0,0,1,.414-.318M13.563,20.825c1.371,0,2.72-.01,4.069.007a1.08,1.08,0,0,0,.855-.344q7.095-7.124,14.207-14.229c.109-.109.208-.228.227-.249-.8-.8-1.566-1.565-2.269-2.269L13.563,20.825M5.968,33.013c.687-.693,1.4-1.385,2.073-2.11a1.113,1.113,0,0,0,.272-.674c.028-1.09.012-2.181.012-3.271v-.9L3.664,30.712l2.3,2.3m2.306,2.366V33.136L7.139,34.213l1.135,1.166" fill="#5c22c3"/>
    <path id="Path_174304" data-name="Path 174304" d="M15.846,31.658c-.813,0-1.626.008-2.439,0a1.63,1.63,0,0,1-1.736-1.7c-.024-1.089-.027-2.18,0-3.269A1.638,1.638,0,0,1,13.43,25q2.415-.01,4.83,0A1.658,1.658,0,0,1,20,26.709c.019,1.09.021,2.18,0,3.269a1.643,1.643,0,0,1-1.715,1.677c-.813.012-1.627,0-2.44,0m-2.479-1.7H18.3v-3.27H13.367Z" fill="#5c22c3"/>
    <path id="Path_174305" data-name="Path 174305" d="M27.483,40.005c-.521,0-1.042.013-1.562,0A.847.847,0,0,1,25,39.139a.831.831,0,0,1,.924-.8q1.562-.018,3.124,0c.6.007.938.323.935.829s-.348.816-.942.832c-.52.015-1.041,0-1.562,0" fill="#5c22c3"/>
    <path id="Path_174306" data-name="Path 174306" d="M20.879,38.339c.521,0,1.042-.013,1.562,0a.827.827,0,1,1,.033,1.652q-1.635.033-3.271,0a.827.827,0,1,1,.016-1.653c.553-.018,1.107,0,1.66,0" fill="#5c22c3"/>
    <path id="Path_174307" data-name="Path 174307" d="M20.844,41.677c.535,0,1.07-.011,1.6,0a.827.827,0,1,1,.029,1.652q-1.651.033-3.306,0a.8.8,0,0,1-.824-.839.79.79,0,0,1,.843-.81c.55-.016,1.1,0,1.653,0" fill="#5c22c3"/>
    <path id="Path_174308" data-name="Path 174308" d="M14.177,41.677c.537,0,1.074-.01,1.611,0a.828.828,0,1,1,.005,1.654c-1.09.019-2.181.021-3.271,0a.828.828,0,1,1,.044-1.653c.537-.012,1.074,0,1.611,0" fill="#5c22c3"/>
    <path id="Path_174309" data-name="Path 174309" d="M14.192,38.338c.521,0,1.042-.012,1.562,0a.84.84,0,0,1,.911.814.831.831,0,0,1-.887.843q-1.611.028-3.221,0a.831.831,0,1,1,.024-1.657c.537-.015,1.074,0,1.611,0" fill="#5c22c3"/>
    <path id="Path_174310" data-name="Path 174310" d="M13.324,35c0,.292.022.586-.006.876a.792.792,0,0,1-.832.776.774.774,0,0,1-.8-.754,16.15,16.15,0,0,1,0-1.8.8.8,0,0,1,.8-.762.822.822,0,0,1,.832.789c.026.29.005.584,0,.876" fill="#5c22c3"/>
    <path id="Path_174311" data-name="Path 174311" d="M25,34.953c0-.276-.017-.554,0-.829a.833.833,0,0,1,.834-.79.821.821,0,0,1,.813.809c.021.568.021,1.138,0,1.706a.794.794,0,0,1-.808.8A.812.812,0,0,1,25,35.831c-.016-.292,0-.585,0-.878h0" fill="#5c22c3"/>
    <path id="Path_174312" data-name="Path 174312" d="M18.348,34.992c0-.292-.016-.586,0-.877a.813.813,0,0,1,.786-.779.779.779,0,0,1,.83.673,12.861,12.861,0,0,1,0,1.992.755.755,0,0,1-.888.645.787.787,0,0,1-.729-.777c0-.032,0-.065,0-.1v-.78h0" fill="#5c22c3"/>
    <path id="Path_174313" data-name="Path 174313" d="M21.676,35c0-.293-.015-.586,0-.877a.823.823,0,0,1,.78-.79.815.815,0,0,1,.862.757,16.682,16.682,0,0,1,0,1.8.789.789,0,0,1-.853.755.8.8,0,0,1-.791-.819c-.014-.276,0-.553,0-.829h0" fill="#5c22c3"/>
    <path id="Path_174314" data-name="Path 174314" d="M33.314,35c0,.309.023.62-.006.926a.745.745,0,0,1-.725.721.728.728,0,0,1-.864-.6,12.49,12.49,0,0,1,0-2.083.736.736,0,0,1,.863-.611.778.778,0,0,1,.732.776c.016.292,0,.585,0,.876h0" fill="#5c22c3"/>
    <path id="Path_174315" data-name="Path 174315" d="M15.017,34.979c0-.292-.017-.586,0-.876a.777.777,0,0,1,.749-.761.742.742,0,0,1,.848.633,12.25,12.25,0,0,1,0,2.036.719.719,0,0,1-.841.637.77.77,0,0,1-.757-.744c-.024-.307,0-.617-.005-.925" fill="#5c22c3"/>
    <path id="Path_174316" data-name="Path 174316" d="M41.684,34.978c0-.292-.017-.586,0-.877a.777.777,0,0,1,.75-.759.745.745,0,0,1,.849.635,11.934,11.934,0,0,1,0,2.036.723.723,0,0,1-.844.636.772.772,0,0,1-.756-.746c-.023-.307-.005-.616-.005-.925" fill="#5c22c3"/>
    <path id="Path_174317" data-name="Path 174317" d="M36.644,35.025a8.37,8.37,0,0,1-.008.924.743.743,0,0,1-.746.7.735.735,0,0,1-.845-.634,13.319,13.319,0,0,1,0-2.037c.033-.426.383-.625.8-.638a.778.778,0,0,1,.791.713c.032.321.006.649.006.973" fill="#5c22c3"/>
    <path id="Path_174318" data-name="Path 174318" d="M38.35,34.966c0-.292-.02-.586.005-.876a.778.778,0,0,1,.76-.75.748.748,0,0,1,.839.647,13.727,13.727,0,0,1,0,2.038.729.729,0,0,1-.852.622.745.745,0,0,1-.738-.708c-.032-.321-.006-.648-.006-.973h0" fill="#5c22c3"/>
  </g>
</svg>
