<svg id="Group_112629" data-name="Group 112629" xmlns="http://www.w3.org/2000/svg" xmlns:xlink="http://www.w3.org/1999/xlink" width="87.841" height="88" viewBox="0 0 87.841 88">
  <defs>
    <clipPath id="clip-path">
      <rect id="Rectangle_36929" data-name="Rectangle 36929" width="87.84" height="88" fill="none"/>
    </clipPath>
  </defs>
  <g id="Group_112628" data-name="Group 112628" clip-path="url(#clip-path)">
    <path id="Path_175035" data-name="Path 175035" d="M39.724,96.643H20.3a1.647,1.647,0,0,0,.916-1.6c-.017-8.594,0-17.187-.02-25.78a11.49,11.49,0,0,0-3.992-8.8c-1.189-1.077-2.412-2.116-3.615-3.176a5.983,5.983,0,0,1-2.257-4.466c-.057-3.665-.041-7.332-.028-11a2.931,2.931,0,0,1,1.4-2.524,3.026,3.026,0,0,1,3.259-.177A3.148,3.148,0,0,1,17.7,42.074c.012,2.779,0,5.557.008,8.336a3.711,3.711,0,0,0,3.61,3.914,2.783,2.783,0,0,1,2.9,2.78c.132.882.643,1.329,1.425,1.245A1.306,1.306,0,0,0,26.765,56.8a5.348,5.348,0,0,0-4.971-5.028c-1.2-.083-1.511-.406-1.513-1.591,0-2.693.009-5.385-.006-8.078a5.633,5.633,0,0,0-2.541-4.894,1.3,1.3,0,0,1-.651-1.247c.018-5.557.009-11.114.016-16.671a5.7,5.7,0,0,1,.118-1.278,2.646,2.646,0,0,1,2.631-2.044c1.563.043,2.568,1.21,2.569,3.025q.008,11.773,0,23.546c0,1.367.436,2.024,1.322,2.006C24.6,44.525,25,43.91,25,42.574q0-13.449,0-26.9c0-.6-.02-1.2.011-1.8a2.6,2.6,0,0,1,1.7-2.462c1.8-.723,3.6.63,3.608,2.751.02,5.041.01,10.083,0,15.125a2.232,2.232,0,0,1-.189.906,24.936,24.936,0,0,0-2.269,13.035,22.82,22.82,0,0,0,1.938,7.436,1.725,1.725,0,0,0,1.158.82,1.289,1.289,0,0,0,1.086-.608,2.3,2.3,0,0,0-.063-1.533,22.938,22.938,0,0,1-1.38-12.049A22.3,22.3,0,1,1,53.343,63.121a22.023,22.023,0,0,1-18.017-8.209c-.727-.863-1.49-1.037-2.121-.483-.6.531-.561,1.264.131,2.114a24.561,24.561,0,0,0,7.644,6.285c.241.127.467.283.78.474-2.6,3.23-2.883,6.974-2.841,10.853.074,6.845.029,13.692.01,20.538a2.163,2.163,0,0,0,.795,1.949M52.609,58.189v0c1.2,0,2.406.03,3.607-.006a3.887,3.887,0,0,0,3.971-4.053c.013-1.317,0-2.634,0-3.95.007-1.282.475-1.761,1.765-1.776,1.345-.016,2.691.016,4.036-.01a3.886,3.886,0,0,0,3.985-4.04q.025-3.521,0-7.042a3.942,3.942,0,0,0-4.064-4.069c-1.345-.018-2.691,0-4.037-.006-1.189-.009-1.674-.485-1.685-1.659-.012-1.374.011-2.748-.008-4.122a3.909,3.909,0,0,0-3.957-3.994q-3.606-.054-7.214,0a3.912,3.912,0,0,0-3.968,3.984c-.019,1.4.008,2.805-.009,4.208a1.4,1.4,0,0,1-1.587,1.583c-1.345.016-2.691,0-4.037.007a3.947,3.947,0,0,0-4.161,4.145q-.016,3.435,0,6.87A3.907,3.907,0,0,0,39.4,48.4c1.288.013,2.577-.008,3.865.006s1.77.49,1.777,1.765c.008,1.345-.011,2.691.006,4.036a3.867,3.867,0,0,0,3.872,3.973c1.229.044,2.462.008,3.693.008" transform="translate(-8.704 -8.643)" fill="#ba68c8"/>
    <path id="Path_175036" data-name="Path 175036" d="M239.473,81.411c.008.989.674,1.635,1.475,1.46.854-.186,1.1-.814,1.094-1.612-.008-3.208.008-6.416-.008-9.624a13.455,13.455,0,0,0-2.541-7.965,2.738,2.738,0,0,1-.208-.434c.176-.1.3-.173.423-.239a24.843,24.843,0,0,0,11.208-32.626,3.344,3.344,0,0,1-.25-1.323c-.017-4.841-.011-9.682-.01-14.523a7.935,7.935,0,0,1,.028-.858,2.713,2.713,0,0,1,2.5-2.413,2.623,2.623,0,0,1,2.726,2.231,7.3,7.3,0,0,1,.066,1.2q.005,13.878,0,27.756a8.414,8.414,0,0,0,.031,1.029,1.171,1.171,0,0,0,1.143,1.088,1.154,1.154,0,0,0,1.3-.893,4.179,4.179,0,0,0,.1-1.1c.005-7.791-.008-15.583.024-23.374a4.445,4.445,0,0,1,.473-2.037,2.52,2.52,0,0,1,2.934-1.048,2.812,2.812,0,0,1,1.89,2.794q.025,8.679-.011,17.358a1.143,1.143,0,0,1-.435.809,6.006,6.006,0,0,0-2.737,5.33c.02,2.635.009,5.27,0,7.906,0,1.067-.351,1.42-1.429,1.5a5.3,5.3,0,0,0-5.023,4.778c-.129,1.059.272,1.719,1.1,1.805s1.283-.371,1.439-1.419a2.764,2.764,0,0,1,2.8-2.6,3.723,3.723,0,0,0,3.7-4.006c.009-2.692,0-5.385.005-8.078a3.265,3.265,0,0,1,3.218-3.5A3.211,3.211,0,0,1,269.69,42.2c.024,3.351.008,6.7.005,10.054a6.536,6.536,0,0,1-2.432,5.184c-1.22,1.041-2.434,2.091-3.613,3.178a11.493,11.493,0,0,0-3.873,8.761c-.01,8.536,0,17.072-.016,25.608a1.679,1.679,0,0,0,.915,1.689H241.252c.26-.448.731-.89.744-1.345.073-2.569.047-5.142.028-7.714a1.214,1.214,0,0,0-1.1-1.312c-.852-.129-1.441.448-1.449,1.472-.018,2.314.016,4.629-.02,6.943-.012.786,0-15.6.022-13.305" transform="translate(-184.45 -8.672)" fill="#ba68c8"/>
    <path id="Path_175037" data-name="Path 175037" d="M76.226,88a1.679,1.679,0,0,1-.915-1.689c.019-8.536.006-17.072.016-25.608A11.492,11.492,0,0,1,79.2,51.942c1.179-1.087,2.393-2.137,3.613-3.178a6.535,6.535,0,0,0,2.432-5.184c0-3.351.019-6.7-.005-10.054A3.211,3.211,0,0,0,82.045,30.1a3.265,3.265,0,0,0-3.218,3.5c-.01,2.692,0,5.385-.005,8.078a3.723,3.723,0,0,1-3.7,4.006,2.764,2.764,0,0,0-2.8,2.6c-.156,1.049-.619,1.506-1.439,1.42s-1.228-.746-1.1-1.805a5.3,5.3,0,0,1,5.023-4.778c1.078-.08,1.426-.432,1.429-1.5.007-2.635.018-5.271,0-7.906a6.005,6.005,0,0,1,2.737-5.33,1.144,1.144,0,0,0,.434-.809q.037-8.679.011-17.358a2.813,2.813,0,0,0-1.89-2.794A2.52,2.52,0,0,0,74.6,8.475a4.445,4.445,0,0,0-.473,2.037c-.032,7.791-.019,15.582-.024,23.373a4.18,4.18,0,0,1-.1,1.1,1.154,1.154,0,0,1-1.3.893A1.171,1.171,0,0,1,71.565,34.8a8.417,8.417,0,0,1-.031-1.029q0-13.878,0-27.756a7.294,7.294,0,0,0-.066-1.2,2.623,2.623,0,0,0-2.726-2.231,2.713,2.713,0,0,0-2.5,2.413,8,8,0,0,0-.028.858c0,4.841-.008,9.682.01,14.523a3.344,3.344,0,0,0,.25,1.323A24.843,24.843,0,0,1,55.26,54.324c-.126.066-.248.14-.424.239a2.749,2.749,0,0,0,.208.434,13.454,13.454,0,0,1,2.541,7.965c.016,3.208,0,6.416.008,9.625,0,.8-.24,1.426-1.094,1.612-.8.175-1.467-.471-1.475-1.46C55,70.448,55.05,68.155,55,65.865a51.48,51.48,0,0,0-.283-5.3,9.52,9.52,0,0,0-2.062-4.474.7.7,0,0,0-.933-.287,24.658,24.658,0,0,1-15.609.017.754.754,0,0,0-.994.324A11.459,11.459,0,0,0,32.8,63.353c.018,7.562,0,15.124.018,22.686A2.249,2.249,0,0,1,32.051,88H31.02a2.163,2.163,0,0,1-.795-1.949c.018-6.846.064-13.693-.011-20.538-.042-3.879.237-7.623,2.841-10.853-.313-.191-.539-.347-.78-.474A24.562,24.562,0,0,1,24.632,47.9c-.692-.85-.736-1.583-.131-2.114.631-.555,1.395-.38,2.121.483a22.022,22.022,0,0,0,18.017,8.209A22.3,22.3,0,1,0,21.89,28.649,22.939,22.939,0,0,0,23.27,40.7a2.3,2.3,0,0,1,.063,1.533,1.289,1.289,0,0,1-1.086.607,1.724,1.724,0,0,1-1.158-.82,22.821,22.821,0,0,1-1.938-7.436A24.935,24.935,0,0,1,21.42,21.548a2.233,2.233,0,0,0,.189-.907c.011-5.041.021-10.083,0-15.125C21.6,3.4,19.805,2.043,18,2.766a2.6,2.6,0,0,0-1.7,2.462c-.031.6-.01,1.2-.011,1.8q0,13.449,0,26.9c0,1.336-.394,1.951-1.253,1.969-.886.018-1.322-.639-1.322-2.006q0-11.773,0-23.546c0-1.815-1.006-2.981-2.569-3.025A2.646,2.646,0,0,0,8.513,9.366,5.684,5.684,0,0,0,8.4,10.644c-.007,5.557,0,11.114-.016,16.671a1.3,1.3,0,0,0,.651,1.247,5.633,5.633,0,0,1,2.541,4.894c.015,2.693,0,5.385.006,8.078,0,1.185.316,1.508,1.512,1.591a5.348,5.348,0,0,1,4.971,5.028,1.306,1.306,0,0,1-1.126,1.552c-.782.084-1.293-.363-1.424-1.245a2.784,2.784,0,0,0-2.9-2.78A3.711,3.711,0,0,1,9,41.767c-.013-2.779,0-5.557-.008-8.336A3.148,3.148,0,0,0,7.26,30.48,3.026,3.026,0,0,0,4,30.657a2.931,2.931,0,0,0-1.4,2.524c-.013,3.666-.029,7.333.028,11a5.983,5.983,0,0,0,2.257,4.466c1.2,1.06,2.426,2.1,3.615,3.176a11.49,11.49,0,0,1,3.992,8.8c.021,8.594,0,17.187.02,25.781A1.646,1.646,0,0,1,11.6,88h-.859a2.077,2.077,0,0,1-.82-1.935c.016-8.358,0-16.716.017-25.073A9.418,9.418,0,0,0,6.48,53.461c-1.087-.93-2.155-1.884-3.234-2.823a8.193,8.193,0,0,1-3.139-5.9C-.038,40.765-.02,36.782.067,32.807a5.555,5.555,0,0,1,4.283-5.1c.463-.113.94-.172,1.465-.265V26.382q0-7.814,0-15.628a11.367,11.367,0,0,1,.1-1.54A5.132,5.132,0,0,1,10.59,4.8a18.926,18.926,0,0,1,3.119.353,4.969,4.969,0,0,1,1.873-3.875A16.64,16.64,0,0,1,17.956,0h1.891a5.745,5.745,0,0,1,3.972,3.318A5.331,5.331,0,0,1,32.1,8.253c-.049.614-.007,1.236-.007,2a25.319,25.319,0,0,1,23.658.013c-.093-2.47-.249-4.848,1.779-6.549s4.192-1.709,6.482-.4A5.723,5.723,0,0,1,67.975,0h1.891a5.57,5.57,0,0,1,4.265,5.177c0,.046.066.087.122.158A5.315,5.315,0,0,1,82,10.412c.014,5.352,0,10.7,0,16.057v.98c3.831.66,5.75,2.618,5.8,5.959.051,3.462.035,6.927,0,10.389a8.85,8.85,0,0,1-3.169,6.783c-1.03.909-2.046,1.835-3.1,2.711a9.694,9.694,0,0,0-3.653,7.959c.048,8.272.009,16.544.026,24.815A2.076,2.076,0,0,1,77.086,88ZM63.484,16.784c.075-.113.129-.157.129-.2.005-3.006.05-6.013-.009-9.017A2.593,2.593,0,0,0,60.859,4.98,2.683,2.683,0,0,0,58.315,7.7c-.033,1.23-.042,2.464.013,3.692a1.5,1.5,0,0,0,.5.879c1,.938,2.062,1.813,3.059,2.756.569.537,1.058,1.159,1.6,1.756M24.234,16.9c.3-.33.474-.541.668-.731,1.164-1.14,2.263-2.36,3.525-3.38a2.372,2.372,0,0,0,1.111-2.349,19.131,19.131,0,0,1-.02-2.317c-.01-1.9-1.055-3.141-2.648-3.144-1.626,0-2.672,1.2-2.676,3.108q-.009,3.951,0,7.9c0,.245.021.489.04.911" transform="translate(0)"/>
    <path id="Path_175038" data-name="Path 175038" d="M240.776,349.058a2.218,2.218,0,0,1-.77-1.955c.036-2.314,0-4.629.02-6.943.008-1.024.6-1.6,1.449-1.472a1.214,1.214,0,0,1,1.1,1.312c.018,2.571.044,5.144-.028,7.714-.013.455-.484.9-.744,1.345Z" transform="translate(-185.005 -261.058)"/>
    <path id="Path_175039" data-name="Path 175039" d="M133.172,99.311c-1.231,0-2.463.036-3.693-.008a3.867,3.867,0,0,1-3.872-3.973c-.017-1.345,0-2.691-.006-4.036-.007-1.275-.48-1.75-1.777-1.764s-2.577.007-3.865-.006a3.907,3.907,0,0,1-4.146-4.141q-.015-3.435,0-6.87a3.947,3.947,0,0,1,4.162-4.145c1.345-.011,2.691.009,4.037-.007a1.4,1.4,0,0,0,1.587-1.583c.018-1.4-.009-2.805.01-4.208a3.912,3.912,0,0,1,3.968-3.984q3.606-.05,7.214,0a3.909,3.909,0,0,1,3.957,3.994c.018,1.374,0,2.748.008,4.122.011,1.174.5,1.65,1.685,1.659,1.345.01,2.691-.012,4.037.006a3.943,3.943,0,0,1,4.064,4.069q.023,3.521,0,7.042a3.886,3.886,0,0,1-3.985,4.04c-1.345.026-2.691-.006-4.037.01-1.29.015-1.758.494-1.765,1.776-.007,1.317.008,2.634,0,3.95a3.887,3.887,0,0,1-3.971,4.053c-1.2.036-2.4.006-3.607.006v0M118.389,81.925c0,1.116-.006,2.233,0,3.349.008,1.193.46,1.667,1.655,1.686,1.345.022,2.691-.013,4.036.011a3.946,3.946,0,0,1,4.1,4.129c.014,1.345-.005,2.691.006,4.036.009,1.1.47,1.592,1.553,1.6q3.435.03,6.87,0c1.089-.009,1.555-.5,1.566-1.591.013-1.317,0-2.633,0-3.95a3.961,3.961,0,0,1,4.171-4.228c1.317-.016,2.634.012,3.95-.009,1.2-.019,1.663-.491,1.667-1.675q.012-3.306,0-6.612c0-1.243-.474-1.719-1.706-1.727-1.345-.01-2.691.013-4.036-.008a3.934,3.934,0,0,1-4.045-4.085c-.016-1.374.007-2.748-.008-4.122a1.381,1.381,0,0,0-1.511-1.575q-3.477-.038-6.956,0a1.381,1.381,0,0,0-1.521,1.564c-.015,1.288,0,2.576,0,3.864-.008,2.759-1.6,4.348-4.381,4.359-1.288.005-2.577-.014-3.864.007a1.382,1.382,0,0,0-1.542,1.54c-.017,1.145,0,2.29,0,3.435" transform="translate(-89.267 -49.766)"/>
    <path id="Path_175040" data-name="Path 175040" d="M259.545,33.529c-.538-.6-1.027-1.219-1.6-1.756-1-.942-2.057-1.818-3.059-2.756a1.5,1.5,0,0,1-.5-.879c-.055-1.229-.046-2.462-.013-3.692a2.683,2.683,0,0,1,2.545-2.721,2.593,2.593,0,0,1,2.745,2.586c.059,3,.015,6.012.009,9.017,0,.044-.054.088-.129.2" transform="translate(-196.06 -16.745)" fill="#ba68c8"/>
    <path id="Path_175041" data-name="Path 175041" d="M105.6,33.648c-.019-.422-.04-.666-.04-.911q0-3.951,0-7.9c0-1.9,1.05-3.11,2.676-3.108,1.593,0,2.638,1.241,2.648,3.144a19.13,19.13,0,0,0,.02,2.317,2.372,2.372,0,0,1-1.111,2.349c-1.262,1.02-2.361,2.241-3.525,3.38-.194.19-.368.4-.668.731" transform="translate(-81.367 -16.748)" fill="#ba68c8"/>
    <path id="Path_175042" data-name="Path 175042" d="M127.062,90.592c0-1.145-.013-2.29,0-3.435a1.382,1.382,0,0,1,1.542-1.54c1.288-.021,2.576,0,3.864-.007,2.777-.011,4.373-1.6,4.381-4.359,0-1.288-.01-2.576.005-3.864a1.381,1.381,0,0,1,1.521-1.564q3.478-.036,6.956,0a1.381,1.381,0,0,1,1.511,1.575c.015,1.374-.008,2.748.008,4.122a3.934,3.934,0,0,0,4.045,4.085c1.345.021,2.691,0,4.036.008,1.232.009,1.7.484,1.706,1.727q.009,3.306,0,6.612c0,1.184-.467,1.656-1.667,1.675-1.316.021-2.634-.007-3.95.009a3.961,3.961,0,0,0-4.171,4.228c-.008,1.317.008,2.633,0,3.95-.01,1.09-.477,1.581-1.566,1.591q-3.435.029-6.87,0c-1.084-.01-1.544-.5-1.553-1.6-.011-1.345.008-2.691-.006-4.036a3.947,3.947,0,0,0-4.1-4.129c-1.345-.024-2.691.011-4.036-.011-1.195-.019-1.647-.493-1.655-1.686-.008-1.116,0-2.233,0-3.349" transform="translate(-97.94 -58.434)" fill="#fff636"/>
  </g>
</svg>
