<svg id="Group_113304" data-name="Group 113304" xmlns="http://www.w3.org/2000/svg" xmlns:xlink="http://www.w3.org/1999/xlink" width="47.667" height="50" viewBox="0 0 47.667 50">
  <defs>
    <clipPath id="clip-path">
      <rect id="Rectangle_37210" data-name="Rectangle 37210" width="47.667" height="50" fill="#5c22c3"/>
    </clipPath>
  </defs>
  <g id="Group_113304-2" data-name="Group 113304" clip-path="url(#clip-path)">
    <path id="Path_175265" data-name="Path 175265" d="M14.853,0h.488c.719.559.667,1.078-.152,1.5a3.935,3.935,0,0,0-2.07,2.871,8.606,8.606,0,0,1,7.608,7.163,3.528,3.528,0,0,1,3.1,1.185.818.818,0,0,0,.42-.887,12.422,12.422,0,0,1,.181-4.172A9.014,9.014,0,0,1,25.9,4.294a.7.7,0,0,1,.928-.3.674.674,0,0,1,.41.839,1.828,1.828,0,0,1-.28.508,9.382,9.382,0,0,0-1.267,6.181,7.069,7.069,0,0,1,1.39.088,2.9,2.9,0,0,0,1.672-.057c.587-.187,1.185-.35,1.758-.574a29.362,29.362,0,0,0,6.734-3.893c.665-.493.941-.449,1.452.219.327.426.655.852,1,1.261a14.458,14.458,0,0,0,3.084,2.894,1.044,1.044,0,0,0,.566.195c.545-.027,1.086-.11,1.656-.174A8.5,8.5,0,0,0,45.2,7.2c-.622-2.818-2.482-4.335-5.229-4.1a1.155,1.155,0,0,1-.738-.27,5.748,5.748,0,0,0-3.728-1.357A11.613,11.613,0,0,0,29.145,3.2a.745.745,0,0,1-1.116-.14.725.725,0,0,1,.352-1.095A31.932,31.932,0,0,1,31.718.514,18.526,18.526,0,0,1,34.288,0h1.953a1.632,1.632,0,0,0,.273.087,7.566,7.566,0,0,1,3.232,1.285,1.447,1.447,0,0,0,.75.236,5.725,5.725,0,0,1,5.4,3.278,9.272,9.272,0,0,1,.577,6.878.62.62,0,0,0,.161.722,3.15,3.15,0,0,1,.891,3.262,3.2,3.2,0,0,1-2.486,2.362,8.351,8.351,0,0,1-1.187.111,8.671,8.671,0,0,1-4.722,6.661,20.486,20.486,0,0,1,1.882.951,21.876,21.876,0,0,1,2.036,1.5.7.7,0,0,1,.064,1.042.718.718,0,0,1-1.011.052c-.092-.067-.174-.147-.259-.222a9.81,9.81,0,0,0-15.828,4.445,10.505,10.505,0,0,0-.484,3.2l1.4-.069A8.584,8.584,0,0,1,35.1,28.619a8.3,8.3,0,0,1,5.145,1.526,8.535,8.535,0,0,1,3.569,5.639l1.477.077a15.293,15.293,0,0,0-.324-2.275c-.3-1.021-.738-2-1.138-2.992a.773.773,0,0,1,.258-1.059.759.759,0,0,1,1.031.352c.077.124.145.254.213.384a12.055,12.055,0,0,1,1.365,5.97,1.309,1.309,0,0,0,.279.887A3.311,3.311,0,0,1,44.933,42.4c-.347.066-.7.072-1.066.106-.03.131-.062.256-.088.383a8.415,8.415,0,0,1-6.4,6.87c-.373.1-.759.163-1.139.242H34.483a2.042,2.042,0,0,0-.272-.086,8.4,8.4,0,0,1-6.975-5.964c-.159-.471-.239-.969-.338-1.383a9.83,9.83,0,0,1-1.689-.365,8.562,8.562,0,0,1-1.371-.855,8.962,8.962,0,0,1-1.42.875,9.563,9.563,0,0,1-1.69.348c.027-.035.011-.024.009-.01-.013.063-.02.128-.032.192a8.452,8.452,0,0,1-6.429,7.009c-.355.1-.722.16-1.084.239H11.337a1.579,1.579,0,0,0-.267-.089A8.537,8.537,0,0,1,4.038,43.62c-.1-.373-.16-.754-.235-1.114a.655.655,0,0,0-.131-.031A3.263,3.263,0,0,1,.344,40.546a3.236,3.236,0,0,1,.591-3.715.663.663,0,0,0,.08-.471C.92,35.719.766,35.085.7,34.442c-.063-.571.22-.918.668-.941s.731.3.791.864c.054.511.145,1.019.213,1.482a12.036,12.036,0,0,1,1.533.017.487.487,0,0,0,.581-.282c.527-.969,1.072-1.929,1.574-2.911.315-.616.5-.734,1.193-.572.427.1.854.2,1.284.288a13.921,13.921,0,0,0,4.54.475c1.415-.188,2.816-.487,4.218-.762.723-.142.9-.047,1.227.6.511,1,1.064,1.97,1.616,2.944a.517.517,0,0,0,.362.227c.513.026,1.028.011,1.622.011.072-.763.195-1.5.2-2.244A5.292,5.292,0,0,0,18.484,28.1a1.217,1.217,0,0,1-.574-.484,3.953,3.953,0,0,0-2.741-1.775,10.822,10.822,0,0,0-3.869.275c-1.226.248-2.445.546-3.682.7a5.452,5.452,0,0,1-3.368-.745,3.45,3.45,0,0,0-.535,3.007,1.125,1.125,0,0,1-.12.766c-.293.576-.658,1.115-.967,1.684-.249.458-.63.65-1.033.467a.735.735,0,0,1-.316-1.039c.223-.486.508-.943.733-1.428a1.257,1.257,0,0,0,.134-.665,5.27,5.27,0,0,1,1.415-4.3.684.684,0,0,1,1.04-.078,4.062,4.062,0,0,0,3.3.845c.351-.039.7-.114,1.048-.173A8.971,8.971,0,0,1,3.809,18.2C1.536,18.123.127,16.943.022,15.049A3.227,3.227,0,0,1,.751,12.78a3.433,3.433,0,0,1,3.1-1.255,8.7,8.7,0,0,1,6.5-6.989c-.1-.145-.189-.262-.271-.38a5.548,5.548,0,0,1-.965-3.024.731.731,0,1,1,1.457-.062,7.05,7.05,0,0,0,.087.726A3.407,3.407,0,0,0,11.686,3.75c.246-.548.445-1.063.7-1.546A5.437,5.437,0,0,1,14.853,0m-9.7,15.017.154.007a24.394,24.394,0,0,0,.021,3.166,7.045,7.045,0,0,0,14.022-.974q.012-2.194,0-4.39a7.068,7.068,0,0,0-6.1-6.956,6.966,6.966,0,0,0-7.755,5.277,27.085,27.085,0,0,0-.338,3.87m37.377,24.3-.109-.007c0-.846.034-1.693-.005-2.537a7.042,7.042,0,0,0-13.4-2.655,6.7,6.7,0,0,0-.677,2.967,52.624,52.624,0,0,0,.107,5.407,7.008,7.008,0,0,0,13.75.695,27.7,27.7,0,0,0,.337-3.87M37.736,8.575c-.052.031-.122.067-.186.112a25.6,25.6,0,0,1-8.991,4.422.389.389,0,0,0-.222.3,46.045,46.045,0,0,0,.108,4.919,7.014,7.014,0,0,0,13.814.263,42.026,42.026,0,0,0,.159-5.4c0-.122-.136-.274-.248-.367-.735-.612-1.524-1.167-2.211-1.828-.782-.752-1.475-1.6-2.223-2.416m-30.422,25A10.836,10.836,0,0,1,6.3,35.413,5.17,5.17,0,0,0,5.228,39.4c.093,1.165-.021,2.358.177,3.5a7.015,7.015,0,0,0,13.833-.478c.144-1.451.048-2.925.109-4.386a2.662,2.662,0,0,0-.509-1.711c-.582-.853-1.061-1.778-1.625-2.743a16.44,16.44,0,0,1-9.9-.013m16.649,3.513c.036-.338.085-.59.087-.843.026-4.8,2.012-8.453,6.307-10.747.4-.217.836-.386,1.309-.6a8.647,8.647,0,0,1-4.758-6.616,9.3,9.3,0,0,1-1.7-.34,8.227,8.227,0,0,1-1.367-.854,9.019,9.019,0,0,1-1.432.866,9.084,9.084,0,0,1-1.657.321,8.651,8.651,0,0,1-4.3,6.387,5.726,5.726,0,0,1,2.415,1.778,1.6,1.6,0,0,0,.6.449,6.6,6.6,0,0,1,4.1,4.748,10.006,10.006,0,0,1-.074,4.544c-.084.382-.016.625.464.909m19.94.274c0,1.1-.009,2.223.015,3.341,0,.1.21.286.326.289a1.864,1.864,0,0,0,1.554-3,1.721,1.721,0,0,0-1.9-.632m.021-20.7a1.824,1.824,0,0,0,2-.852,1.85,1.85,0,0,0-.167-2.141,1.692,1.692,0,0,0-1.835-.575Zm-40.152,0c0-1.14.01-2.26-.017-3.379,0-.1-.239-.275-.374-.282a1.857,1.857,0,1,0,.391,3.661m23.086.015c0-1.164.008-2.3-.016-3.426,0-.09-.228-.246-.353-.25a1.859,1.859,0,0,0-1.6,2.889,1.824,1.824,0,0,0,1.97.787m-6.044-.016a1.863,1.863,0,0,0,2.022-.843,1.905,1.905,0,0,0-.1-2.064,1.778,1.778,0,0,0-1.9-.687c-.008.084-.024.177-.024.27,0,1.1,0,2.2,0,3.324m6.025,20.694a1.738,1.738,0,0,0-1.958.75,1.881,1.881,0,0,0,.1,2.188,1.679,1.679,0,0,0,1.855.6ZM20.82,40.942a1.82,1.82,0,0,0,1.971-.813,1.872,1.872,0,0,0-.115-2.142,1.687,1.687,0,0,0-1.856-.61ZM3.765,37.351a1.852,1.852,0,0,0-2.277,1.622,1.891,1.891,0,0,0,1.827,2.038c.239,0,.457.008.454-.338-.01-1.1,0-2.2,0-3.322" fill="#5c22c3"/>
    <path id="Path_175268" data-name="Path 175268" d="M12.163,21.277a2.886,2.886,0,0,1-2.394-1.231.791.791,0,0,1,.087-1.17c.367-.263.775-.146,1.105.317a1.748,1.748,0,0,0,2.669-.006c.321-.451.7-.568,1.068-.333.39.249.445.675.148,1.155a3.044,3.044,0,0,1-2.683,1.268" fill="#5c22c3"/>
    <path id="Path_175269" data-name="Path 175269" d="M8.118,15.011a5.315,5.315,0,0,1,.005-.68.679.679,0,0,1,.714-.655.663.663,0,0,1,.724.641,8.608,8.608,0,0,1,0,1.409.69.69,0,0,1-.713.663.718.718,0,0,1-.732-.7c-.018-.226,0-.454,0-.681h0" fill="#5c22c3"/>
    <path id="Path_175270" data-name="Path 175270" d="M15.035,15.005a5.682,5.682,0,0,1,.006-.727.652.652,0,0,1,.655-.6.609.609,0,0,1,.722.506,8.052,8.052,0,0,1,0,1.686.611.611,0,0,1-.719.514.668.668,0,0,1-.667-.649c-.02-.241,0-.485,0-.728h.006" fill="#5c22c3"/>
    <path id="Path_175271" data-name="Path 175271" d="M35.38,44.514A4.345,4.345,0,0,1,32.022,45.6c-.747-.044-1-.26-1.041-1a7.728,7.728,0,0,1,.051-1.888,3.778,3.778,0,0,1,3.538-3.038,6.707,6.707,0,0,1,1.935.062,3.9,3.9,0,0,1,3.316,4.649c-.138,1.061-.317,1.216-1.4,1.228a4.265,4.265,0,0,1-3.041-1.092m2.941-.379a2.361,2.361,0,0,0-1.587-2.844,4.091,4.091,0,0,0-2.819.036,2.324,2.324,0,0,0-1.46,2.784,2.4,2.4,0,0,0,2.186-1.022c.515-.737.966-.73,1.5.023a2.494,2.494,0,0,0,2.182,1.023" fill="#5c22c3"/>
    <path id="Path_175272" data-name="Path 175272" d="M35.4,32.009c.5,0,1.005-.01,1.508,0a.726.726,0,1,1,.046,1.449c-1.053.021-2.108.023-3.161,0a.722.722,0,0,1,.051-1.443c.518-.015,1.037,0,1.556,0" fill="#5c22c3"/>
    <path id="Path_175273" data-name="Path 175273" d="M35.365,36.069c-.357,0-.715.019-1.071-.005a.679.679,0,0,1-.7-.712.667.667,0,0,1,.688-.728c.729-.031,1.461-.028,2.19,0a.7.7,0,0,1,.714.717.717.717,0,0,1-.747.731c-.356.02-.714,0-1.071,0v0" fill="#5c22c3"/>
    <path id="Path_175274" data-name="Path 175274" d="M39.559,38.052a5.548,5.548,0,0,1,0,.632.681.681,0,0,1-.7.672.658.658,0,0,1-.74-.62,7.782,7.782,0,0,1,0-1.456.663.663,0,0,1,.736-.629.683.683,0,0,1,.7.672,7.088,7.088,0,0,1,0,.729" fill="#5c22c3"/>
    <path id="Path_175275" data-name="Path 175275" d="M32.648,38.018c0,.227.016.455,0,.68a.661.661,0,0,1-.653.657.621.621,0,0,1-.746-.538,7.955,7.955,0,0,1,.007-1.64.617.617,0,0,1,.713-.525.665.665,0,0,1,.676.638c.023.241,0,.485,0,.728h0" fill="#5c22c3"/>
    <path id="Path_175276" data-name="Path 175276" d="M35.277,21.278a2.9,2.9,0,0,1-2.411-1.214c-.345-.492-.3-.933.093-1.2.375-.253.755-.134,1.1.347a1.759,1.759,0,0,0,2.642,0c.342-.475.73-.6,1.1-.344s.417.723.09,1.206a3.063,3.063,0,0,1-2.614,1.206" fill="#5c22c3"/>
    <path id="Path_175277" data-name="Path 175277" d="M39.559,15.063c0,.211.015.423,0,.632a.72.72,0,0,1-.736.694.689.689,0,0,1-.71-.666,8.734,8.734,0,0,1,0-1.41.661.661,0,0,1,.726-.637.679.679,0,0,1,.711.658,5.9,5.9,0,0,1,.006.729h0" fill="#5c22c3"/>
    <path id="Path_175278" data-name="Path 175278" d="M32.646,15.029c0,.227.013.454,0,.68A.673.673,0,0,1,32,16.38a.625.625,0,0,1-.751-.535,7.556,7.556,0,0,1,0-1.64A.623.623,0,0,1,32,13.678a.655.655,0,0,1,.636.623,6.8,6.8,0,0,1,0,.728h.005" fill="#5c22c3"/>
    <path id="Path_175279" data-name="Path 175279" d="M12.271,44.53A4.345,4.345,0,0,1,8.879,45.6c-.679-.045-.913-.232-.971-.9a8.387,8.387,0,0,1,0-1.792,3.5,3.5,0,0,1,2.446-2.952,5.424,5.424,0,0,1,4.048.075,3.56,3.56,0,0,1,2.309,3.221,10.947,10.947,0,0,1-.055,1.555.8.8,0,0,1-.833.785,4.386,4.386,0,0,1-3.381-.934c-.048-.041-.1-.074-.168-.121m-2.919-.389a2.494,2.494,0,0,0,2.178-1.03c.528-.75.978-.754,1.495-.011A2.488,2.488,0,0,0,15.2,44.138a2.322,2.322,0,0,0-1.463-2.806,4.1,4.1,0,0,0-2.86-.016,2.345,2.345,0,0,0-1.523,2.825" fill="#5c22c3"/>
    <path id="Path_175280" data-name="Path 175280" d="M8.11,37.994c0-.211-.013-.422,0-.631a.709.709,0,0,1,.721-.7.689.689,0,0,1,.721.654,8.812,8.812,0,0,1,0,1.407.688.688,0,0,1-.768.644.68.68,0,0,1-.675-.691c-.018-.225,0-.453,0-.68" fill="#5c22c3"/>
    <path id="Path_175281" data-name="Path 175281" d="M16.441,38.028a5.668,5.668,0,0,1-.006.726.649.649,0,0,1-.691.611.63.63,0,0,1-.713-.582,9.389,9.389,0,0,1-.008-1.5.643.643,0,0,1,.691-.616.666.666,0,0,1,.726.634,6.3,6.3,0,0,1,0,.727h0" fill="#5c22c3"/>
  </g>
</svg>
