<svg id="Group_113303" data-name="Group 113303" xmlns="http://www.w3.org/2000/svg" xmlns:xlink="http://www.w3.org/1999/xlink" width="43.958" height="50" viewBox="0 0 43.958 50">
  <defs>
    <clipPath id="clip-path">
      <rect id="Rectangle_37209" data-name="Rectangle 37209" width="43.958" height="50" fill="#5c22c3"/>
    </clipPath>
  </defs>
  <g id="Group_113303-2" data-name="Group 113303" clip-path="url(#clip-path)">
    <path id="Path_175258" data-name="Path 175258" d="M29.013,50c-.78-.148-1.573-.247-2.338-.451A13.623,13.623,0,0,1,18.25,43.2a.523.523,0,0,0-.725-.281,13.815,13.815,0,1,1-7.068-26.708c.171-.043.342-.089.55-.144-.026-.492-.052-.974-.072-1.359a13.644,13.644,0,0,1-1.752-1.052,3.675,3.675,0,0,1-.335-5.47A3.664,3.664,0,0,1,11.9,7.374a.652.652,0,0,1,.592.767.672.672,0,0,1-.665.655c-.211.019-.423.009-.635.011A1.833,1.833,0,0,0,9.3,11.181a2.55,2.55,0,0,0,2.353,2c1.546.032,3.093.038,4.638,0a2.557,2.557,0,0,0,2.42-2.627,1.781,1.781,0,0,0-1.8-1.746c-.537-.015-1.075,0-1.612-.007a.732.732,0,1,1-.036-1.456c.618-.015,1.239-.035,1.854.009a3.3,3.3,0,0,1,2.859,4.5,3.9,3.9,0,0,1-2.583,2.594c-.3.1-.417.233-.4.545.02.37-.138.826.029,1.089.145.229.634.239.969.35a13.766,13.766,0,0,1,7.72,6.16c.194.326.36.377.73.281a13.681,13.681,0,0,1,12.139,2.372,2.122,2.122,0,0,1,.336.281.686.686,0,0,1,.032.973.664.664,0,0,1-.922.148c-.262-.162-.5-.366-.748-.546a12.355,12.355,0,1,0,5.192,9.314,12.171,12.171,0,0,0-2.128-6.2,2.373,2.373,0,0,1-.237-.368.687.687,0,0,1,.209-.914.68.68,0,0,1,.967.1,4.346,4.346,0,0,1,.427.592,13.839,13.839,0,0,1-9.735,21.252c-.239.032-.476.078-.714.118Zm-7.2-24.879c-.091-.16-.166-.3-.252-.439a9.117,9.117,0,0,0-12.851-2.59c-.491.343-.921.773-1.39,1.149a.686.686,0,0,1-1.005-.055.712.712,0,0,1-.01-.978A1.756,1.756,0,0,1,6.51,22a10.549,10.549,0,0,1,4.756-2.66l.548-.139a8.635,8.635,0,0,1-.476-.791,8.443,8.443,0,0,1-.3-.86c-4.69,1.286-7.9,4.149-9.123,8.864A11.789,11.789,0,0,0,6.038,39.16a12.023,12.023,0,0,0,11.315,2.312c-.208-.6-.392-1.124-.579-1.663A10.588,10.588,0,0,1,3.36,28.455a16.776,16.776,0,0,1,.862-3.183.693.693,0,0,1,.992-.422.745.745,0,0,1,.341,1c-.038.107-.092.208-.135.313a8.729,8.729,0,0,0-.574,4.786,9.1,9.1,0,0,0,8.509,7.79,7.92,7.92,0,0,0,3.1-.381,14,14,0,0,1,5.359-13.233m2.763-1.609a12.462,12.462,0,0,0-7.624-5.852l-.8,1.59A10.738,10.738,0,0,1,23.061,24.3l1.517-.787M12.4,14.69c.062.968.093,1.878.188,2.781a1.282,1.282,0,0,0,1.254,1.09c.682.048,1.384-.293,1.472-.869.152-.983.179-1.986.26-3Z" fill="#5c22c3"/>
    <path id="Path_175259" data-name="Path 175259" d="M14.265,0a1.133,1.133,0,0,1,.419,1.245.718.718,0,0,1-1.418-.038A1.174,1.174,0,0,1,13.679,0Z" fill="#5c22c3"/>
    <path id="Path_175260" data-name="Path 175260" d="M19.538,36.174A10.6,10.6,0,1,1,30.1,46.779a10.606,10.606,0,0,1-10.566-10.6m7.978-8.682A14.006,14.006,0,0,1,22.2,40.64a9.115,9.115,0,1,0,5.315-13.148m-1.488.5c-.485.316-.952.6-1.393.924a.573.573,0,0,0-.157.416,10.6,10.6,0,0,1-3.16,7.831.624.624,0,0,0-.193.451c.091.536.236,1.062.368,1.62a12.113,12.113,0,0,0,4.535-11.242M22.9,30.683a7.947,7.947,0,0,0-1.764,4.369A8.125,8.125,0,0,0,22.9,30.683" fill="#5c22c3"/>
    <path id="Path_175261" data-name="Path 175261" d="M6.227,6.028a.745.745,0,0,1-.774.7A1.114,1.114,0,0,1,4.439,5.8a.747.747,0,0,1,.772-.707,1.122,1.122,0,0,1,1.016.94" fill="#5c22c3"/>
    <path id="Path_175262" data-name="Path 175262" d="M23.52,5.8a1.119,1.119,0,0,1-1.033.935.743.743,0,0,1-.751-.686,1.112,1.112,0,0,1,1.053-.962.756.756,0,0,1,.731.713" fill="#5c22c3"/>
    <path id="Path_175263" data-name="Path 175263" d="M9.8,2.413a.694.694,0,0,1-.692.724,1.075,1.075,0,0,1-.933-1.012.721.721,0,0,1,.719-.756A1.088,1.088,0,0,1,9.8,2.413" fill="#5c22c3"/>
    <path id="Path_175264" data-name="Path 175264" d="M19.068,1.369a.735.735,0,0,1,.725.71,1.1,1.1,0,0,1-.944,1.058.7.7,0,0,1-.691-.726,1.083,1.083,0,0,1,.91-1.042" fill="#5c22c3"/>
  </g>
</svg>
