<svg xmlns="http://www.w3.org/2000/svg" xmlns:xlink="http://www.w3.org/1999/xlink" width="76.902" height="75" viewBox="0 0 76.902 75">
  <defs>
    <clipPath id="clip-path">
      <rect id="Rectangle_35854" data-name="Rectangle 35854" width="76.902" height="75" fill="#12263f"/>
    </clipPath>
  </defs>
  <g id="Group_111514" data-name="Group 111514" clip-path="url(#clip-path)">
    <path id="Path_172327" data-name="Path 172327" d="M76.7,66.344a11.439,11.439,0,0,1-.591,1.268,3.743,3.743,0,0,1-3.287,1.864c-.989.02-1.978,0-3.045,0,0,1.142,0,2.206,0,3.27-.006,1.487-.542,2.037-2.018,2.043q-3.211.014-6.422,0c-1.445-.007-1.973-.55-1.976-1.992,0-1.068,0-2.136,0-3.262H17.523c0,1.071,0,2.155,0,3.24,0,1.439-.545,2.006-1.967,2.013q-3.249.018-6.5,0c-1.419-.008-1.963-.578-1.967-2.017,0-1.067,0-2.133,0-3.293-.715,0-1.381-.042-2.041.007A4.256,4.256,0,0,1,.2,66.344V64.85c1.838-4.907,3.69-9.809,5.5-14.727a1.336,1.336,0,0,1,1.458-1.042q31.29.027,62.581,0a1.344,1.344,0,0,1,1.459,1.047c1.814,4.915,3.668,9.816,5.508,14.722Zm-38.31,1.594q16.952,0,33.9,0c2.368,0,3.33-1.409,2.5-3.64-1.6-4.284-3.212-8.562-4.776-12.858a1.021,1.021,0,0,0-1.164-.8q-30.394.029-60.788.016a1.146,1.146,0,0,0-.443.01c-.213.1-.507.222-.577.407q-2.6,6.865-5.151,13.752a2.2,2.2,0,0,0,1.217,2.858,4.443,4.443,0,0,0,1.6.246q16.839.02,33.679.01M15.95,69.526H8.737v3.656H15.95Zm52.206.009H60.979V73.2h7.177Z" fill="#12263f"/>
    <path id="Path_172328" data-name="Path 172328" d="M12.306,75c-1.091,0-2.177,0-3.249-.009-1.513-.008-2.16-.671-2.165-2.216,0-.733,0-1.465,0-2.228V69.68l-.477-.008c-.468-.009-.911-.017-1.35.015A4.458,4.458,0,0,1,.01,66.406L0,66.376V64.813l.013-.033q.676-1.807,1.354-3.613c1.366-3.64,2.779-7.4,4.142-11.113a1.53,1.53,0,0,1,1.643-1.173h0c20.8.019,41.854.019,62.581,0h0a1.534,1.534,0,0,1,1.644,1.178c1.369,3.71,2.784,7.474,4.153,11.114q.678,1.8,1.355,3.606l.013.034v1.574l-.019.04c-.06.131-.116.265-.172.4a6.462,6.462,0,0,1-.43.892,3.928,3.928,0,0,1-3.453,1.958c-.681.014-1.353.011-2.065.007-.258,0-.519,0-.784,0v.859c0,.755,0,1.483,0,2.212-.007,1.607-.629,2.236-2.217,2.242-2.212.009-4.374.009-6.424,0-1.542-.007-2.172-.642-2.175-2.191,0-.731,0-1.461,0-2.21v-.853H17.723v.779c0,.751,0,1.507,0,2.262,0,1.563-.631,2.2-2.166,2.212-1.084.006-2.17.009-3.25.009M5.787,69.266c.209,0,.419,0,.636.008s.441.008.668.008h.2v1.265c0,.763,0,1.5,0,2.227,0,1.336.466,1.812,1.768,1.819,2.131.011,4.316.012,6.495,0,1.3-.007,1.766-.482,1.77-1.814q0-1.134,0-2.262V69.34H59.56v1.251c0,.748,0,1.479,0,2.209,0,1.335.451,1.787,1.777,1.793,2.05.01,4.211.01,6.421,0,1.355-.006,1.814-.471,1.82-1.845,0-.729,0-1.457,0-2.21V69.28h.2c.335,0,.663,0,.986,0,.708,0,1.379.006,2.055-.008a3.548,3.548,0,0,0,3.121-1.768,6.117,6.117,0,0,0,.4-.837c.052-.124.1-.248.159-.371V64.886q-.67-1.787-1.342-3.572c-1.369-3.641-2.784-7.406-4.154-11.118a1.154,1.154,0,0,0-1.27-.916h0c-20.727.018-41.782.018-62.581,0h0a1.141,1.141,0,0,0-1.268.912C4.519,53.9,3.106,57.667,1.74,61.307Q1.069,63.1.4,64.885v1.427A4.054,4.054,0,0,0,5.036,69.29c.25-.018.5-.024.751-.024M68.355,73.4H60.78V69.335h7.575ZM61.178,73h6.778V69.734H61.178Zm-45.029.38H8.538V69.326h7.611Zm-7.212-.4h6.814V69.725H8.937Zm18.315-4.846c-7.452,0-15.046,0-22.54-.01a4.563,4.563,0,0,1-1.674-.26,2.41,2.41,0,0,1-1.331-3.112c1.474-4,3.063-8.246,5.151-13.754.094-.246.389-.383.627-.492l.053-.024a.752.752,0,0,1,.4-.038c.042,0,.084.008.124.008h8.166c17.247,0,35.081,0,52.622-.015a1.21,1.21,0,0,1,1.351.931c1.178,3.234,2.4,6.512,3.59,9.682q.594,1.587,1.186,3.174a3.048,3.048,0,0,1-.078,2.849,3,3,0,0,1-2.606,1.06H27.252M7.778,50.836a.2.2,0,0,0-.072.01l-.054.025c-.144.066-.386.178-.421.271-2.088,5.507-3.676,9.748-5.15,13.751a2.014,2.014,0,0,0,1.1,2.6,4.17,4.17,0,0,0,1.528.231c9.355.011,18.867.011,28.066.01H47.237q12.528,0,25.059,0a2.633,2.633,0,0,0,2.279-.889,2.681,2.681,0,0,0,.032-2.482q-.593-1.587-1.186-3.173c-1.187-3.171-2.413-6.45-3.591-9.686a.831.831,0,0,0-.972-.669h-.005c-17.541.017-35.375.016-52.622.016H8.065c-.052,0-.106-.005-.161-.01s-.087-.008-.126-.008" fill="#12263f"/>
    <path id="Path_172329" data-name="Path 172329" d="M38.413,1.775c-8.864,0-17.729.051-26.593-.031A4.2,4.2,0,0,0,7.38,6.2c.053,13.271.024,26.542.023,39.814,0,.274.083.6-.035.809-.156.279-.47.649-.718.65s-.56-.359-.751-.627c-.107-.151-.029-.435-.029-.659q0-20.056,0-40.113C5.87,2.462,8.119.2,11.739.2Q38.443.2,65.149.2c3.625,0,5.883,2.258,5.883,5.862q0,20.094,0,40.188c0,.224.07.508-.038.658-.181.25-.48.57-.731.571s-.582-.31-.723-.569a1.99,1.99,0,0,1-.058-.881q0-19.981,0-39.964A3.91,3.91,0,0,0,66.487,1.89a6.159,6.159,0,0,0-1.406-.11q-13.335-.01-26.668,0" fill="#12263f"/>
    <path id="Path_172330" data-name="Path 172330" d="M70.261,47.681a1.28,1.28,0,0,1-.9-.673,1.376,1.376,0,0,1-.091-.748c0-.077.01-.154.01-.228V29.3q0-11.617,0-23.235a3.726,3.726,0,0,0-2.839-3.984,5.909,5.909,0,0,0-1.361-.105q-11.04-.007-22.08,0H38.413q-3.675,0-7.35.007c-6.308.01-12.83.02-19.245-.038A4.139,4.139,0,0,0,8.757,3.1,4.239,4.239,0,0,0,7.579,6.2c.039,9.877.033,19.918.027,29.63q0,5.093,0,10.185c0,.075.007.153.013.231a1.167,1.167,0,0,1-.073.675c-.156.279-.518.751-.891.753h0c-.27,0-.577-.239-.912-.711a.862.862,0,0,1-.079-.584c.006-.065.013-.13.013-.19V41.176q0-17.548,0-35.1C5.671,2.331,8,0,11.739,0Q38.443,0,65.148,0c3.752,0,6.083,2.323,6.083,6.062q0,18.976,0,37.955v2.233c0,.057,0,.119.01.181a.873.873,0,0,1-.086.593c-.177.244-.528.653-.892.654ZM47.606,1.576q8.738,0,17.474,0a6.3,6.3,0,0,1,1.454.115,4.1,4.1,0,0,1,3.144,4.372q0,11.617,0,23.235V46.032c0,.081,0,.166-.01.252a1.125,1.125,0,0,0,.043.533c.124.226.405.465.547.465h0c.107,0,.338-.168.57-.488a.77.77,0,0,0,.012-.328c-.006-.073-.011-.146-.011-.213V44.02q0-18.978,0-37.955C70.832,2.572,68.654.4,65.148.4Q38.444.4,11.739.4a5.265,5.265,0,0,0-5.67,5.676q0,17.55,0,35.1v5.015c0,.072-.007.149-.014.227a.76.76,0,0,0,.007.316c.305.429.512.543.587.543h0c.11,0,.373-.24.545-.548a.932.932,0,0,0,.024-.448c-.007-.089-.014-.179-.014-.264q0-5.092,0-10.186c.006-9.71.012-19.752-.027-29.627a4.621,4.621,0,0,1,1.295-3.39,4.589,4.589,0,0,1,3.346-1.269c6.413.059,12.934.049,19.24.039q3.675-.006,7.351-.008h9.193" fill="#12263f"/>
    <path id="Path_172331" data-name="Path 172331" d="M49.731,44.367H27.194c0,.7,0,1.382,0,2.067,0,.567-.1,1.1-.817,1.08-.66-.02-.763-.522-.758-1.066.006-.668,0-1.336,0-2.069-.709-.039-1.374-.038-2.029-.117a5.734,5.734,0,0,1-4.975-3.849c-.655-1.716-1.176-3.484-1.719-5.241a1.52,1.52,0,0,1,1.382-2.079,6.607,6.607,0,0,1,.745-.02H57.936a5.6,5.6,0,0,1,.745.028,1.515,1.515,0,0,1,1.352,2.043c-.55,1.78-1.1,3.563-1.744,5.311a5.972,5.972,0,0,1-5.679,3.87c-.4.011-.8,0-1.318,0,0,.718-.006,1.4,0,2.085.007.571-.085,1.107-.795,1.1s-.769-.571-.768-1.124c0-.645,0-1.29,0-2.023M58.6,34.685H18.3c.714,2.015,1.323,3.982,2.117,5.871a3.593,3.593,0,0,0,2.636,2.025,8.8,8.8,0,0,0,1.921.166c9.134.01,18.267,0,27.4.014,1.761,0,3.3-.573,4.056-2.152.889-1.865,1.444-3.89,2.172-5.924" fill="#12263f"/>
    <path id="Path_172332" data-name="Path 172332" d="M26.418,47.714H26.37c-.961-.03-.953-.929-.951-1.267,0-.463,0-.925,0-1.409v-.47l-.475-.019c-.476-.018-.925-.035-1.38-.09a5.9,5.9,0,0,1-5.137-3.975c-.557-1.462-1.025-2.982-1.477-4.452l-.247-.8a1.81,1.81,0,0,1,.157-1.547,1.867,1.867,0,0,1,1.393-.789,5.341,5.341,0,0,1,.629-.022H58.023a4.948,4.948,0,0,1,.685.03,1.855,1.855,0,0,1,1.359.8,1.768,1.768,0,0,1,.157,1.5c-.512,1.656-1.091,3.532-1.748,5.322a6.143,6.143,0,0,1-5.86,4c-.268.007-.532,0-.837,0l-.288,0v.449c0,.486,0,.96,0,1.435a1.439,1.439,0,0,1-.293,1.054.935.935,0,0,1-.7.248c-.968-.007-.966-.9-.966-1.323s0-.883,0-1.352v-.472H27.394V45c0,.481,0,.958,0,1.435a1.416,1.416,0,0,1-.307,1.044.923.923,0,0,1-.668.236M18.739,33.271a3.706,3.706,0,0,0-.438.02,1.48,1.48,0,0,0-1.105.61,1.4,1.4,0,0,0-.11,1.212l.247.8c.45,1.464.915,2.978,1.468,4.428a5.525,5.525,0,0,0,4.813,3.722c.438.053.879.069,1.346.087.22.008.443.016.67.029l.189.01v.847c0,.485,0,.949,0,1.413-.005.626.143.852.565.865a.552.552,0,0,0,.425-.123A1.125,1.125,0,0,0,27,46.434c0-.477,0-.954,0-1.434v-.832H49.931V46.39c0,.637.081.921.57.925h.01a.554.554,0,0,0,.408-.131,1.152,1.152,0,0,0,.176-.769c-.005-.476,0-.952,0-1.44v-.847h.2l.489,0c.3,0,.562,0,.823,0a5.758,5.758,0,0,0,5.5-3.74c.653-1.78,1.231-3.651,1.741-5.3a1.358,1.358,0,0,0-.112-1.166,1.461,1.461,0,0,0-1.076-.621,4.647,4.647,0,0,0-.631-.026H18.739M52.392,42.96h-.015c-9.133-.015-18.267,0-27.4-.014a9,9,0,0,1-1.965-.172,3.765,3.765,0,0,1-2.775-2.141c-.561-1.332-1.019-2.675-1.5-4.1-.2-.591-.405-1.186-.617-1.786l-.095-.265H58.888l-.1.266c-.221.618-.429,1.244-.631,1.85a34.963,34.963,0,0,1-1.549,4.092c-.707,1.483-2.166,2.266-4.221,2.266M18.584,34.884c.18.511.353,1.019.525,1.524.483,1.415.939,2.751,1.494,4.071a3.381,3.381,0,0,0,2.5,1.907,8.675,8.675,0,0,0,1.878.162c9.134.01,18.267,0,27.4.013h.014c1.918,0,3.217-.685,3.862-2.038a34.946,34.946,0,0,0,1.53-4.047c.174-.521.352-1.057.54-1.592Z" fill="#12263f"/>
    <path id="Path_172333" data-name="Path 172333" d="M23.8,53.774q5.97,0,11.942,0c1.473,0,1.979.5,1.981,1.962q.006,3.621,0,7.24c0,1.3-.57,1.859-1.873,1.86q-12.054,0-24.109,0c-1.325,0-1.917-.578-1.923-1.9q-.015-3.657,0-7.314c.007-1.291.583-1.844,1.89-1.846q6.045-.006,12.092,0m-12.367,9.42h24.7V55.321h-24.7Z" fill="#12263f"/>
    <path id="Path_172334" data-name="Path 172334" d="M23.792,65.038l-12.054,0a1.845,1.845,0,0,1-2.122-2.1c-.011-2.673-.011-5.066,0-7.316.007-1.393.671-2.042,2.089-2.044q4.232,0,8.464,0H35.74c1.587,0,2.178.587,2.181,2.162,0,2.281,0,4.738,0,7.241a1.8,1.8,0,0,1-2.073,2.058l-12.055,0M16.971,53.972l-5.265,0c-1.2,0-1.685.478-1.691,1.647-.012,2.249-.012,4.641,0,7.313.006,1.209.505,1.7,1.724,1.7q12.054,0,24.109,0c1.186,0,1.671-.481,1.674-1.66.007-2.5,0-4.958,0-7.24,0-1.35-.418-1.762-1.782-1.763q-4.3,0-8.6,0H16.971M36.33,63.393h-25.1V55.121h25.1Zm-24.7-.4h24.3V55.52H11.63Z" fill="#12263f"/>
    <path id="Path_172335" data-name="Path 172335" d="M45.783,64.83c-.671,0-1.342.017-2.012-.005a1.6,1.6,0,0,1-1.68-1.621c-.184-2.434.294-2.949,2.739-2.949.969,0,1.938-.016,2.906,0a1.592,1.592,0,0,1,1.719,1.655c.159,2.417-.3,2.916-2.7,2.916h-.969M43.7,63.193h4.137v-1.33H43.7Z" fill="#12263f"/>
    <path id="Path_172336" data-name="Path 172336" d="M44.545,65.035c-.259,0-.521,0-.781-.011a1.8,1.8,0,0,1-1.871-1.805,3.365,3.365,0,0,1,.435-2.537,3.372,3.372,0,0,1,2.5-.626h0l.868,0c.669,0,1.361-.006,2.043.008A1.792,1.792,0,0,1,49.653,61.9,3.376,3.376,0,0,1,49.2,64.42a3.329,3.329,0,0,1-2.452.61h-.969l-.645,0c-.195,0-.393,0-.593,0m.283-4.581c-1.256,0-1.875.14-2.208.5s-.425.985-.33,2.236a1.4,1.4,0,0,0,1.487,1.437c.451.015.912.011,1.358.008l.648,0h.969c1.229,0,1.835-.136,2.161-.485s.425-.973.343-2.219a1.4,1.4,0,0,0-1.524-1.469c-.676-.014-1.366-.011-2.032-.008l-.87,0Zm3.212,2.938H43.5V61.663H48.04Zm-4.137-.4h3.739v-.932H43.9Z" fill="#12263f"/>
    <path id="Path_172337" data-name="Path 172337" d="M55.313,64.83c-.67,0-1.342.016-2.012,0a1.6,1.6,0,0,1-1.692-1.682c-.084-2.155.069-3.032,2.8-2.9.941.047,1.888-.007,2.831.013a1.568,1.568,0,0,1,1.716,1.715c.072,2.527-.245,2.856-2.745,2.856h-.9m-2.092-1.639h4.153v-1.33H53.221Z" fill="#12263f"/>
    <path id="Path_172338" data-name="Path 172338" d="M54.076,65.035c-.26,0-.521,0-.781-.01a1.791,1.791,0,0,1-1.885-1.874c-.044-1.129-.035-2.035.5-2.567a3.228,3.228,0,0,1,2.5-.536c.538.027,1.089.02,1.623.014.394-.005.8-.01,1.2,0a1.761,1.761,0,0,1,1.911,1.908c.037,1.316-.025,2.068-.468,2.524s-1.209.537-2.476.537h-.9l-.641,0c-.2,0-.4,0-.6,0m-.183-4.6a2.388,2.388,0,0,0-1.7.434c-.385.381-.431,1.063-.384,2.269a1.41,1.41,0,0,0,1.5,1.49c.453.015.915.011,1.362.008l.645,0h.894c1.158,0,1.85-.067,2.19-.416s.389-1.057.356-2.235a1.378,1.378,0,0,0-1.521-1.522c-.4-.008-.8,0-1.19,0-.54.007-1.1.014-1.647-.013-.179-.009-.347-.014-.5-.014m3.681,2.957H53.023V61.662h4.551Zm-4.153-.4h3.754v-.931H53.421Z" fill="#12263f"/>
    <path id="Path_172339" data-name="Path 172339" d="M64.823,60.256c.671,0,1.343-.021,2.013.006a1.567,1.567,0,0,1,1.637,1.652c.078,2.062.023,3.068-2.772,2.924-.917-.047-1.839,0-2.758-.009a1.6,1.6,0,0,1-1.812-1.775c-.052-2.5.24-2.8,2.723-2.8h.969m-2.1,2.949H66.85V61.851H62.725Z" fill="#12263f"/>
    <path id="Path_172340" data-name="Path 172340" d="M66.193,65.051c-.158,0-.325-.005-.5-.014-.559-.029-1.133-.021-1.688-.014-.354,0-.708.009-1.061,0a1.8,1.8,0,0,1-2.009-1.97c-.027-1.3.038-2.041.47-2.482s1.164-.52,2.452-.52h.97c.212,0,.423,0,.635,0,.453-.005.922-.009,1.385.01a1.758,1.758,0,0,1,1.828,1.844c.046,1.222.036,2.063-.5,2.59a2.716,2.716,0,0,1-1.981.554m-1.435-.433c.317,0,.636.005.953.021a2.95,2.95,0,0,0,2.183-.425c.418-.413.422-1.176.38-2.293a1.364,1.364,0,0,0-1.446-1.46c-.453-.018-.917-.014-1.365-.01l-.64,0h-.969c-1.151,0-1.838.064-2.167.4s-.381,1.033-.357,2.2c.023,1.079.521,1.566,1.615,1.579.35,0,.7,0,1.052,0,.251,0,.5-.006.761-.006m2.29-1.214H62.525V61.652h4.523Zm-4.124-.4H66.65v-.955H62.924Z" fill="#12263f"/>
    <path id="Path_172341" data-name="Path 172341" d="M45.8,53.774c.621,0,1.242,0,1.863,0a2.786,2.786,0,0,1,.593.038c.971.219,1.325,1.081,1.194,2.869a1.511,1.511,0,0,1-1.513,1.608c-1.439.037-2.881.046-4.32,0-1.188-.038-1.565-.735-1.533-2.635.02-1.223.552-1.837,1.629-1.88.05,0,.1,0,.149,0H45.8m-2.115,2.943h4.139V55.36H43.688Z" fill="#12263f"/>
    <path id="Path_172342" data-name="Path 172342" d="M45.665,58.521c-.719,0-1.4-.011-2.052-.031-1.476-.047-1.754-1.121-1.725-2.837.022-1.33.635-2.028,1.821-2.076.048,0,.1,0,.145,0H46.33c.446,0,.891,0,1.337,0h.079a2.515,2.515,0,0,1,.557.043c1.373.309,1.442,1.807,1.349,3.078a1.7,1.7,0,0,1-1.707,1.792c-.805.021-1.561.031-2.28.031m-1.819-4.547h-.121c-.976.039-1.42.559-1.439,1.685-.034,2.018.425,2.4,1.34,2.432,1.3.041,2.706.041,4.309,0a1.328,1.328,0,0,0,1.32-1.423c.153-2.1-.409-2.517-1.04-2.659a2.2,2.2,0,0,0-.47-.034h-.081q-.666,0-1.334,0H43.846Zm4.181,2.942H43.489V55.161h4.538Zm-4.14-.4h3.741v-.959H43.887Z" fill="#12263f"/>
    <path id="Path_172343" data-name="Path 172343" d="M55.335,53.778c.7,0,1.392-.02,2.086.005a1.461,1.461,0,0,1,1.52,1.5c.07,2.194.19,3.192-2.839,3.037-.942-.049-1.888.007-2.831-.016a1.55,1.55,0,0,1-1.658-1.62c-.071-2.042-.077-3.093,2.754-2.913.321.02.645,0,.968,0Zm2.055,1.567H53.22V56.72h4.17Z" fill="#12263f"/>
    <path id="Path_172344" data-name="Path 172344" d="M56.677,58.535c-.182,0-.377-.006-.585-.016-.528-.027-1.071-.021-1.595-.015-.4,0-.819.009-1.231,0a1.75,1.75,0,0,1-1.852-1.811c-.04-1.152-.072-2.062.494-2.612a3.179,3.179,0,0,1,2.471-.508c.212.014.422.01.645.006l.311,0,.2,0c.147,0,.294,0,.44,0,.476,0,.969-.008,1.454.009a1.652,1.652,0,0,1,1.712,1.693l.006.182c.038,1.169.066,2.015-.466,2.537a2.753,2.753,0,0,1-2,.539M55.184,58.1c.309,0,.62.005.928.021,1.232.064,1.937-.063,2.289-.409.407-.4.382-1.172.347-2.24l-.006-.183a1.266,1.266,0,0,0-1.328-1.307c-.476-.017-.964-.013-1.436-.008l-.643,0-.2,0h-.105c-.221,0-.449.008-.677-.006a2.915,2.915,0,0,0-2.169.4c-.417.406-.414,1.143-.373,2.312A1.355,1.355,0,0,0,53.276,58.1c.4.01.817.005,1.217,0,.228,0,.459-.005.691-.005m2.406-1.181H53.022V55.146H57.59Zm-4.17-.4h3.771v-.976H53.42Z" fill="#12263f"/>
    <path id="Path_172345" data-name="Path 172345" d="M64.813,58.3c-.721,0-1.442.025-2.161-.007a1.47,1.47,0,0,1-1.511-1.512,14.572,14.572,0,0,1,.006-1.564,1.442,1.442,0,0,1,1.433-1.428c1.49-.033,2.981-.018,4.471,0a1.451,1.451,0,0,1,.694.226c.722.437,1.012,1.82.675,3.093-.212.8-.789,1.181-1.819,1.2H64.813V58.3m2.062-2.948H62.712v1.35h4.163Z" fill="#12263f"/>
    <path id="Path_172346" data-name="Path 172346" d="M66.542,58.512H66.5l-1.883-.01-.462.005c-.494.005-1,.011-1.508-.012a1.662,1.662,0,0,1-1.7-1.7,14.119,14.119,0,0,1,.007-1.586,1.645,1.645,0,0,1,1.627-1.615c1.545-.033,3.121-.015,4.478,0a1.658,1.658,0,0,1,.794.254c.793.481,1.129,1.936.765,3.315A1.826,1.826,0,0,1,66.6,58.511h-.062m-.09-.4H66.6c.939-.015,1.441-.339,1.629-1.05.317-1.2.054-2.485-.585-2.872a1.255,1.255,0,0,0-.594-.2c-1.353-.019-2.924-.036-4.464,0a1.245,1.245,0,0,0-1.238,1.241,13.852,13.852,0,0,0-.005,1.543,1.276,1.276,0,0,0,1.32,1.322c.493.022,1,.017,1.486.011.222,0,.444-.005.666-.005Zm.622-1.208H62.512V55.157h4.562Zm-4.163-.4h3.765v-.952H62.911Z" fill="#12263f"/>
  </g>
</svg>
